<?xml version="1.0" encoding="UTF-8" standalone="no"?> <!-- Created with Vectornator for iOS (http://vectornator.io/) --><!DOCTYPE svg PUBLIC "-//W3C//DTD SVG 1.1//EN" "http://www.w3.org/Graphics/SVG/1.1/DTD/svg11.dtd">
<svg height="100%" style="fill-rule:evenodd;clip-rule:evenodd;stroke-linecap:round;stroke-linejoin:round;" xmlns:xlink="http://www.w3.org/1999/xlink" xmlns="http://www.w3.org/2000/svg" xml:space="preserve" width="100%" xmlns:vectornator="http://vectornator.io" version="1.1" viewBox="0 0 1668 2388">
<metadata>
<vectornator:setting key="DimensionsVisible" value="1"/>
<vectornator:setting key="DynamicGuides" value="0"/>
<vectornator:setting key="SnapToPoints" value="0"/>
<vectornator:setting key="GuidesVisible" value="1"/>
<vectornator:setting key="RulersVisible" value="1"/>
<vectornator:setting key="CMYKEnabledKey" value="0"/>
<vectornator:setting key="SnapToEdges" value="0"/>
<vectornator:setting key="DisplayWhiteBackground" value="0"/>
<vectornator:setting key="SnapToGuides" value="1"/>
<vectornator:setting key="GridSpacing" value="36"/>
<vectornator:setting key="SnapToGrid" value="0"/>
<vectornator:setting key="Units" value="Pixels"/>
<vectornator:setting key="New" value="1"/>
</metadata>
<defs/>
<g id="Layer 1" vectornator:layerName="Layer 1" visibility="hidden">
<path d="M526.719+908.339L526.719+1371.83L1237.48+1371.83L1237.48+908.339L526.719+908.339ZM555.15+934.089L1209.05+934.089L1209.05+966.678L882.099+1200.84L555.15+966.678L555.15+934.089ZM557.177+993.587L875.242+1221.31C880.462+1225.08+887.791+1225.08+893.011+1221.31L1211.08+993.587L1211.08+1340L557.177+1340L557.177+993.587Z" opacity="1" fill="#000000"/>
</g>
<g id="Layer 2" vectornator:layerName="Layer 2" visibility="hidden">
<path d="M1073.69+1256.45C1074.32+1264.74+1071.9+1273.95+1065.94+1282.42C1060.74+1289.89+1047.95+1305.99+1033.5+1321.03C1026.3+1328.53+1018.8+1335.69+1011.44+1341.21C1004.08+1346.78+997.347+1351.63+987.596+1351.28C978.846+1350.94+952.971+1349.93+913.387+1330.92C873.844+1311.9+819.634+1275.13+749.461+1203.6C679.288+1132.02+643.418+1076.91+624.981+1036.78C606.544+996.655+605.793+970.467+605.544+961.626C605.299+951.816+610.166+945.063+615.744+937.681C621.322+930.3+628.442+922.8+635.936+915.597C650.967+901.19+667.031+888.431+674.474+883.248C691.325+871.418+711.153+873.496+720.299+886.802C726.052+895.166+776.196+972.074+783.142+983.643C790.171+995.381+786.898+1008.84+780.547+1020.84C775.543+1030.29+760.876+1055.85+756.674+1063.16C760.106+1068.69+773.801+1089.68+818.136+1134.9C862.471+1180.17+883.116+1194.16+888.559+1197.68C895.83+1193.51+921.155+1178.99+930.722+1173.98C942.63+1167.73+956.107+1164.26+967.74+1171.85C972.684+1175.03+994.245+1189.5+1015.89+1204.08C1037.53+1218.72+1058.05+1232.58+1062.95+1236.19L1062.99+1236.19C1069.35+1240.89+1073.06+1248.19+1073.69+1256.45ZM1051.89+1258.32C1051.53+1255.37+1050.37+1253.59+1050.37+1253.59C1048+1251.86+1025.65+1236.63+1004.05+1222.04C982.407+1207.45+960.223+1192.57+956.193+1189.98C955.57+1189.56+948.488+1188.93+940.592+1193.1L940.55+1193.1C931.567+1197.81+893.079+1219.81+893.079+1219.81L887.689+1222.85L882.369+1219.67C882.369+1219.67+854.818+1202.99+802.977+1150.11C751.135+1097.19+734.849+1069.2+734.849+1069.2L731.749+1063.79L734.817+1058.38C734.817+1058.38+756.922+1019.8+761.717+1010.69C765.881+1002.75+765.373+995.594+764.877+994.75C760.37+987.276+706.297+904.202+702.779+899.091C702.655+898.922+695.925+894.384+686.642+900.905L686.642+900.947C680.997+904.876+664.64+917.76+650.657+931.204C643.665+937.947+637.13+944.86+632.726+950.732C628.323+956.603+626.922+961.859+626.885+961.016C627.132+970.195+627.244+990.444+644.362+1027.7C661.437+1064.96+695.732+1118.17+764.661+1188.44C833.507+1258.66+885.85+1293.82+922.606+1311.47C959.322+1329.08+979.366+1329.39+988.408+1329.73C987.574+1329.69+992.832+1328.32+998.688+1323.93C1004.54+1319.54+1011.49+1313.05+1018.24+1306.05C1031.68+1292.02+1044.59+1275.67+1048.54+1270L1048.5+1270C1051.77+1265.35+1052.21+1261.26+1051.89+1258.32Z" opacity="1" fill="#000000"/>
</g>
<g id="Layer 3" vectornator:layerName="Layer 3" visibility="hidden">
<path d="M1277.45+554.521L787.847+558.796L791.836+1049.76L1053.53+1047.48L1051.99+857.609L988.256+858.165L987.652+783.838L1051.38+783.282L1050.94+728.594C1050.42+665.205+1088.79+630.309+1145.21+629.817C1164.22+629.596+1183.21+630.412+1202.13+632.184L1202.67+698.464L1163.83+698.803C1133.09+699.071+1127.23+713.689+1127.4+735.182L1127.79+782.506L1201.23+781.865L1192.28+856.274L1127.96+856.836L1129.5+1046.81L1281.44+1045.49L1277.45+554.521Z" opacity="1" fill="#000000"/>
</g>
<g id="Layer 5" vectornator:layerName="Layer 5" visibility="hidden">
<path stroke="#bfbdbd" stroke-width="20.43" d="M391.307+1132.6L211.254+808.795L397.486+488.607L763.771+492.228L943.824+816.037L757.592+1136.22L391.307+1132.6Z" fill="none" stroke-linecap="butt" opacity="1" stroke-linejoin="round"/>
<path stroke="#bfbdbd" stroke-width="20.43" d="M944.355+1464.62L764.302+1140.81L950.534+820.625L1316.82+824.246L1496.87+1148.06L1310.64+1468.24L944.355+1464.62Z" fill="none" stroke-linecap="butt" opacity="1" stroke-linejoin="round"/>
<path stroke="#bfbdbd" stroke-width="20.43" d="M385.618+1781.36L205.565+1457.55L391.796+1137.37L758.081+1140.99L938.134+1464.8L751.903+1784.98L385.618+1781.36Z" fill="none" stroke-linecap="butt" opacity="1" stroke-linejoin="round"/>
</g>
<g id="Layer 6" vectornator:layerName="Layer 6" visibility="hidden">
<path d="M577.391+838.715L577.391+1427.09L1158.09+1427.09L1158.09+838.715L577.391+838.715ZM1061.31+904.09C1079.11+904.09+1093.57+918.734+1093.57+936.778C1093.57+954.821+1079.11+969.465+1061.31+969.465C1043.5+969.465+1029.05+954.821+1029.05+936.778C1029.05+918.734+1043.5+904.09+1061.31+904.09ZM867.74+969.465C956.813+969.465+1029.05+1042.65+1029.05+1132.9C1029.05+1223.15+956.813+1296.34+867.74+1296.34C778.667+1296.34+706.435+1223.15+706.435+1132.9C706.435+1042.65+778.667+969.465+867.74+969.465ZM867.74+1034.84C814.288+1034.84+770.957+1078.74+770.957+1132.9C770.957+1187.06+814.288+1230.96+867.74+1230.96C921.192+1230.96+964.523+1187.06+964.523+1132.9C964.523+1078.74+921.192+1034.84+867.74+1034.84Z" opacity="1" fill="#000000"/>
</g>
<g id="Layer 7" vectornator:layerName="Layer 7">
<path d="M842.481+1847.23L137.493+626.156L1547.47+626.156L842.481+1847.23Z" opacity="1" fill="#bfbdbd"/>
</g>
</svg>
