<svg xmlns="http://www.w3.org/2000/svg" xmlns:xlink="http://www.w3.org/1999/xlink" width="95.752" height="95.752" viewBox="0 0 95.752 95.752">
  <defs>
    <radialGradient id="radial-gradient" cx="0.5" cy="0.5" r="0.5" gradientUnits="objectBoundingBox">
      <stop offset="0" stop-color="#fff"/>
      <stop offset="1" stop-color="#bfbdbd" stop-opacity="0.533"/>
    </radialGradient>
  </defs>
  <g id="Thin-M" transform="translate(-8.74 83.154)">
    <path id="Path_25" data-name="Path 25" d="M56.641,12.6a48.055,48.055,0,0,0,47.851-47.852,48.076,48.076,0,0,0-47.9-47.9A48.066,48.066,0,0,0,8.74-35.254,48.066,48.066,0,0,0,56.641,12.6Zm0-3.711A44.168,44.168,0,0,1,12.451-35.254,44.2,44.2,0,0,1,56.592-79.443a44.209,44.209,0,0,1,44.189,44.189A44.157,44.157,0,0,1,56.641,8.887ZM24.8-55.859a1.428,1.428,0,0,0,1.416,1.465H35.84l4.59,31.152C40.82-20.41,42.48-18.7,46.045-18.7H76.611a1.372,1.372,0,0,0,1.416-1.465,1.372,1.372,0,0,0-1.416-1.465H46.484c-2.149,0-3.076-.684-3.32-2.588l-.537-4.248H76.514c3.223,0,4.541-1.758,4.98-4.834l2.295-14.941a5.4,5.4,0,0,0,.146-.781c0-.928-.586-1.465-1.66-1.465H39.307l-.635-4.834a2.3,2.3,0,0,0-2.49-2.051H26.221A1.441,1.441,0,0,0,24.8-55.859ZM44.873-10.547a3.908,3.908,0,0,0,3.955,3.955,3.919,3.919,0,0,0,4-3.955,3.919,3.919,0,0,0-4-3.955A3.908,3.908,0,0,0,44.873-10.547Zm23.34,0a3.949,3.949,0,0,0,4,3.955,3.949,3.949,0,0,0,4-3.955,3.949,3.949,0,0,0-4-3.955A3.949,3.949,0,0,0,68.213-10.547Z" fill="url(#radial-gradient)"/>
  </g>
</svg>
