<?xml version="1.0" encoding="UTF-8"?>
<!--Generator: Apple Native CoreSVG 149-->
<!DOCTYPE svg
PUBLIC "-//W3C//DTD SVG 1.1//EN"
       "http://www.w3.org/Graphics/SVG/1.1/DTD/svg11.dtd">
<svg version="1.1" xmlns="http://www.w3.org/2000/svg" xmlns:xlink="http://www.w3.org/1999/xlink" width="3300" height="2200">
 <!--glyph: "uni1004AD.medium", point size: 100.000000, font version: "Version 16.0d18e1", template writer version: "8"-->
 <g id="Notes">
  <rect height="2200" id="artboard" style="fill:white;opacity:1" width="3300" x="0" y="0"/>
  <line id="" style="fill:none;stroke:black;opacity:1;stroke-width:0.5;" x1="263" x2="3036" y1="292" y2="292"/>
  <text style="stroke:none;fill:black;font-family:-apple-system,&quot;SF Pro Display&quot;,&quot;SF Pro Text&quot;,Helvetica,sans-serif;font-weight:bold;" transform="matrix(1 0 0 1 263 322)">Weight/Scale Variations</text>
  <text style="stroke:none;fill:black;font-family:-apple-system,&quot;SF Pro Display&quot;,&quot;SF Pro Text&quot;,Helvetica,sans-serif;text-anchor:middle;" transform="matrix(1 0 0 1 559.711 322)">Ultralight</text>
  <text style="stroke:none;fill:black;font-family:-apple-system,&quot;SF Pro Display&quot;,&quot;SF Pro Text&quot;,Helvetica,sans-serif;text-anchor:middle;" transform="matrix(1 0 0 1 856.422 322)">Thin</text>
  <text style="stroke:none;fill:black;font-family:-apple-system,&quot;SF Pro Display&quot;,&quot;SF Pro Text&quot;,Helvetica,sans-serif;text-anchor:middle;" transform="matrix(1 0 0 1 1153.13 322)">Light</text>
  <text style="stroke:none;fill:black;font-family:-apple-system,&quot;SF Pro Display&quot;,&quot;SF Pro Text&quot;,Helvetica,sans-serif;text-anchor:middle;" transform="matrix(1 0 0 1 1449.84 322)">Regular</text>
  <text style="stroke:none;fill:black;font-family:-apple-system,&quot;SF Pro Display&quot;,&quot;SF Pro Text&quot;,Helvetica,sans-serif;text-anchor:middle;" transform="matrix(1 0 0 1 1746.56 322)">Medium</text>
  <text style="stroke:none;fill:black;font-family:-apple-system,&quot;SF Pro Display&quot;,&quot;SF Pro Text&quot;,Helvetica,sans-serif;text-anchor:middle;" transform="matrix(1 0 0 1 2043.27 322)">Semibold</text>
  <text style="stroke:none;fill:black;font-family:-apple-system,&quot;SF Pro Display&quot;,&quot;SF Pro Text&quot;,Helvetica,sans-serif;text-anchor:middle;" transform="matrix(1 0 0 1 2339.98 322)">Bold</text>
  <text style="stroke:none;fill:black;font-family:-apple-system,&quot;SF Pro Display&quot;,&quot;SF Pro Text&quot;,Helvetica,sans-serif;text-anchor:middle;" transform="matrix(1 0 0 1 2636.69 322)">Heavy</text>
  <text style="stroke:none;fill:black;font-family:-apple-system,&quot;SF Pro Display&quot;,&quot;SF Pro Text&quot;,Helvetica,sans-serif;text-anchor:middle;" transform="matrix(1 0 0 1 2933.4 322)">Black</text>
  <line id="" style="fill:none;stroke:black;opacity:1;stroke-width:0.5;" x1="263" x2="3036" y1="1903" y2="1903"/>
  <g id="" transform="matrix(1 0 0 1 263 1933)">
   <path d="M9.24805 0.830078C13.5547 0.830078 17.1387-2.74414 17.1387-7.05078C17.1387-11.3574 13.5449-14.9316 9.23828-14.9316C4.94141-14.9316 1.36719-11.3574 1.36719-7.05078C1.36719-2.74414 4.95117 0.830078 9.24805 0.830078ZM9.24805-0.654297C5.70312-0.654297 2.87109-3.49609 2.87109-7.05078C2.87109-10.6055 5.69336-13.4473 9.23828-13.4473C12.793-13.4473 15.6348-10.6055 15.6445-7.05078C15.6543-3.49609 12.8027-0.654297 9.24805-0.654297ZM6.39648-6.31836L8.50586-6.31836L8.50586-4.19922C8.50586-3.75977 8.79883-3.45703 9.22852-3.45703C9.67773-3.45703 9.9707-3.75977 9.9707-4.19922L9.9707-6.31836L12.0996-6.31836C12.5391-6.31836 12.8418-6.61133 12.8418-7.04102C12.8418-7.48047 12.5391-7.7832 12.0996-7.7832L9.9707-7.7832L9.9707-9.89258C9.9707-10.3418 9.67773-10.6445 9.22852-10.6445C8.79883-10.6445 8.50586-10.3418 8.50586-9.89258L8.50586-7.7832L6.39648-7.7832C5.94727-7.7832 5.64453-7.48047 5.64453-7.04102C5.64453-6.61133 5.94727-6.31836 6.39648-6.31836Z"/>
  </g>
  <g id="" transform="matrix(1 0 0 1 281.506 1933)">
   <path d="M11.709 2.91016C17.1582 2.91016 21.6699-1.61133 21.6699-7.05078C21.6699-12.5 17.1484-17.0117 11.6992-17.0117C6.25977-17.0117 1.74805-12.5 1.74805-7.05078C1.74805-1.61133 6.26953 2.91016 11.709 2.91016ZM11.709 1.25C7.09961 1.25 3.41797-2.44141 3.41797-7.05078C3.41797-11.6602 7.08984-15.3516 11.6992-15.3516C16.3086-15.3516 20-11.6602 20.0098-7.05078C20.0195-2.44141 16.3184 1.25 11.709 1.25ZM7.98828-6.23047L10.8789-6.23047L10.8789-3.32031C10.8789-2.83203 11.2109-2.5 11.6895-2.5C12.1777-2.5 12.5195-2.83203 12.5195-3.32031L12.5195-6.23047L15.4297-6.23047C15.918-6.23047 16.25-6.5625 16.25-7.04102C16.25-7.5293 15.918-7.87109 15.4297-7.87109L12.5195-7.87109L12.5195-10.7617C12.5195-11.2695 12.1777-11.6016 11.6895-11.6016C11.2109-11.6016 10.8789-11.2598 10.8789-10.7617L10.8789-7.87109L7.98828-7.87109C7.48047-7.87109 7.14844-7.5293 7.14844-7.04102C7.14844-6.5625 7.49023-6.23047 7.98828-6.23047Z"/>
  </g>
  <g id="" transform="matrix(1 0 0 1 304.924 1933)">
   <path d="M14.9707 5.66406C21.9336 5.66406 27.6953-0.0976562 27.6953-7.05078C27.6953-14.0137 21.9238-19.7754 14.9609-19.7754C8.00781-19.7754 2.25586-14.0137 2.25586-7.05078C2.25586-0.0976562 8.01758 5.66406 14.9707 5.66406ZM14.9707 3.84766C8.93555 3.84766 4.08203-1.01562 4.08203-7.05078C4.08203-13.0957 8.92578-17.9492 14.9609-17.9492C21.0059-17.9492 25.8594-13.0957 25.8691-7.05078C25.8789-1.01562 21.0156 3.84766 14.9707 3.84766ZM10.0586-6.14258L14.0625-6.14258L14.0625-2.12891C14.0625-1.5918 14.4336-1.2207 14.9512-1.2207C15.4883-1.2207 15.8594-1.5918 15.8594-2.12891L15.8594-6.14258L19.8828-6.14258C20.4102-6.14258 20.791-6.51367 20.791-7.03125C20.791-7.56836 20.4199-7.94922 19.8828-7.94922L15.8594-7.94922L15.8594-11.9531C15.8594-12.5098 15.4883-12.8809 14.9512-12.8809C14.4336-12.8809 14.0625-12.5 14.0625-11.9531L14.0625-7.94922L10.0586-7.94922C9.50195-7.94922 9.13086-7.56836 9.13086-7.03125C9.13086-6.51367 9.51172-6.14258 10.0586-6.14258Z"/>
  </g>
  <text style="stroke:none;fill:black;font-family:-apple-system,&quot;SF Pro Display&quot;,&quot;SF Pro Text&quot;,Helvetica,sans-serif;font-weight:bold;" transform="matrix(1 0 0 1 263 1953)">Design Variations</text>
  <text style="stroke:none;fill:black;font-family:-apple-system,&quot;SF Pro Display&quot;,&quot;SF Pro Text&quot;,Helvetica,sans-serif;" transform="matrix(1 0 0 1 263 1971)">Symbols are supported in up to nine weights and three scales.</text>
  <text style="stroke:none;fill:black;font-family:-apple-system,&quot;SF Pro Display&quot;,&quot;SF Pro Text&quot;,Helvetica,sans-serif;" transform="matrix(1 0 0 1 263 1989)">For optimal layout with text and other symbols, vertically align</text>
  <text style="stroke:none;fill:black;font-family:-apple-system,&quot;SF Pro Display&quot;,&quot;SF Pro Text&quot;,Helvetica,sans-serif;" transform="matrix(1 0 0 1 263 2007)">symbols with the adjacent text.</text>
  <line id="" style="fill:none;stroke:#00AEEF;stroke-width:0.5;opacity:1.0;" x1="776" x2="776" y1="1919" y2="1933"/>
  <g id="" transform="matrix(1 0 0 1 776 1933)">
   <path d="M3.31055 0.126953C3.82812 0.126953 4.08203-0.0683594 4.26758-0.605469L5.52734-4.0625L11.2891-4.0625L12.5488-0.605469C12.7344-0.0683594 12.9883 0.126953 13.4961 0.126953C14.0137 0.126953 14.3457-0.185547 14.3457-0.673828C14.3457-0.839844 14.3164-0.986328 14.2383-1.20117L9.6582-13.3887C9.43359-13.9941 9.0332-14.2871 8.4082-14.2871C7.80273-14.2871 7.39258-13.9941 7.17773-13.3984L2.59766-1.19141C2.51953-0.976562 2.49023-0.830078 2.49023-0.664062C2.49023-0.175781 2.80273 0.126953 3.31055 0.126953ZM6.00586-5.53711L8.37891-12.1094L8.42773-12.1094L10.8008-5.53711Z"/>
  </g>
  <line id="" style="fill:none;stroke:#00AEEF;stroke-width:0.5;opacity:1.0;" x1="792.836" x2="792.836" y1="1919" y2="1933"/>
  <text style="stroke:none;fill:black;font-family:-apple-system,&quot;SF Pro Display&quot;,&quot;SF Pro Text&quot;,Helvetica,sans-serif;font-weight:bold;" transform="matrix(1 0 0 1 776 1953)">Margins</text>
  <text style="stroke:none;fill:black;font-family:-apple-system,&quot;SF Pro Display&quot;,&quot;SF Pro Text&quot;,Helvetica,sans-serif;" transform="matrix(1 0 0 1 776 1971)">Leading and trailing margins on the left and right side of each symbol</text>
  <text style="stroke:none;fill:black;font-family:-apple-system,&quot;SF Pro Display&quot;,&quot;SF Pro Text&quot;,Helvetica,sans-serif;" transform="matrix(1 0 0 1 776 1989)">can be adjusted by modifying the x-location of the margin guidelines.</text>
  <text style="stroke:none;fill:black;font-family:-apple-system,&quot;SF Pro Display&quot;,&quot;SF Pro Text&quot;,Helvetica,sans-serif;" transform="matrix(1 0 0 1 776 2007)">Modifications are automatically applied proportionally to all</text>
  <text style="stroke:none;fill:black;font-family:-apple-system,&quot;SF Pro Display&quot;,&quot;SF Pro Text&quot;,Helvetica,sans-serif;" transform="matrix(1 0 0 1 776 2025)">scales and weights.</text>
  <g id="" transform="matrix(1 0 0 1 1289 1933)">
   <path d="M2.8418 1.86523L4.54102 3.57422C5.40039 4.44336 6.38672 4.38477 7.31445 3.35938L17.4902-7.85156C17.7539-7.76367 18.0273-7.7832 18.3398-7.8418L19.4043-8.03711L20.0684-7.36328L20.0293-6.80664C19.9902-6.30859 20.1172-5.92773 20.6055-5.44922L21.3672-4.70703C21.8457-4.22852 22.4609-4.19922 22.9297-4.66797L25.8398-7.58789C26.3086-8.05664 26.2891-8.65234 25.8105-9.13086L25.0391-9.89258C24.5605-10.3711 24.1895-10.5273 23.7109-10.4883L23.1348-10.4395L22.4902-11.0742L22.7344-12.1973C22.8613-12.7637 22.7051-13.2031 22.1191-13.7891L19.9219-15.9766C16.582-19.2969 12.1484-19.2188 9.25781-16.3281C8.83789-15.918 8.80859-15.3418 9.04297-14.9512C9.27734-14.5898 9.73633-14.3555 10.3809-14.5215C11.8457-14.8633 13.3691-14.9219 14.7949-13.9844L14.209-12.5293C14.0137-12.0508 13.9844-11.6504 14.1113-11.2891L3.04688-0.898438C2.06055 0.0195312 1.98242 0.996094 2.8418 1.86523ZM10.752-15.957C13.1836-17.7344 16.4746-17.4316 18.7012-15.2051L21.1328-12.793C21.3672-12.5586 21.4062-12.373 21.3379-12.0312L21.0156-10.5469L22.5195-9.0625L23.5059-9.12109C23.7598-9.13086 23.8379-9.11133 24.0332-8.91602L24.6094-8.33984L22.168-5.89844L21.5918-6.47461C21.3965-6.66992 21.3672-6.74805 21.377-7.01172L21.4453-7.98828L19.9512-9.47266L18.4277-9.21875C18.1055-9.15039 17.959-9.17969 17.7148-9.41406L15.7129-11.416C15.459-11.6504 15.4297-11.8164 15.5859-12.1875L16.4648-14.2773C14.9023-15.7324 12.8711-16.3574 10.8398-15.7617C10.6836-15.7227 10.625-15.8496 10.752-15.957ZM5.27344 2.30469L4.10156 1.14258C3.63281 0.683594 3.74023 0.341797 4.14062-0.0195312L14.9512-10.1953L16.416-8.71094L6.42578 2.27539C6.07422 2.67578 5.74219 2.77344 5.27344 2.30469Z"/>
  </g>
  <text style="stroke:none;fill:black;font-family:-apple-system,&quot;SF Pro Display&quot;,&quot;SF Pro Text&quot;,Helvetica,sans-serif;font-weight:bold;" transform="matrix(1 0 0 1 1289 1953)">Exporting</text>
  <text style="stroke:none;fill:black;font-family:-apple-system,&quot;SF Pro Display&quot;,&quot;SF Pro Text&quot;,Helvetica,sans-serif;" transform="matrix(1 0 0 1 1289 1971)">Symbols should be outlined when exporting to ensure the</text>
  <text style="stroke:none;fill:black;font-family:-apple-system,&quot;SF Pro Display&quot;,&quot;SF Pro Text&quot;,Helvetica,sans-serif;" transform="matrix(1 0 0 1 1289 1989)">design is preserved when submitting to Xcode.</text>
  <text id="template-version" style="stroke:none;fill:black;font-family:-apple-system,&quot;SF Pro Display&quot;,&quot;SF Pro Text&quot;,Helvetica,sans-serif;text-anchor:end;" transform="matrix(1 0 0 1 3036 1933)">Template v.2.0</text>
  <text style="stroke:none;fill:black;font-family:-apple-system,&quot;SF Pro Display&quot;,&quot;SF Pro Text&quot;,Helvetica,sans-serif;text-anchor:end;" transform="matrix(1 0 0 1 3036 1951)">Requires Xcode 12 or greater</text>
  <text style="stroke:none;fill:black;font-family:-apple-system,&quot;SF Pro Display&quot;,&quot;SF Pro Text&quot;,Helvetica,sans-serif;text-anchor:end;" transform="matrix(1 0 0 1 3036 1969)">Generated from cart.circle</text>
  <text style="stroke:none;fill:black;font-family:-apple-system,&quot;SF Pro Display&quot;,&quot;SF Pro Text&quot;,Helvetica,sans-serif;text-anchor:end;" transform="matrix(1 0 0 1 3036 1987)">Typeset at 100 points</text>
  <text style="stroke:none;fill:black;font-family:-apple-system,&quot;SF Pro Display&quot;,&quot;SF Pro Text&quot;,Helvetica,sans-serif;" transform="matrix(1 0 0 1 263 726)">Small</text>
  <text style="stroke:none;fill:black;font-family:-apple-system,&quot;SF Pro Display&quot;,&quot;SF Pro Text&quot;,Helvetica,sans-serif;" transform="matrix(1 0 0 1 263 1156)">Medium</text>
  <text style="stroke:none;fill:black;font-family:-apple-system,&quot;SF Pro Display&quot;,&quot;SF Pro Text&quot;,Helvetica,sans-serif;" transform="matrix(1 0 0 1 263 1586)">Large</text>
 </g>
 <g id="Guides">
  <g id="H-reference" style="fill:#27AAE1;stroke:none;" transform="matrix(1 0 0 1 339 696)">
   <path d="M0.976562 0L3.66211 0L12.9883-24.4629L45.752-24.4629L55.127 0L57.7637 0L30.6152-70.459L28.125-70.459ZM29.3457-67.1387L29.4434-67.1387L44.873-26.709L13.8672-26.709Z"/>
  </g>
  <line id="Baseline-S" style="fill:none;stroke:#27AAE1;opacity:1;stroke-width:0.5;" x1="263" x2="3036" y1="696" y2="696"/>
  <line id="Capline-S" style="fill:none;stroke:#27AAE1;opacity:1;stroke-width:0.5;" x1="263" x2="3036" y1="625.541" y2="625.541"/>
  <g id="H-reference" style="fill:#27AAE1;stroke:none;" transform="matrix(1 0 0 1 339 1126)">
   <path d="M0.976562 0L3.66211 0L12.9883-24.4629L45.752-24.4629L55.127 0L57.7637 0L30.6152-70.459L28.125-70.459ZM29.3457-67.1387L29.4434-67.1387L44.873-26.709L13.8672-26.709Z"/>
  </g>
  <line id="Baseline-M" style="fill:none;stroke:#27AAE1;opacity:1;stroke-width:0.5;" x1="263" x2="3036" y1="1126" y2="1126"/>
  <line id="Capline-M" style="fill:none;stroke:#27AAE1;opacity:1;stroke-width:0.5;" x1="263" x2="3036" y1="1055.54" y2="1055.54"/>
  <g id="H-reference" style="fill:#27AAE1;stroke:none;" transform="matrix(1 0 0 1 339 1556)">
   <path d="M0.976562 0L3.66211 0L12.9883-24.4629L45.752-24.4629L55.127 0L57.7637 0L30.6152-70.459L28.125-70.459ZM29.3457-67.1387L29.4434-67.1387L44.873-26.709L13.8672-26.709Z"/>
  </g>
  <line id="Baseline-L" style="fill:none;stroke:#27AAE1;opacity:1;stroke-width:0.5;" x1="263" x2="3036" y1="1556" y2="1556"/>
  <line id="Capline-L" style="fill:none;stroke:#27AAE1;opacity:1;stroke-width:0.5;" x1="263" x2="3036" y1="1485.54" y2="1485.54"/>
  <line id="left-margin" style="fill:none;stroke:#00AEEF;stroke-width:0.5;opacity:1.0;" x1="1391.3" x2="1391.3" y1="1030.79" y2="1150.12"/>
  <line id="right-margin" style="fill:none;stroke:#00AEEF;stroke-width:0.5;opacity:1.0;" x1="1508.39" x2="1508.39" y1="1030.79" y2="1150.12"/>
 </g>
 <g id="Symbols">
  <g id="Black-L" transform="matrix(1 0 0 1 2854.05 1556)">
   <path d="M79.3457 32.8613C116.748 32.8613 147.412 2.19727 147.412-35.2051C147.412-72.6074 116.748-103.271 79.2969-103.271C41.8945-103.271 11.2793-72.6074 11.2793-35.2051C11.2793 2.19727 41.9434 32.8613 79.3457 32.8613ZM79.3457 12.4023C52.9785 12.4023 31.7383-8.83789 31.7383-35.2051C31.7383-61.5723 52.9297-82.8125 79.2969-82.8125C105.664-82.8125 126.953-61.5723 126.953-35.2051C127.002-8.83789 105.713 12.4023 79.3457 12.4023ZM44.3359-54.8828C44.3359-52.3438 46.3867-50.293 48.877-50.293L56.3477-50.293L60.2539-23.7305C60.9863-18.6035 64.0625-15.7227 69.2871-15.7227L100.293-15.7227C102.539-15.7227 104.395-17.2852 104.395-19.7754C104.395-22.2168 102.539-23.7305 100.293-23.7305L70.5566-23.7305C69.7266-23.7305 69.1895-24.1699 69.043-25.0977L68.7988-27.0508L101.514-27.0508C106.396-27.0508 109.131-29.9316 109.863-34.9609L111.523-46.5332C111.621-47.0215 111.67-47.5586 111.67-48.0469C111.67-50.4395 110.156-52.1973 107.08-52.1973L64.8926-52.1973L64.5508-54.3457C63.9648-57.5684 62.0605-59.5215 58.252-59.5215L48.877-59.5215C46.3867-59.5215 44.3359-57.4707 44.3359-54.8828ZM65.1367-6.5918C65.1367-3.27148 67.8711-0.634766 71.1426-0.634766C74.5117-0.634766 77.1484-3.27148 77.1484-6.5918C77.1484-9.96094 74.5117-12.6465 71.1426-12.6465C67.8711-12.6465 65.1367-9.96094 65.1367-6.5918ZM89.4043-6.5918C89.4043-3.27148 92.1387-0.634766 95.459-0.634766C98.7305-0.634766 101.465-3.27148 101.465-6.5918C101.465-9.96094 98.7305-12.6465 95.459-12.6465C92.1387-12.6465 89.4043-9.96094 89.4043-6.5918Z"/>
  </g>
  <g id="Heavy-L" transform="matrix(1 0 0 1 2558.39 1556)">
   <path d="M78.2715 31.7871C115.088 31.7871 145.312 1.5625 145.312-35.2051C145.312-72.0215 115.039-102.246 78.2715-102.246C41.4551-102.246 11.2793-72.0215 11.2793-35.2051C11.2793 1.5625 41.5039 31.7871 78.2715 31.7871ZM78.2715 14.0137C51.0254 14.0137 29.0527-7.95898 29.0527-35.2051C29.0527-62.5 50.9766-84.4727 78.2715-84.4727C105.518-84.4727 127.49-62.5 127.539-35.2051C127.539-7.95898 105.566 14.0137 78.2715 14.0137ZM42.2852-56.1523C42.2852-53.8086 44.1406-51.9531 46.4355-51.9531L54.6387-51.9531L58.8379-23.0957C59.5703-18.1152 62.5977-15.2832 67.8711-15.2832L100-15.2832C102.148-15.2832 103.809-16.748 103.809-19.0918C103.809-21.3379 102.148-22.8027 100-22.8027L68.8965-22.8027C67.7734-22.8027 67.0898-23.3887 66.8945-24.5605L66.6016-26.8555L101.172-26.8555C106.006-26.8555 108.594-29.6875 109.326-34.5215L111.182-47.5586C111.279-47.998 111.377-48.584 111.377-48.9746C111.377-51.1719 109.961-52.7344 107.178-52.7344L62.6465-52.7344L62.207-55.5176C61.7188-58.5449 59.7656-60.4004 56.25-60.4004L46.4355-60.4004C44.1406-60.4004 42.2852-58.5449 42.2852-56.1523ZM63.8184-5.95703C63.8184-2.68555 66.5039-0.0976562 69.7266-0.0976562C73.0469-0.0976562 75.5859-2.68555 75.5859-5.95703C75.5859-9.22852 73.0469-11.8652 69.7266-11.8652C66.5039-11.8652 63.8184-9.22852 63.8184-5.95703ZM89.1602-5.95703C89.1602-2.68555 91.7969-0.0976562 95.0684-0.0976562C98.3398-0.0976562 100.928-2.68555 100.928-5.95703C100.928-9.22852 98.3398-11.8652 95.0684-11.8652C91.7969-11.8652 89.1602-9.22852 89.1602-5.95703Z"/>
  </g>
  <g id="Bold-L" transform="matrix(1 0 0 1 2262.88 1556)">
   <path d="M77.0996 30.5664C113.232 30.5664 142.92 0.878906 142.92-35.2539C142.92-71.3379 113.184-101.074 77.0508-101.074C40.9668-101.074 11.2793-71.3379 11.2793-35.2539C11.2793 0.878906 41.0156 30.5664 77.0996 30.5664ZM77.0996 15.8203C48.8281 15.8203 26.0742-6.98242 26.0742-35.2539C26.0742-63.5254 48.7793-86.2793 77.0508-86.2793C105.371-86.2793 128.125-63.5254 128.174-35.2539C128.174-6.98242 105.371 15.8203 77.0996 15.8203ZM40.0391-57.5684C40.0391-55.4688 41.6504-53.8086 43.75-53.8086L52.7344-53.8086L57.2754-22.4121C58.0078-17.5293 60.9863-14.7949 66.3086-14.7949L99.707-14.7949C101.66-14.7949 103.174-16.1621 103.174-18.3105C103.174-20.4102 101.66-21.7285 99.707-21.7285L67.041-21.7285C65.5762-21.7285 64.6973-22.5098 64.502-23.9746L64.1602-26.6113L100.781-26.6113C105.518-26.6113 108.008-29.3945 108.691-34.082L110.84-48.7305C110.938-49.1211 110.986-49.707 110.986-50.0488C110.986-51.9531 109.717-53.3203 107.324-53.3203L60.1562-53.3203L59.6191-56.8359C59.1797-59.6191 57.2754-61.377 54.0527-61.377L43.75-61.377C41.6504-61.377 40.0391-59.7656 40.0391-57.5684ZM62.3535-5.22461C62.3535-2.05078 64.9414 0.488281 68.1152 0.488281C71.3379 0.488281 73.877-2.05078 73.877-5.22461C73.877-8.44727 71.3379-11.0352 68.1152-11.0352C64.9414-11.0352 62.3535-8.44727 62.3535-5.22461ZM88.8184-5.22461C88.8184-2.05078 91.4551 0.488281 94.6289 0.488281C97.8027 0.488281 100.391-2.05078 100.391-5.22461C100.391-8.44727 97.8027-11.0352 94.6289-11.0352C91.4551-11.0352 88.8184-8.44727 88.8184-5.22461Z"/>
  </g>
  <g id="Semibold-L" transform="matrix(1 0 0 1 1966.97 1556)">
   <path d="M76.2695 29.7363C111.914 29.7363 141.309 0.390625 141.309-35.2539C141.309-70.8984 111.865-100.244 76.2695-100.244C40.625-100.244 11.2793-70.8984 11.2793-35.2539C11.2793 0.390625 40.6738 29.7363 76.2695 29.7363ZM76.2695 17.041C47.3145 17.041 24.0234-6.25 24.0234-35.2539C24.0234-64.209 47.2656-87.5488 76.2695-87.5488C105.225-87.5488 128.564-64.209 128.613-35.2539C128.662-6.25 105.273 17.041 76.2695 17.041ZM38.4277-58.5449C38.4277-56.5918 39.8926-55.127 41.8457-55.127L51.416-55.127L56.2012-21.9238C56.9336-17.1387 59.9121-14.4531 65.2344-14.4531L99.4629-14.4531C101.318-14.4531 102.686-15.7715 102.686-17.7734C102.686-19.7266 101.318-20.9961 99.4629-20.9961L65.7715-20.9961C64.0625-20.9961 63.0859-21.875 62.8418-23.584L62.5-26.416L100.537-26.416C105.225-26.416 107.568-29.1504 108.252-33.7891L110.596-49.5117C110.645-49.9023 110.742-50.4883 110.742-50.7812C110.742-52.5391 109.57-53.7109 107.422-53.7109L58.3984-53.7109L57.8613-57.7148C57.4707-60.3516 55.5176-62.0605 52.5391-62.0605L41.8457-62.0605C39.8926-62.0605 38.4277-60.5957 38.4277-58.5449ZM61.377-4.73633C61.377-1.61133 63.8672 0.878906 66.9922 0.878906C70.2148 0.878906 72.7051-1.61133 72.7051-4.73633C72.7051-7.91016 70.2148-10.4492 66.9922-10.4492C63.8672-10.4492 61.377-7.91016 61.377-4.73633ZM88.623-4.73633C88.623-1.61133 91.2109 0.878906 94.3359 0.878906C97.5098 0.878906 100-1.61133 100-4.73633C100-7.91016 97.5098-10.4492 94.3359-10.4492C91.2109-10.4492 88.623-7.91016 88.623-4.73633Z"/>
  </g>
  <g id="Medium-L" transform="matrix(1 0 0 1 1670.87 1556)">
   <path d="M75.6836 29.1504C110.938 29.1504 140.088 0 140.088-35.2539C140.088-70.5078 110.889-99.6582 75.6348-99.6582C40.3809-99.6582 11.2793-70.5078 11.2793-35.2539C11.2793 0 40.3809 29.1504 75.6836 29.1504ZM75.6836 18.0176C46.1426 18.0176 22.4609-5.76172 22.4609-35.2539C22.4609-64.7461 46.1426-88.5254 75.6348-88.5254C105.127-88.5254 128.906-64.7461 128.906-35.2539C128.955-5.76172 105.176 18.0176 75.6836 18.0176ZM37.2559-59.3262C37.2559-57.4219 38.5742-56.1035 40.4297-56.1035L50.4395-56.1035L55.4199-21.5332C56.1035-16.7969 59.0332-14.209 64.4043-14.209L99.2676-14.209C101.074-14.209 102.344-15.4785 102.344-17.3828C102.344-19.2383 101.074-20.459 99.2676-20.459L64.8438-20.459C62.9395-20.459 61.8652-21.3867 61.6211-23.291L61.2305-26.2695L100.342-26.2695C104.98-26.2695 107.227-29.0039 107.91-33.5449L110.4-50.1465C110.449-50.4883 110.547-51.0742 110.547-51.3184C110.547-52.9297 109.424-54.0527 107.471-54.0527L57.0801-54.0527L56.4941-58.3984C56.1523-60.9375 54.1992-62.5488 51.416-62.5488L40.4297-62.5488C38.5742-62.5488 37.2559-61.2305 37.2559-59.3262ZM60.5957-4.3457C60.5957-1.26953 63.0859 1.2207 66.1621 1.2207C69.3359 1.2207 71.7773-1.26953 71.7773-4.3457C71.7773-7.51953 69.3359-9.96094 66.1621-9.96094C63.0859-9.96094 60.5957-7.51953 60.5957-4.3457ZM88.4766-4.3457C88.4766-1.26953 91.0156 1.2207 94.0918 1.2207C97.2168 1.2207 99.707-1.26953 99.707-4.3457C99.707-7.51953 97.2168-9.96094 94.0918-9.96094C91.0156-9.96094 88.4766-7.51953 88.4766-4.3457Z"/>
  </g>
  <g id="Regular-L" transform="matrix(1 0 0 1 1374.97 1556)">
   <path d="M74.8535 28.3203C109.668 28.3203 138.477-0.488281 138.477-35.2539C138.477-70.0684 109.619-98.877 74.8047-98.877C40.0391-98.877 11.2793-70.0684 11.2793-35.2539C11.2793-0.488281 40.0879 28.3203 74.8535 28.3203ZM74.8535 19.2383C44.6777 19.2383 20.4102-5.07812 20.4102-35.2539C20.4102-65.4785 44.6289-89.7461 74.8047-89.7461C105.029-89.7461 129.297-65.4785 129.346-35.2539C129.395-5.07812 105.078 19.2383 74.8535 19.2383ZM35.6934-60.2539C35.6934-58.5449 36.8652-57.373 38.5742-57.373L49.1211-57.373L54.3457-21.0449C55.0293-16.4062 57.959-13.8672 63.3301-13.8672L99.0723-13.8672C100.781-13.8672 101.904-15.0879 101.904-16.8457C101.904-18.5547 100.781-19.7266 99.0723-19.7266L63.5742-19.7266C61.4258-19.7266 60.2539-20.8008 59.9609-22.9004L59.5703-26.123L100.098-26.123C104.639-26.123 106.836-28.8086 107.471-33.2031L110.156-50.9277C110.205-51.2695 110.303-51.8066 110.303-52.0508C110.303-53.5156 109.277-54.4434 107.568-54.4434L55.3711-54.4434L54.7363-59.2773C54.3945-61.6211 52.4414-63.2324 49.9023-63.2324L38.5742-63.2324C36.8652-63.2324 35.6934-62.0605 35.6934-60.2539ZM59.6191-3.85742C59.6191-0.830078 62.0117 1.61133 65.0879 1.61133C68.1641 1.61133 70.6055-0.830078 70.6055-3.85742C70.6055-6.98242 68.1641-9.42383 65.0879-9.42383C62.0117-9.42383 59.6191-6.98242 59.6191-3.85742ZM88.2812-3.85742C88.2812-0.830078 90.7715 1.61133 93.7988 1.61133C96.9238 1.61133 99.3652-0.830078 99.3652-3.85742C99.3652-6.98242 96.9238-9.42383 93.7988-9.42383C90.7715-9.42383 88.2812-6.98242 88.2812-3.85742Z"/>
  </g>
  <g id="Light-L" transform="matrix(1 0 0 1 1079.18 1556)">
   <path d="M73.9258 27.3926C108.301 27.3926 136.621-0.927734 136.621-35.2539C136.621-69.6289 108.252-97.9492 73.9258-97.9492C39.5508-97.9492 11.2793-69.6289 11.2793-35.2539C11.2793-0.927734 39.5996 27.3926 73.9258 27.3926ZM73.9258 20.5078C43.1152 20.5078 18.2129-4.44336 18.2129-35.2539C18.2129-66.1133 43.0664-91.0156 73.9258-91.0156C104.736-91.0156 129.688-66.1133 129.736-35.2539C129.736-4.44336 104.785 20.5078 73.9258 20.5078ZM33.7891-61.084C33.7891-59.668 34.8145-58.6914 36.1328-58.6914L47.6562-58.6914L53.2227-20.3613C53.8086-16.2598 56.3477-13.8672 61.3281-13.8672L98.9746-13.8672C100.293-13.8672 101.27-14.8438 101.27-16.3086C101.27-17.7246 100.293-18.7012 98.9746-18.7012L61.7188-18.7012C59.2773-18.7012 58.0566-19.6777 57.7637-21.9238L57.2266-26.3184L99.3652-26.3184C103.76-26.3184 105.664-28.8086 106.299-32.959L109.131-51.4648C109.18-51.7578 109.277-52.3438 109.277-52.5391C109.277-53.8574 108.398-54.6875 106.836-54.6875L52.9785-54.6875L52.2461-60.2539C52.002-62.207 50.3906-63.5254 48.2422-63.5254L36.1328-63.5254C34.8145-63.5254 33.7891-62.5488 33.7891-61.084ZM58.7402-3.61328C58.7402-0.634766 61.0352 1.66016 64.0137 1.66016C67.041 1.66016 69.3359-0.634766 69.3359-3.61328C69.3359-6.5918 67.041-8.93555 64.0137-8.93555C61.0352-8.93555 58.7402-6.5918 58.7402-3.61328ZM88.1348-3.61328C88.1348-0.634766 90.5273 1.66016 93.5059 1.66016C96.4355 1.66016 98.8281-0.634766 98.8281-3.61328C98.8281-6.5918 96.4355-8.93555 93.5059-8.93555C90.5273-8.93555 88.1348-6.5918 88.1348-3.61328Z"/>
  </g>
  <g id="Thin-L" transform="matrix(1 0 0 1 783.693 1556)">
   <path d="M72.7051 26.1719C106.494 26.1719 134.18-1.51367 134.18-35.2539C134.18-69.043 106.494-96.7285 72.7051-96.7285C38.9648-96.7285 11.2793-69.043 11.2793-35.2539C11.2793-1.51367 38.9648 26.1719 72.7051 26.1719ZM72.7051 22.168C41.0156 22.168 15.2832-3.56445 15.2832-35.2539C15.2832-66.9922 41.0156-92.7246 72.7051-92.7246C104.395-92.7246 130.176-66.9922 130.176-35.2539C130.176-3.56445 104.443 22.168 72.7051 22.168ZM31.2988-62.1582C31.2988-61.1816 32.0312-60.4492 32.959-60.4492L45.7031-60.4492L51.709-19.4824C52.2461-16.0156 54.1992-13.8672 58.6426-13.8672L98.8281-13.8672C99.707-13.8672 100.439-14.5996 100.439-15.5762C100.439-16.6016 99.707-17.2852 98.8281-17.2852L59.2773-17.2852C56.4453-17.2852 55.2246-18.1641 54.8828-20.6543L54.1504-26.6113L98.4375-26.6113C102.539-26.6113 104.15-28.7598 104.736-32.6172L107.715-52.1973C107.812-52.4414 107.91-53.0273 107.91-53.1738C107.91-54.3457 107.227-55.0293 105.859-55.0293L49.8047-55.0293L48.9746-61.5234C48.7793-62.9883 47.7051-63.8672 46.0449-63.8672L32.959-63.8672C32.0312-63.8672 31.2988-63.1836 31.2988-62.1582ZM57.5684-3.27148C57.5684-0.439453 59.7656 1.75781 62.6465 1.75781C65.4785 1.75781 67.6758-0.439453 67.6758-3.27148C67.6758-6.10352 65.4785-8.34961 62.6465-8.34961C59.7656-8.34961 57.5684-6.10352 57.5684-3.27148ZM87.9395-3.27148C87.9395-0.439453 90.2344 1.75781 93.0664 1.75781C95.8496 1.75781 98.1445-0.439453 98.1445-3.27148C98.1445-6.10352 95.8496-8.34961 93.0664-8.34961C90.2344-8.34961 87.9395-6.10352 87.9395-3.27148Z"/>
  </g>
  <g id="Ultralight-L" transform="matrix(1 0 0 1 487.616 1556)">
   <path d="M72.1191 25.5371C105.566 25.5371 132.91-1.80664 132.91-35.2539C132.91-68.75 105.566-96.0938 72.1191-96.0938C38.623-96.0938 11.2793-68.75 11.2793-35.2539C11.2793-1.80664 38.623 25.5371 72.1191 25.5371ZM72.1191 23.0469C39.9414 23.0469 13.7695-3.125 13.7695-35.2539C13.7695-67.4316 39.9414-93.6035 72.1191-93.6035C104.248-93.6035 130.42-67.4316 130.42-35.2539C130.42-3.125 104.248 23.0469 72.1191 23.0469ZM30.0293-62.6953C30.0293-61.9141 30.6152-61.377 31.2988-61.377L44.7266-61.377L50.9766-19.043C51.416-15.918 53.125-13.8672 57.2754-13.8672L98.7305-13.8672C99.4141-13.8672 100-14.4531 100-15.2344C100-16.0156 99.4141-16.6016 98.7305-16.6016L58.0566-16.6016C54.9805-16.6016 53.7598-17.3828 53.418-20.0195L52.5879-26.709L97.998-26.709C101.953-26.709 103.369-28.7598 103.955-32.4707L107.031-52.5879C107.129-52.832 107.178-53.3691 107.178-53.5156C107.178-54.5898 106.592-55.2246 105.371-55.2246L48.1934-55.2246L47.3145-62.207C47.168-63.3789 46.2891-64.0625 44.9219-64.0625L31.2988-64.0625C30.6152-64.0625 30.0293-63.4766 30.0293-62.6953ZM56.9824-3.07617C56.9824-0.292969 59.1309 1.80664 61.9141 1.80664C64.6973 1.80664 66.8457-0.292969 66.8457-3.07617C66.8457-5.85938 64.6973-8.00781 61.9141-8.00781C59.1309-8.00781 56.9824-5.85938 56.9824-3.07617ZM87.8906-3.07617C87.8906-0.292969 90.0879 1.80664 92.8711 1.80664C95.5566 1.80664 97.8027-0.292969 97.8027-3.07617C97.8027-5.85938 95.5566-8.00781 92.8711-8.00781C90.0879-8.00781 87.8906-5.85938 87.8906-3.07617Z"/>
  </g>
  <g id="Black-M" transform="matrix(1 0 0 1 2870.97 1126)">
   <path d="M62.4023 18.457C91.9922 18.457 116.113-5.61523 116.113-35.2051C116.113-64.7949 91.9922-88.8672 62.4023-88.8672C32.8125-88.8672 8.74023-64.7949 8.74023-35.2051C8.74023-5.61523 32.8125 18.457 62.4023 18.457ZM62.4023 0.195312C42.8711 0.195312 27.002-15.625 27.002-35.2051C27.002-54.7363 42.8711-70.6055 62.4023-70.6055C81.9824-70.6055 97.8027-54.7363 97.8027-35.2051C97.8027-15.625 81.9824 0.195312 62.4023 0.195312ZM36.1328-49.1699C36.1328-47.1191 37.8906-45.3613 39.8926-45.3613L45.2148-45.3613L47.998-26.8066C48.5352-22.9492 50.7324-20.7031 54.4922-20.7031L78.0762-20.7031C79.834-20.7031 81.3965-21.9238 81.3965-23.9258C81.3965-25.8301 79.834-27.0508 78.0762-27.0508L55.9082-27.0508C55.5664-27.0508 55.3223-27.1484 55.2734-27.5391L54.9805-29.2969L78.7598-29.2969C82.5195-29.2969 84.7168-31.4941 85.3027-35.4004L86.3281-42.9199C86.377-43.2617 86.4746-43.7012 86.4746-44.1406C86.4746-46.2402 85.2051-47.8027 82.4219-47.8027L52.0996-47.8027L51.8555-49.0234C51.3184-51.5625 50.0488-52.9785 46.9238-52.9785L39.8926-52.9785C37.8906-52.9785 36.1328-51.2207 36.1328-49.1699ZM51.8066-13.7695C51.8066-11.1328 53.9551-9.08203 56.543-9.08203C59.1309-9.08203 61.2305-11.1328 61.2305-13.7695C61.2305-16.3574 59.1309-18.5059 56.543-18.5059C53.9551-18.5059 51.8066-16.3574 51.8066-13.7695ZM69.5801-13.7695C69.5801-11.1328 71.7285-9.08203 74.3164-9.08203C76.9043-9.08203 79.0039-11.1328 79.0039-13.7695C79.0039-16.3574 76.9043-18.5059 74.3164-18.5059C71.7285-18.5059 69.5801-16.3574 69.5801-13.7695Z"/>
  </g>
  <g id="Heavy-M" transform="matrix(1 0 0 1 2575.19 1126)">
   <path d="M61.5234 17.5293C90.5273 17.5293 114.258-6.20117 114.258-35.2051C114.258-64.2578 90.5273-87.9883 61.4746-87.9883C32.4707-87.9883 8.74023-64.2578 8.74023-35.2051C8.74023-6.20117 32.4707 17.5293 61.5234 17.5293ZM61.5234 1.61133C41.1133 1.61133 24.6582-14.8438 24.6582-35.2051C24.6582-55.6152 41.1133-72.0703 61.4746-72.0703C81.8848-72.0703 98.3398-55.6152 98.3398-35.2051C98.3398-14.8438 81.8848 1.61133 61.5234 1.61133ZM34.375-50.3418C34.375-48.4375 35.9863-46.8262 37.8418-46.8262L43.7012-46.8262L46.7773-26.3184C47.3145-22.4609 49.5605-20.2637 53.5156-20.2637L77.7832-20.2637C79.4922-20.2637 80.9082-21.3867 80.9082-23.291C80.9082-25.1465 79.4922-26.2695 77.7832-26.2695L54.5898-26.2695C53.9551-26.2695 53.5645-26.5625 53.4668-27.2461L53.2227-29.0039L78.5645-29.0039C82.3242-29.0039 84.4238-31.2012 84.9609-35.0586L86.2305-43.8965C86.2793-44.2383 86.377-44.6777 86.377-45.0684C86.377-46.9238 85.2051-48.291 82.7637-48.291L50.2441-48.291L49.9512-50C49.5117-52.4902 48.0957-53.9062 45.166-53.9062L37.8418-53.9062C35.9863-53.9062 34.375-52.2949 34.375-50.3418ZM50.5859-13.1348C50.5859-10.5469 52.7344-8.54492 55.2246-8.54492C57.8125-8.54492 59.8633-10.5469 59.8633-13.1348C59.8633-15.7227 57.8125-17.7734 55.2246-17.7734C52.7344-17.7734 50.5859-15.7227 50.5859-13.1348ZM69.3359-13.1348C69.3359-10.5469 71.4355-8.54492 73.9746-8.54492C76.5137-8.54492 78.6133-10.5469 78.6133-13.1348C78.6133-15.7227 76.5137-17.7734 73.9746-17.7734C71.4355-17.7734 69.3359-15.7227 69.3359-13.1348Z"/>
  </g>
  <g id="Bold-M" transform="matrix(1 0 0 1 2279.5 1126)">
   <path d="M60.498 16.5039C88.8672 16.5039 112.207-6.83594 112.207-35.2051C112.207-63.623 88.8672-86.9629 60.4492-86.9629C32.0312-86.9629 8.74023-63.623 8.74023-35.2051C8.74023-6.83594 32.0801 16.5039 60.498 16.5039ZM60.498 3.22266C39.1602 3.22266 22.0703-13.916 22.0703-35.2051C22.0703-56.543 39.1602-73.6816 60.4492-73.6816C81.7383-73.6816 98.9258-56.543 98.9258-35.2051C98.9746-13.916 81.7871 3.22266 60.498 3.22266ZM32.4219-51.6602C32.4219-49.9023 33.8379-48.4863 35.5957-48.4863L42.041-48.4863L45.3613-25.7324C45.9473-21.875 48.291-19.7266 52.3926-19.7266L77.4414-19.7266C79.1016-19.7266 80.3711-20.8008 80.3711-22.6074C80.3711-24.3164 79.1016-25.4395 77.4414-25.4395L53.125-25.4395C52.1973-25.4395 51.6113-25.9277 51.4648-26.8555L51.2207-28.6621L78.3691-28.6621C82.0801-28.6621 84.082-30.8594 84.6191-34.6191L86.1328-44.9707C86.1816-45.3125 86.2793-45.752 86.2793-46.0449C86.2793-47.7051 85.2051-48.877 83.1055-48.877L48.1934-48.877L47.8516-51.1719C47.4609-53.4668 45.9473-54.8828 43.2617-54.8828L35.5957-54.8828C33.8379-54.8828 32.4219-53.5156 32.4219-51.6602ZM49.2188-12.4023C49.2188-9.91211 51.3184-7.91016 53.8086-7.91016C56.3477-7.91016 58.3008-9.91211 58.3008-12.4023C58.3008-14.9414 56.3477-16.9922 53.8086-16.9922C51.3184-16.9922 49.2188-14.9414 49.2188-12.4023ZM69.043-12.4023C69.043-9.91211 71.0938-7.91016 73.6328-7.91016C76.123-7.91016 78.1738-9.91211 78.1738-12.4023C78.1738-14.9414 76.123-16.9922 73.6328-16.9922C71.0938-16.9922 69.043-14.9414 69.043-12.4023Z"/>
  </g>
  <g id="Semibold-M" transform="matrix(1 0 0 1 1983.5 1126)">
   <path d="M59.7656 15.8203C87.7441 15.8203 110.791-7.27539 110.791-35.2539C110.791-63.2324 87.6953-86.2793 59.7656-86.2793C31.7871-86.2793 8.74023-63.2324 8.74023-35.2539C8.74023-7.27539 31.7871 15.8203 59.7656 15.8203ZM59.7656 4.3457C37.8418 4.3457 20.2637-13.3301 20.2637-35.2539C20.2637-57.1777 37.793-74.8047 59.7656-74.8047C81.6895-74.8047 99.3164-57.1777 99.3652-35.2539C99.3652-13.3301 81.6895 4.3457 59.7656 4.3457ZM31.1035-52.5879C31.1035-50.8789 32.373-49.6094 34.0332-49.6094L40.918-49.6094L44.4336-25.3418C44.9707-21.4355 47.3633-19.3359 51.6113-19.3359L77.2461-19.3359C78.8086-19.3359 79.9805-20.4102 79.9805-22.1191C79.9805-23.7793 78.8086-24.8535 77.2461-24.8535L52.0996-24.8535C50.9766-24.8535 50.293-25.4883 50.0977-26.6113L49.8535-28.4668L78.2227-28.4668C81.9336-28.4668 83.8379-30.6641 84.375-34.3262L86.084-45.752C86.1328-46.0449 86.1816-46.4844 86.1816-46.7773C86.1816-48.2422 85.2051-49.2676 83.3496-49.2676L46.7285-49.2676L46.3867-51.9531C46.0449-54.1504 44.4336-55.5664 41.9434-55.5664L34.0332-55.5664C32.373-55.5664 31.1035-54.2969 31.1035-52.5879ZM48.291-11.9141C48.291-9.42383 50.3418-7.4707 52.7832-7.4707C55.3223-7.4707 57.2754-9.42383 57.2754-11.9141C57.2754-14.4531 55.3223-16.4551 52.7832-16.4551C50.3418-16.4551 48.291-14.4531 48.291-11.9141ZM68.8477-11.9141C68.8477-9.42383 70.8496-7.4707 73.3398-7.4707C75.8301-7.4707 77.832-9.42383 77.832-11.9141C77.832-14.4531 75.8301-16.4551 73.3398-16.4551C70.8496-16.4551 68.8477-14.4531 68.8477-11.9141Z"/>
  </g>
  <g id="Medium-M" transform="matrix(1 0 0 1 1687.3 1126)">
   <path d="M59.2285 15.2344C86.9141 15.2344 109.766-7.61719 109.766-35.2539C109.766-62.8906 86.8652-85.7422 59.1797-85.7422C31.543-85.7422 8.74023-62.8906 8.74023-35.2539C8.74023-7.61719 31.5918 15.2344 59.2285 15.2344ZM59.2285 5.17578C36.8164 5.17578 18.8965-12.8418 18.8965-35.2539C18.8965-57.666 36.8164-75.6348 59.1797-75.6348C81.5918-75.6348 99.6094-57.666 99.6582-35.2539C99.707-12.8418 81.6406 5.17578 59.2285 5.17578ZM30.0781-53.2715C30.0781-51.6602 31.25-50.4883 32.8125-50.4883L40.0391-50.4883L43.7012-25C44.2871-21.1426 46.7285-19.043 51.0254-19.043L77.0508-19.043C78.6133-19.043 79.6875-20.1172 79.6875-21.7773C79.6875-23.3398 78.6133-24.4141 77.0508-24.4141L51.3184-24.4141C50.0488-24.4141 49.2676-25.1465 49.0723-26.4648L48.8281-28.2715L78.125-28.2715C81.7871-28.2715 83.6914-30.4688 84.2285-34.1309L86.0352-46.3379C86.084-46.6309 86.1328-47.0703 86.1328-47.2656C86.1328-48.6328 85.2051-49.5605 83.5449-49.5605L45.6543-49.5605L45.2637-52.5391C44.9707-54.6875 43.3105-56.1035 40.918-56.1035L32.8125-56.1035C31.25-56.1035 30.0781-54.9316 30.0781-53.2715ZM47.6074-11.5723C47.6074-9.08203 49.5605-7.12891 52.0508-7.12891C54.541-7.12891 56.4941-9.08203 56.4941-11.5723C56.4941-14.0625 54.541-16.0156 52.0508-16.0156C49.5605-16.0156 47.6074-14.0625 47.6074-11.5723ZM68.7012-11.5723C68.7012-9.08203 70.7031-7.12891 73.1445-7.12891C75.6348-7.12891 77.5879-9.08203 77.5879-11.5723C77.5879-14.0625 75.6348-16.0156 73.1445-16.0156C70.7031-16.0156 68.7012-14.0625 68.7012-11.5723Z"/>
  </g>
  <g id="Regular-M" transform="matrix(1 0 0 1 1391.3 1126)">
   <path d="M58.5449 14.5508C85.791 14.5508 108.35-8.05664 108.35-35.2539C108.35-62.5 85.7422-85.0586 58.4961-85.0586C31.2988-85.0586 8.74023-62.5 8.74023-35.2539C8.74023-8.05664 31.3477 14.5508 58.5449 14.5508ZM58.5449 6.25C35.498 6.25 17.0898-12.207 17.0898-35.2539C17.0898-58.3008 35.4492-76.7578 58.4961-76.7578C81.543-76.7578 100-58.3008 100.049-35.2539C100.098-12.207 81.5918 6.25 58.5449 6.25ZM28.7598-54.1992C28.7598-52.6855 29.7852-51.6113 31.2988-51.6113L38.916-51.6113L42.7734-24.6094C43.3105-20.752 45.8496-18.7012 50.2441-18.7012L76.8555-18.7012C78.3691-18.7012 79.3457-19.7266 79.3457-21.2891C79.3457-22.8027 78.3691-23.8281 76.8555-23.8281L50.3418-23.8281C48.877-23.8281 47.9004-24.707 47.7051-26.2207L47.5098-28.0762L77.9785-28.0762C81.6406-28.0762 83.4473-30.2734 83.9844-33.8379L85.9375-47.0703C86.0352-47.3633 86.084-47.8027 86.084-47.9492C86.084-49.1699 85.2051-49.9512 83.7891-49.9512L44.2871-49.9512L43.8477-53.3203C43.5547-55.3711 41.8457-56.7871 39.5996-56.7871L31.2988-56.7871C29.7852-56.7871 28.7598-55.7617 28.7598-54.1992ZM46.6797-11.084C46.6797-8.64258 48.6328-6.73828 51.0254-6.73828C53.5156-6.73828 55.4199-8.64258 55.4199-11.084C55.4199-13.5742 53.5156-15.4785 51.0254-15.4785C48.6328-15.4785 46.6797-13.5742 46.6797-11.084ZM68.457-11.084C68.457-8.64258 70.459-6.73828 72.9004-6.73828C75.3418-6.73828 77.2949-8.64258 77.2949-11.084C77.2949-13.5742 75.3418-15.4785 72.9004-15.4785C70.459-15.4785 68.457-13.5742 68.457-11.084Z"/>
  </g>
  <g id="Light-M" transform="matrix(1 0 0 1 1095.42 1126)">
   <path d="M57.7148 13.7207C84.5215 13.7207 106.689-8.44727 106.689-35.2539C106.689-62.1094 84.5215-84.2285 57.666-84.2285C30.8594-84.2285 8.74023-62.1094 8.74023-35.2539C8.74023-8.44727 30.9082 13.7207 57.7148 13.7207ZM57.7148 7.37305C34.082 7.37305 15.0879-11.6699 15.0879-35.2539C15.0879-58.8867 34.082-77.9297 57.666-77.9297C81.2988-77.9297 100.342-58.8867 100.391-35.2539C100.391-11.6699 81.3477 7.37305 57.7148 7.37305ZM27.0508-54.9316C27.0508-53.6621 27.8809-52.832 29.1016-52.832L37.5977-52.832L41.748-24.0234C42.2363-20.6055 44.3848-18.7012 48.4375-18.7012L76.7578-18.7012C77.9297-18.7012 78.7598-19.5312 78.7598-20.8008C78.7598-22.0215 77.9297-22.9004 76.7578-22.9004L48.6816-22.9004C46.9238-22.9004 45.9961-23.6816 45.752-25.3418L45.4102-28.2227L77.3438-28.2227C80.8105-28.2227 82.4219-30.2246 82.9102-33.5938L85.0098-47.5586C85.1074-47.8027 85.1562-48.2422 85.1562-48.4375C85.1562-49.5117 84.375-50.1953 83.1543-50.1953L42.1387-50.1953L41.6016-54.1992C41.4062-55.9082 39.9902-57.0312 38.1348-57.0312L29.1016-57.0312C27.8809-57.0312 27.0508-56.1523 27.0508-54.9316ZM45.8984-10.8398C45.8984-8.49609 47.7539-6.64062 50.0977-6.64062C52.4902-6.64062 54.2969-8.49609 54.2969-10.8398C54.2969-13.2324 52.4902-15.0391 50.0977-15.0391C47.7539-15.0391 45.8984-13.2324 45.8984-10.8398ZM68.3594-10.8398C68.3594-8.49609 70.2637-6.64062 72.6074-6.64062C74.9512-6.64062 76.8066-8.49609 76.8066-10.8398C76.8066-13.2324 74.9512-15.0391 72.6074-15.0391C70.2637-15.0391 68.3594-13.2324 68.3594-10.8398Z"/>
  </g>
  <g id="Thin-M" transform="matrix(1 0 0 1 799.806 1126)">
   <path d="M56.6406 12.5977C82.9102 12.5977 104.492-8.98438 104.492-35.2539C104.492-61.5723 82.9102-83.1543 56.5918-83.1543C30.3223-83.1543 8.74023-61.5723 8.74023-35.2539C8.74023-8.98438 30.3223 12.5977 56.6406 12.5977ZM56.6406 8.88672C32.2266 8.88672 12.4512-10.8887 12.4512-35.2539C12.4512-59.6191 32.2266-79.4434 56.5918-79.4434C81.0059-79.4434 100.781-59.6191 100.781-35.2539C100.781-10.8887 81.0059 8.88672 56.6406 8.88672ZM24.8047-55.8594C24.8047-55.0293 25.4395-54.3945 26.2207-54.3945L35.8398-54.3945L40.4297-23.2422C40.8203-20.4102 42.4805-18.7012 46.0449-18.7012L76.6113-18.7012C77.4414-18.7012 78.0273-19.2871 78.0273-20.166C78.0273-21.0449 77.4414-21.6309 76.6113-21.6309L46.4844-21.6309C44.3359-21.6309 43.4082-22.3145 43.1641-24.2188L42.627-28.4668L76.5137-28.4668C79.7363-28.4668 81.0547-30.2246 81.4941-33.3008L83.7891-48.2422C83.8379-48.4375 83.9355-48.877 83.9355-49.0234C83.9355-49.9512 83.3496-50.4883 82.2754-50.4883L39.3066-50.4883L38.6719-55.3223C38.5254-56.5918 37.5488-57.373 36.1816-57.373L26.2207-57.373C25.4395-57.373 24.8047-56.7383 24.8047-55.8594ZM44.873-10.5469C44.873-8.30078 46.6309-6.5918 48.8281-6.5918C51.0742-6.5918 52.832-8.30078 52.832-10.5469C52.832-12.793 51.0742-14.502 48.8281-14.502C46.6309-14.502 44.873-12.793 44.873-10.5469ZM68.2129-10.5469C68.2129-8.30078 70.0195-6.5918 72.2168-6.5918C74.4141-6.5918 76.2207-8.30078 76.2207-10.5469C76.2207-12.793 74.4141-14.502 72.2168-14.502C70.0195-14.502 68.2129-12.793 68.2129-10.5469Z"/>
  </g>
  <g id="Ultralight-M" transform="matrix(1 0 0 1 503.656 1126)">
   <path d="M56.0547 12.0605C82.0801 12.0605 103.369-9.22852 103.369-35.2539C103.369-61.2793 82.0801-82.5684 56.0547-82.5684C30.0293-82.5684 8.74023-61.2793 8.74023-35.2539C8.74023-9.22852 30.0293 12.0605 56.0547 12.0605ZM56.0547 9.66797C31.2988 9.66797 11.1328-10.498 11.1328-35.2539C11.1328-60.0586 31.2988-80.1758 56.0547-80.1758C80.8594-80.1758 100.977-60.0586 100.977-35.2539C100.977-10.498 80.8594 9.66797 56.0547 9.66797ZM23.6816-56.3477C23.6816-55.7129 24.1699-55.2246 24.7559-55.2246L34.9609-55.2246L39.7461-22.8027C40.0879-20.3125 41.5039-18.7012 44.7754-18.7012L76.5625-18.7012C77.1484-18.7012 77.6367-19.1895 77.6367-19.8242C77.6367-20.5078 77.1484-20.9961 76.5625-20.9961L45.3613-20.9961C43.0176-20.9961 42.0898-21.6309 41.8457-23.6328L41.2109-28.6133L76.0742-28.6133C79.1992-28.6133 80.3711-30.2246 80.8105-33.1055L83.1543-48.584C83.252-48.7305 83.3008-49.1699 83.3008-49.3164C83.3008-50.1953 82.8125-50.6836 81.8359-50.6836L37.8418-50.6836L37.1582-55.957C37.0605-56.9336 36.3281-57.5195 35.1562-57.5195L24.7559-57.5195C24.1699-57.5195 23.6816-57.0312 23.6816-56.3477ZM44.3359-10.4004C44.3359-8.20312 46.0449-6.54297 48.1934-6.54297C50.3906-6.54297 52.0508-8.20312 52.0508-10.4004C52.0508-12.5488 50.3906-14.2578 48.1934-14.2578C46.0449-14.2578 44.3359-12.5488 44.3359-10.4004ZM68.1152-10.4004C68.1152-8.20312 69.873-6.54297 72.0703-6.54297C74.1699-6.54297 75.8789-8.20312 75.8789-10.4004C75.8789-12.5488 74.1699-14.2578 72.0703-14.2578C69.873-14.2578 68.1152-12.5488 68.1152-10.4004Z"/>
  </g>
  <g id="Black-S" transform="matrix(1 0 0 1 2884.57 696)">
   <path d="M48.8281 6.78711C71.9727 6.78711 90.8203-12.0605 90.8203-35.2051C90.8203-58.3496 71.9727-77.1973 48.8281-77.1973C25.6836-77.1973 6.83594-58.3496 6.83594-35.2051C6.83594-12.0605 25.6836 6.78711 48.8281 6.78711ZM48.8281-7.37305C33.4473-7.37305 20.9961-19.8242 20.9961-35.2051C20.9961-50.5859 33.4473-63.0371 48.8281-63.0371C64.209-63.0371 76.6602-50.5859 76.6602-35.2051C76.6602-19.8242 64.209-7.37305 48.8281-7.37305ZM28.1738-46.2402C28.1738-44.6289 29.541-43.2617 31.1035-43.2617L35.3027-43.2617L37.5-28.6133C37.9395-25.5859 39.6484-23.8281 42.627-23.8281L61.1328-23.8281C62.5-23.8281 63.7207-24.7559 63.7207-26.3184C63.7207-27.832 62.5-28.7598 61.1328-28.7598L43.7012-28.7598C43.4082-28.7598 43.2129-28.8574 43.1641-29.1992L42.9688-30.5664L61.6699-30.5664C64.6484-30.5664 66.3574-32.2754 66.7969-35.3516L67.627-41.3086C67.6758-41.6016 67.7246-41.9434 67.7246-42.2852C67.7246-43.8965 66.748-45.1172 64.5996-45.1172L40.6738-45.1172L40.4785-46.0938C40.0879-48.0957 39.0625-49.2188 36.6211-49.2188L31.1035-49.2188C29.541-49.2188 28.1738-47.8516 28.1738-46.2402ZM40.4785-18.3594C40.4785-16.3086 42.1875-14.6973 44.1895-14.6973C46.2402-14.6973 47.8516-16.3086 47.8516-18.3594C47.8516-20.4102 46.2402-22.0703 44.1895-22.0703C42.1875-22.0703 40.4785-20.4102 40.4785-18.3594ZM54.4922-18.3594C54.4922-16.3086 56.1523-14.6973 58.2031-14.6973C60.2051-14.6973 61.8652-16.3086 61.8652-18.3594C61.8652-20.4102 60.2051-22.0703 58.2031-22.0703C56.1523-22.0703 54.4922-20.4102 54.4922-18.3594Z"/>
  </g>
  <g id="Heavy-S" transform="matrix(1 0 0 1 2588.47 696)">
   <path d="M48.2422 6.15234C70.9961 6.15234 89.5996-12.4512 89.5996-35.2051C89.5996-57.959 70.9961-76.6113 48.1934-76.6113C25.4395-76.6113 6.83594-57.959 6.83594-35.2051C6.83594-12.4512 25.4395 6.15234 48.2422 6.15234ZM48.2422-6.39648C32.2754-6.39648 19.4336-19.2871 19.4336-35.2051C19.4336-51.1719 32.2754-64.0137 48.1934-64.0137C64.1602-64.0137 77.002-51.1719 77.0508-35.2051C77.0508-19.2871 64.1602-6.39648 48.2422-6.39648ZM27.0508-47.0703C27.0508-45.5078 28.2715-44.2383 29.7852-44.2383L34.3262-44.2383L36.6699-28.2715C37.1094-25.1953 38.916-23.4375 42.041-23.4375L60.9375-23.4375C62.2559-23.4375 63.4277-24.3652 63.4277-25.8789C63.4277-27.3438 62.2559-28.2715 60.9375-28.2715L42.8711-28.2715C42.4316-28.2715 42.0898-28.5156 42.041-29.0527L41.8457-30.3223L61.6211-30.3223C64.5508-30.3223 66.2598-32.0801 66.6992-35.1074L67.6758-41.9922C67.7246-42.2852 67.7734-42.627 67.7734-42.9199C67.7734-44.3848 66.8457-45.459 64.9414-45.459L39.502-45.459L39.2578-46.7773C38.916-48.7305 37.793-49.8535 35.4492-49.8535L29.7852-49.8535C28.2715-49.8535 27.0508-48.6328 27.0508-47.0703ZM39.6484-17.9199C39.6484-15.8691 41.3086-14.2578 43.3105-14.2578C45.3613-14.2578 46.9238-15.8691 46.9238-17.9199C46.9238-19.9219 45.3613-21.582 43.3105-21.582C41.3086-21.582 39.6484-19.9219 39.6484-17.9199ZM54.2969-17.9199C54.2969-15.8691 55.957-14.2578 57.959-14.2578C59.9609-14.2578 61.6211-15.8691 61.6211-17.9199C61.6211-19.9219 59.9609-21.582 57.959-21.582C55.957-21.582 54.2969-19.9219 54.2969-17.9199Z"/>
  </g>
  <g id="Bold-S" transform="matrix(1 0 0 1 2292.44 696)">
   <path d="M47.5586 5.46875C69.873 5.46875 88.2324-12.8906 88.2324-35.2539C88.2324-57.5684 69.873-75.9277 47.5098-75.9277C25.1953-75.9277 6.83594-57.5684 6.83594-35.2539C6.83594-12.8906 25.1953 5.46875 47.5586 5.46875ZM47.5586-5.32227C30.957-5.32227 17.6758-18.6523 17.6758-35.2539C17.6758-51.8066 30.957-65.1367 47.5098-65.1367C64.1113-65.1367 77.4414-51.8066 77.4414-35.2539C77.4414-18.6523 64.1113-5.32227 47.5586-5.32227ZM25.7324-47.998C25.7324-46.5332 26.9043-45.3613 28.3203-45.3613L33.2031-45.3613L35.7422-27.9297C36.1816-24.7559 38.1348-23.0469 41.4551-23.0469L60.6934-23.0469C62.0117-23.0469 63.0859-23.9746 63.0859-25.4395C63.0859-26.8555 62.0117-27.7832 60.6934-27.7832L41.9434-27.7832C41.3086-27.7832 40.8203-28.1738 40.7227-28.9062L40.5762-30.0293L61.5234-30.0293C64.502-30.0293 66.1133-31.7871 66.5527-34.8145L67.7246-42.7734C67.7734-43.0664 67.8223-43.4082 67.8223-43.6523C67.8223-44.9707 66.9434-45.8984 65.2832-45.8984L38.1836-45.8984L37.9395-47.5098C37.6465-49.4141 36.377-50.5859 34.1797-50.5859L28.3203-50.5859C26.9043-50.5859 25.7324-49.4629 25.7324-47.998ZM38.7207-17.3828C38.7207-15.3809 40.332-13.8184 42.334-13.8184C44.3359-13.8184 45.8984-15.3809 45.8984-17.3828C45.8984-19.3848 44.3359-20.9961 42.334-20.9961C40.332-20.9961 38.7207-19.3848 38.7207-17.3828ZM54.1016-17.3828C54.1016-15.3809 55.7129-13.8184 57.7148-13.8184C59.7168-13.8184 61.3281-15.3809 61.3281-17.3828C61.3281-19.3848 59.7168-20.9961 57.7148-20.9961C55.7129-20.9961 54.1016-19.3848 54.1016-17.3828Z"/>
  </g>
  <g id="Semibold-S" transform="matrix(1 0 0 1 1996.2 696)">
   <path d="M47.0703 4.98047C69.0918 4.98047 87.3047-13.1836 87.3047-35.2539C87.3047-57.2754 69.0918-75.4883 47.0215-75.4883C25-75.4883 6.83594-57.2754 6.83594-35.2539C6.83594-13.1836 25.0488 4.98047 47.0703 4.98047ZM47.0703-4.58984C30.0781-4.58984 16.4551-18.2129 16.4551-35.2539C16.4551-52.2461 30.0293-65.8691 47.0215-65.8691C64.0625-65.8691 77.6855-52.2461 77.7344-35.2539C77.7344-18.2129 64.0625-4.58984 47.0703-4.58984ZM24.8535-48.6328C24.8535-47.2168 25.9277-46.1426 27.2949-46.1426L32.4219-46.1426L35.1074-27.6367C35.5469-24.4629 37.5488-22.7539 41.0156-22.7539L60.5469-22.7539C61.8652-22.7539 62.8418-23.6816 62.8418-25.0977C62.8418-26.4648 61.8652-27.3926 60.5469-27.3926L41.3086-27.3926C40.5273-27.3926 39.9902-27.9297 39.8438-28.7598L39.6973-29.834L61.4746-29.834C64.4531-29.834 66.0156-31.6406 66.4551-34.5703L67.7246-43.3105C67.7734-43.6035 67.8223-43.9453 67.8223-44.1406C67.8223-45.3125 66.9922-46.1914 65.5273-46.1914L37.3047-46.1914L37.0117-48.0469C36.7188-49.9023 35.3516-51.123 33.3008-51.123L27.2949-51.123C25.9277-51.123 24.8535-50.0488 24.8535-48.6328ZM38.0859-17.041C38.0859-15.0391 39.6484-13.4766 41.6016-13.4766C43.6523-13.4766 45.2148-15.0391 45.2148-17.041C45.2148-19.043 43.6523-20.6055 41.6016-20.6055C39.6484-20.6055 38.0859-19.043 38.0859-17.041ZM53.9551-17.041C53.9551-15.0391 55.5664-13.4766 57.5195-13.4766C59.5215-13.4766 61.1328-15.0391 61.1328-17.041C61.1328-19.043 59.5215-20.6055 57.5195-20.6055C55.5664-20.6055 53.9551-19.043 53.9551-17.041Z"/>
  </g>
  <g id="Medium-S" transform="matrix(1 0 0 1 1699.83 696)">
   <path d="M46.7285 4.63867C68.5547 4.63867 86.6211-13.4277 86.6211-35.2539C86.6211-57.0801 68.5059-75.1465 46.6797-75.1465C24.8535-75.1465 6.83594-57.0801 6.83594-35.2539C6.83594-13.4277 24.9023 4.63867 46.7285 4.63867ZM46.7285-4.00391C29.3945-4.00391 15.5273-17.9199 15.5273-35.2539C15.5273-52.5879 29.3457-66.4551 46.6797-66.4551C64.0137-66.4551 77.8809-52.5879 77.9297-35.2539C77.9785-17.9199 64.0625-4.00391 46.7285-4.00391ZM24.2188-49.0723C24.2188-47.7051 25.1953-46.7285 26.5625-46.7285L31.8359-46.7285L34.6191-27.4414C35.0586-24.2676 37.1582-22.5586 40.6738-22.5586L60.4004-22.5586C61.7188-22.5586 62.6465-23.4375 62.6465-24.8535C62.6465-26.2207 61.7188-27.0996 60.4004-27.0996L40.8691-27.0996C39.9414-27.0996 39.3066-27.7344 39.209-28.7109L39.0625-29.6875L61.4258-29.6875C64.4043-29.6875 65.9668-31.4941 66.3574-34.4238L67.7734-43.75C67.8223-43.9941 67.8711-44.3359 67.8711-44.4824C67.8711-45.6055 67.041-46.3867 65.7227-46.3867L36.6211-46.3867L36.3281-48.4375C36.0352-50.293 34.6191-51.5137 32.6172-51.5137L26.5625-51.5137C25.1953-51.5137 24.2188-50.4883 24.2188-49.0723ZM37.5977-16.748C37.5977-14.7949 39.1602-13.2324 41.1133-13.2324C43.1152-13.2324 44.6777-14.7949 44.6777-16.748C44.6777-18.75 43.1152-20.3125 41.1133-20.3125C39.1602-20.3125 37.5977-18.75 37.5977-16.748ZM53.8574-16.748C53.8574-14.7949 55.4688-13.2324 57.4219-13.2324C59.375-13.2324 60.9863-14.7949 60.9863-16.748C60.9863-18.75 59.375-20.3125 57.4219-20.3125C55.4688-20.3125 53.8574-18.75 53.8574-16.748Z"/>
  </g>
  <g id="Regular-S" transform="matrix(1 0 0 1 1403.58 696)">
   <path d="M46.2402 4.15039C67.7734 4.15039 85.6934-13.7207 85.6934-35.2539C85.6934-56.7871 67.7246-74.6582 46.1914-74.6582C24.707-74.6582 6.83594-56.7871 6.83594-35.2539C6.83594-13.7207 24.7559 4.15039 46.2402 4.15039ZM46.2402-3.27148C28.5156-3.27148 14.3555-17.4805 14.3555-35.2539C14.3555-53.0273 28.4668-67.2363 46.1914-67.2363C63.9648-67.2363 78.1738-53.0273 78.2227-35.2539C78.2715-17.4805 64.0137-3.27148 46.2402-3.27148ZM23.3398-49.707C23.3398-48.3887 24.2188-47.5098 25.5371-47.5098L31.1035-47.5098L33.9844-27.1973C34.4727-23.9746 36.5723-22.2656 40.2344-22.2656L60.2539-22.2656C61.5723-22.2656 62.4023-23.1445 62.4023-24.5117C62.4023-25.8789 61.5723-26.7578 60.2539-26.7578L40.2344-26.7578C39.209-26.7578 38.4766-27.4902 38.3301-28.5645L38.1836-29.541L61.377-29.541C64.3066-29.541 65.8691-31.3477 66.3086-34.2285L67.7734-44.2871C67.8223-44.4824 67.8711-44.8242 67.8711-44.9707C67.8711-45.9961 67.0898-46.6797 65.9668-46.6797L35.6934-46.6797L35.4004-48.9746C35.1562-50.7812 33.6426-52.002 31.7383-52.002L25.5371-52.002C24.2188-52.002 23.3398-51.0742 23.3398-49.707ZM36.9629-16.4062C36.9629-14.502 38.4766-12.9395 40.4297-12.9395C42.4316-12.9395 43.9453-14.502 43.9453-16.4062C43.9453-18.4082 42.4316-19.9707 40.4297-19.9707C38.4766-19.9707 36.9629-18.4082 36.9629-16.4062ZM53.7109-16.4062C53.7109-14.502 55.2734-12.9395 57.2266-12.9395C59.2285-12.9395 60.791-14.502 60.791-16.4062C60.791-18.4082 59.2285-19.9707 57.2266-19.9707C55.2734-19.9707 53.7109-18.4082 53.7109-16.4062Z"/>
  </g>
  <g id="Light-S" transform="matrix(1 0 0 1 1107.6 696)">
   <path d="M45.5078 3.41797C66.6992 3.41797 84.2285-14.0625 84.2285-35.2539C84.2285-56.4453 66.6504-73.9258 45.5078-73.9258C24.3164-73.9258 6.83594-56.4453 6.83594-35.2539C6.83594-14.0625 24.3652 3.41797 45.5078 3.41797ZM45.5078-2.29492C27.2461-2.29492 12.5977-16.9922 12.5977-35.2539C12.5977-53.5156 27.1973-68.2129 45.5078-68.2129C63.7695-68.2129 78.4668-53.5156 78.5156-35.2539C78.5156-16.9922 63.8184-2.29492 45.5078-2.29492ZM21.8262-50.3906C21.8262-49.3164 22.5586-48.5352 23.6328-48.5352L29.9316-48.5352L33.0566-26.6602C33.4961-23.8281 35.3027-22.2656 38.623-22.2656L60.1562-22.2656C61.2305-22.2656 61.9141-22.998 61.9141-24.1211C61.9141-25.1953 61.2305-25.9277 60.1562-25.9277L38.7695-25.9277C37.5-25.9277 36.7676-26.5625 36.5723-27.832L36.377-29.6875L60.8398-29.6875C63.623-29.6875 64.9414-31.3477 65.332-34.0332L66.9434-44.7266C66.9922-44.9219 67.041-45.2637 67.041-45.4102C67.041-46.2891 66.4062-46.875 65.3809-46.875L33.7891-46.875L33.4473-49.7559C33.252-51.2207 32.0312-52.1973 30.4199-52.1973L23.6328-52.1973C22.5586-52.1973 21.8262-51.4648 21.8262-50.3906ZM36.2305-16.2109C36.2305-14.3555 37.7441-12.8906 39.5996-12.8906C41.5039-12.8906 42.9688-14.3555 42.9688-16.2109C42.9688-18.1152 41.5039-19.5801 39.5996-19.5801C37.7441-19.5801 36.2305-18.1152 36.2305-16.2109ZM53.6133-16.2109C53.6133-14.3555 55.127-12.8906 56.9824-12.8906C58.8867-12.8906 60.3516-14.3555 60.3516-16.2109C60.3516-18.1152 58.8867-19.5801 56.9824-19.5801C55.127-19.5801 53.6133-18.1152 53.6133-16.2109Z"/>
  </g>
  <g id="Thin-S" transform="matrix(1 0 0 1 811.867 696)">
   <path d="M44.5801 2.49023C65.2832 2.49023 82.2754-14.5508 82.2754-35.2539C82.2754-55.957 65.2344-72.998 44.5312-72.998C23.8281-72.998 6.83594-55.957 6.83594-35.2539C6.83594-14.5508 23.877 2.49023 44.5801 2.49023ZM44.5801-0.927734C25.5859-0.927734 10.2539-16.3086 10.2539-35.2539C10.2539-54.1992 25.5859-69.5801 44.5312-69.5801C63.5254-69.5801 78.8574-54.1992 78.8574-35.2539C78.8574-16.3086 63.5254-0.927734 44.5801-0.927734ZM19.873-51.2207C19.873-50.4883 20.3613-49.9512 21.0938-49.9512L28.418-49.9512L31.8848-25.9766C32.2266-23.6328 33.6426-22.2656 36.5234-22.2656L60.0586-22.2656C60.7422-22.2656 61.2793-22.8027 61.2793-23.5352C61.2793-24.3164 60.7422-24.8047 60.0586-24.8047L36.8164-24.8047C35.2051-24.8047 34.4727-25.3906 34.3262-26.8066L33.9355-29.8828L60.1074-29.8828C62.6465-29.8828 63.7695-31.2988 64.1113-33.7891L65.8691-45.2637C65.918-45.459 65.9668-45.8008 65.9668-45.8984C65.9668-46.6797 65.4785-47.1191 64.5996-47.1191L31.2988-47.1191L30.8594-50.7812C30.7129-51.8066 29.8828-52.4902 28.7109-52.4902L21.0938-52.4902C20.3613-52.4902 19.873-51.9531 19.873-51.2207ZM35.3516-15.9668C35.3516-14.1602 36.7188-12.793 38.4766-12.793C40.2832-12.793 41.6504-14.1602 41.6504-15.9668C41.6504-17.7246 40.2832-19.0918 38.4766-19.0918C36.7188-19.0918 35.3516-17.7246 35.3516-15.9668ZM53.4668-15.9668C53.4668-14.1602 54.8828-12.793 56.6406-12.793C58.3984-12.793 59.8145-14.1602 59.8145-15.9668C59.8145-17.7246 58.3984-19.0918 56.6406-19.0918C54.8828-19.0918 53.4668-17.7246 53.4668-15.9668Z"/>
  </g>
  <g id="Ultralight-S" transform="matrix(1 0 0 1 515.644 696)">
   <path d="M44.043 1.95312C64.502 1.95312 81.2988-14.7949 81.2988-35.2539C81.2988-55.7129 64.502-72.4609 44.043-72.4609C23.584-72.4609 6.83594-55.7129 6.83594-35.2539C6.83594-14.7949 23.584 1.95312 44.043 1.95312ZM44.043-0.244141C24.7559-0.244141 9.08203-15.9668 9.08203-35.2539C9.08203-54.541 24.7559-70.2637 44.043-70.2637C63.3789-70.2637 79.0527-54.541 79.0527-35.2539C79.0527-15.9668 63.3789-0.244141 44.043-0.244141ZM18.8477-51.6602C18.8477-51.0742 19.2383-50.6836 19.7754-50.6836L27.6367-50.6836L31.2988-25.6348C31.5918-23.5352 32.7637-22.2656 35.4004-22.2656L59.9609-22.2656C60.498-22.2656 60.9375-22.7051 60.9375-23.2422C60.9375-23.8281 60.498-24.2676 59.9609-24.2676L35.8398-24.2676C34.0332-24.2676 33.3008-24.7559 33.1543-26.2695L32.666-29.9805L59.7168-29.9805C62.1582-29.9805 63.1348-31.2988 63.4766-33.6426L65.332-45.6055C65.3809-45.752 65.4297-46.0938 65.4297-46.1914C65.4297-46.875 64.9902-47.2656 64.209-47.2656L30.0293-47.2656L29.4922-51.3184C29.3945-52.1484 28.7598-52.6367 27.7832-52.6367L19.7754-52.6367C19.2383-52.6367 18.8477-52.2461 18.8477-51.6602ZM34.8633-15.8203C34.8633-14.0625 36.1816-12.7441 37.9395-12.7441C39.6484-12.7441 40.9668-14.0625 40.9668-15.8203C40.9668-17.5293 39.6484-18.8477 37.9395-18.8477C36.1816-18.8477 34.8633-17.5293 34.8633-15.8203ZM53.3691-15.8203C53.3691-14.0625 54.7852-12.7441 56.4941-12.7441C58.1543-12.7441 59.5215-14.0625 59.5215-15.8203C59.5215-17.5293 58.1543-18.8477 56.4941-18.8477C54.7852-18.8477 53.3691-17.5293 53.3691-15.8203Z"/>
  </g>
 </g>
</svg>
