<?xml version="1.0" encoding="UTF-8"?>
<!--Generator: Apple Native CoreSVG 149-->
<!DOCTYPE svg
PUBLIC "-//W3C//DTD SVG 1.1//EN"
       "http://www.w3.org/Graphics/SVG/1.1/DTD/svg11.dtd">
<svg version="1.1" xmlns="http://www.w3.org/2000/svg" xmlns:xlink="http://www.w3.org/1999/xlink" width="3300" height="2200">
 <!--glyph: "uni100657.medium", point size: 100.000000, font version: "Version 16.0d18e1", template writer version: "8"-->
 <g id="Notes">
  <rect height="2200" id="artboard" style="fill:white;opacity:1" width="3300" x="0" y="0"/>
  <line id="" style="fill:none;stroke:black;opacity:1;stroke-width:0.5;" x1="263" x2="3036" y1="292" y2="292"/>
  <text style="stroke:none;fill:black;font-family:-apple-system,&quot;SF Pro Display&quot;,&quot;SF Pro Text&quot;,Helvetica,sans-serif;font-weight:bold;" transform="matrix(1 0 0 1 263 322)">Weight/Scale Variations</text>
  <text style="stroke:none;fill:black;font-family:-apple-system,&quot;SF Pro Display&quot;,&quot;SF Pro Text&quot;,Helvetica,sans-serif;text-anchor:middle;" transform="matrix(1 0 0 1 559.711 322)">Ultralight</text>
  <text style="stroke:none;fill:black;font-family:-apple-system,&quot;SF Pro Display&quot;,&quot;SF Pro Text&quot;,Helvetica,sans-serif;text-anchor:middle;" transform="matrix(1 0 0 1 856.422 322)">Thin</text>
  <text style="stroke:none;fill:black;font-family:-apple-system,&quot;SF Pro Display&quot;,&quot;SF Pro Text&quot;,Helvetica,sans-serif;text-anchor:middle;" transform="matrix(1 0 0 1 1153.13 322)">Light</text>
  <text style="stroke:none;fill:black;font-family:-apple-system,&quot;SF Pro Display&quot;,&quot;SF Pro Text&quot;,Helvetica,sans-serif;text-anchor:middle;" transform="matrix(1 0 0 1 1449.84 322)">Regular</text>
  <text style="stroke:none;fill:black;font-family:-apple-system,&quot;SF Pro Display&quot;,&quot;SF Pro Text&quot;,Helvetica,sans-serif;text-anchor:middle;" transform="matrix(1 0 0 1 1746.56 322)">Medium</text>
  <text style="stroke:none;fill:black;font-family:-apple-system,&quot;SF Pro Display&quot;,&quot;SF Pro Text&quot;,Helvetica,sans-serif;text-anchor:middle;" transform="matrix(1 0 0 1 2043.27 322)">Semibold</text>
  <text style="stroke:none;fill:black;font-family:-apple-system,&quot;SF Pro Display&quot;,&quot;SF Pro Text&quot;,Helvetica,sans-serif;text-anchor:middle;" transform="matrix(1 0 0 1 2339.98 322)">Bold</text>
  <text style="stroke:none;fill:black;font-family:-apple-system,&quot;SF Pro Display&quot;,&quot;SF Pro Text&quot;,Helvetica,sans-serif;text-anchor:middle;" transform="matrix(1 0 0 1 2636.69 322)">Heavy</text>
  <text style="stroke:none;fill:black;font-family:-apple-system,&quot;SF Pro Display&quot;,&quot;SF Pro Text&quot;,Helvetica,sans-serif;text-anchor:middle;" transform="matrix(1 0 0 1 2933.4 322)">Black</text>
  <line id="" style="fill:none;stroke:black;opacity:1;stroke-width:0.5;" x1="263" x2="3036" y1="1903" y2="1903"/>
  <g id="" transform="matrix(1 0 0 1 263 1933)">
   <path d="M9.24805 0.830078C13.5547 0.830078 17.1387-2.74414 17.1387-7.05078C17.1387-11.3574 13.5449-14.9316 9.23828-14.9316C4.94141-14.9316 1.36719-11.3574 1.36719-7.05078C1.36719-2.74414 4.95117 0.830078 9.24805 0.830078ZM9.24805-0.654297C5.70312-0.654297 2.87109-3.49609 2.87109-7.05078C2.87109-10.6055 5.69336-13.4473 9.23828-13.4473C12.793-13.4473 15.6348-10.6055 15.6445-7.05078C15.6543-3.49609 12.8027-0.654297 9.24805-0.654297ZM6.39648-6.31836L8.50586-6.31836L8.50586-4.19922C8.50586-3.75977 8.79883-3.45703 9.22852-3.45703C9.67773-3.45703 9.9707-3.75977 9.9707-4.19922L9.9707-6.31836L12.0996-6.31836C12.5391-6.31836 12.8418-6.61133 12.8418-7.04102C12.8418-7.48047 12.5391-7.7832 12.0996-7.7832L9.9707-7.7832L9.9707-9.89258C9.9707-10.3418 9.67773-10.6445 9.22852-10.6445C8.79883-10.6445 8.50586-10.3418 8.50586-9.89258L8.50586-7.7832L6.39648-7.7832C5.94727-7.7832 5.64453-7.48047 5.64453-7.04102C5.64453-6.61133 5.94727-6.31836 6.39648-6.31836Z"/>
  </g>
  <g id="" transform="matrix(1 0 0 1 281.506 1933)">
   <path d="M11.709 2.91016C17.1582 2.91016 21.6699-1.61133 21.6699-7.05078C21.6699-12.5 17.1484-17.0117 11.6992-17.0117C6.25977-17.0117 1.74805-12.5 1.74805-7.05078C1.74805-1.61133 6.26953 2.91016 11.709 2.91016ZM11.709 1.25C7.09961 1.25 3.41797-2.44141 3.41797-7.05078C3.41797-11.6602 7.08984-15.3516 11.6992-15.3516C16.3086-15.3516 20-11.6602 20.0098-7.05078C20.0195-2.44141 16.3184 1.25 11.709 1.25ZM7.98828-6.23047L10.8789-6.23047L10.8789-3.32031C10.8789-2.83203 11.2109-2.5 11.6895-2.5C12.1777-2.5 12.5195-2.83203 12.5195-3.32031L12.5195-6.23047L15.4297-6.23047C15.918-6.23047 16.25-6.5625 16.25-7.04102C16.25-7.5293 15.918-7.87109 15.4297-7.87109L12.5195-7.87109L12.5195-10.7617C12.5195-11.2695 12.1777-11.6016 11.6895-11.6016C11.2109-11.6016 10.8789-11.2598 10.8789-10.7617L10.8789-7.87109L7.98828-7.87109C7.48047-7.87109 7.14844-7.5293 7.14844-7.04102C7.14844-6.5625 7.49023-6.23047 7.98828-6.23047Z"/>
  </g>
  <g id="" transform="matrix(1 0 0 1 304.924 1933)">
   <path d="M14.9707 5.66406C21.9336 5.66406 27.6953-0.0976562 27.6953-7.05078C27.6953-14.0137 21.9238-19.7754 14.9609-19.7754C8.00781-19.7754 2.25586-14.0137 2.25586-7.05078C2.25586-0.0976562 8.01758 5.66406 14.9707 5.66406ZM14.9707 3.84766C8.93555 3.84766 4.08203-1.01562 4.08203-7.05078C4.08203-13.0957 8.92578-17.9492 14.9609-17.9492C21.0059-17.9492 25.8594-13.0957 25.8691-7.05078C25.8789-1.01562 21.0156 3.84766 14.9707 3.84766ZM10.0586-6.14258L14.0625-6.14258L14.0625-2.12891C14.0625-1.5918 14.4336-1.2207 14.9512-1.2207C15.4883-1.2207 15.8594-1.5918 15.8594-2.12891L15.8594-6.14258L19.8828-6.14258C20.4102-6.14258 20.791-6.51367 20.791-7.03125C20.791-7.56836 20.4199-7.94922 19.8828-7.94922L15.8594-7.94922L15.8594-11.9531C15.8594-12.5098 15.4883-12.8809 14.9512-12.8809C14.4336-12.8809 14.0625-12.5 14.0625-11.9531L14.0625-7.94922L10.0586-7.94922C9.50195-7.94922 9.13086-7.56836 9.13086-7.03125C9.13086-6.51367 9.51172-6.14258 10.0586-6.14258Z"/>
  </g>
  <text style="stroke:none;fill:black;font-family:-apple-system,&quot;SF Pro Display&quot;,&quot;SF Pro Text&quot;,Helvetica,sans-serif;font-weight:bold;" transform="matrix(1 0 0 1 263 1953)">Design Variations</text>
  <text style="stroke:none;fill:black;font-family:-apple-system,&quot;SF Pro Display&quot;,&quot;SF Pro Text&quot;,Helvetica,sans-serif;" transform="matrix(1 0 0 1 263 1971)">Symbols are supported in up to nine weights and three scales.</text>
  <text style="stroke:none;fill:black;font-family:-apple-system,&quot;SF Pro Display&quot;,&quot;SF Pro Text&quot;,Helvetica,sans-serif;" transform="matrix(1 0 0 1 263 1989)">For optimal layout with text and other symbols, vertically align</text>
  <text style="stroke:none;fill:black;font-family:-apple-system,&quot;SF Pro Display&quot;,&quot;SF Pro Text&quot;,Helvetica,sans-serif;" transform="matrix(1 0 0 1 263 2007)">symbols with the adjacent text.</text>
  <line id="" style="fill:none;stroke:#00AEEF;stroke-width:0.5;opacity:1.0;" x1="776" x2="776" y1="1919" y2="1933"/>
  <g id="" transform="matrix(1 0 0 1 776 1933)">
   <path d="M3.31055 0.126953C3.82812 0.126953 4.08203-0.0683594 4.26758-0.605469L5.52734-4.0625L11.2891-4.0625L12.5488-0.605469C12.7344-0.0683594 12.9883 0.126953 13.4961 0.126953C14.0137 0.126953 14.3457-0.185547 14.3457-0.673828C14.3457-0.839844 14.3164-0.986328 14.2383-1.20117L9.6582-13.3887C9.43359-13.9941 9.0332-14.2871 8.4082-14.2871C7.80273-14.2871 7.39258-13.9941 7.17773-13.3984L2.59766-1.19141C2.51953-0.976562 2.49023-0.830078 2.49023-0.664062C2.49023-0.175781 2.80273 0.126953 3.31055 0.126953ZM6.00586-5.53711L8.37891-12.1094L8.42773-12.1094L10.8008-5.53711Z"/>
  </g>
  <line id="" style="fill:none;stroke:#00AEEF;stroke-width:0.5;opacity:1.0;" x1="792.836" x2="792.836" y1="1919" y2="1933"/>
  <text style="stroke:none;fill:black;font-family:-apple-system,&quot;SF Pro Display&quot;,&quot;SF Pro Text&quot;,Helvetica,sans-serif;font-weight:bold;" transform="matrix(1 0 0 1 776 1953)">Margins</text>
  <text style="stroke:none;fill:black;font-family:-apple-system,&quot;SF Pro Display&quot;,&quot;SF Pro Text&quot;,Helvetica,sans-serif;" transform="matrix(1 0 0 1 776 1971)">Leading and trailing margins on the left and right side of each symbol</text>
  <text style="stroke:none;fill:black;font-family:-apple-system,&quot;SF Pro Display&quot;,&quot;SF Pro Text&quot;,Helvetica,sans-serif;" transform="matrix(1 0 0 1 776 1989)">can be adjusted by modifying the x-location of the margin guidelines.</text>
  <text style="stroke:none;fill:black;font-family:-apple-system,&quot;SF Pro Display&quot;,&quot;SF Pro Text&quot;,Helvetica,sans-serif;" transform="matrix(1 0 0 1 776 2007)">Modifications are automatically applied proportionally to all</text>
  <text style="stroke:none;fill:black;font-family:-apple-system,&quot;SF Pro Display&quot;,&quot;SF Pro Text&quot;,Helvetica,sans-serif;" transform="matrix(1 0 0 1 776 2025)">scales and weights.</text>
  <g id="" transform="matrix(1 0 0 1 1289 1933)">
   <path d="M2.8418 1.86523L4.54102 3.57422C5.40039 4.44336 6.38672 4.38477 7.31445 3.35938L17.4902-7.85156C17.7539-7.76367 18.0273-7.7832 18.3398-7.8418L19.4043-8.03711L20.0684-7.36328L20.0293-6.80664C19.9902-6.30859 20.1172-5.92773 20.6055-5.44922L21.3672-4.70703C21.8457-4.22852 22.4609-4.19922 22.9297-4.66797L25.8398-7.58789C26.3086-8.05664 26.2891-8.65234 25.8105-9.13086L25.0391-9.89258C24.5605-10.3711 24.1895-10.5273 23.7109-10.4883L23.1348-10.4395L22.4902-11.0742L22.7344-12.1973C22.8613-12.7637 22.7051-13.2031 22.1191-13.7891L19.9219-15.9766C16.582-19.2969 12.1484-19.2188 9.25781-16.3281C8.83789-15.918 8.80859-15.3418 9.04297-14.9512C9.27734-14.5898 9.73633-14.3555 10.3809-14.5215C11.8457-14.8633 13.3691-14.9219 14.7949-13.9844L14.209-12.5293C14.0137-12.0508 13.9844-11.6504 14.1113-11.2891L3.04688-0.898438C2.06055 0.0195312 1.98242 0.996094 2.8418 1.86523ZM10.752-15.957C13.1836-17.7344 16.4746-17.4316 18.7012-15.2051L21.1328-12.793C21.3672-12.5586 21.4062-12.373 21.3379-12.0312L21.0156-10.5469L22.5195-9.0625L23.5059-9.12109C23.7598-9.13086 23.8379-9.11133 24.0332-8.91602L24.6094-8.33984L22.168-5.89844L21.5918-6.47461C21.3965-6.66992 21.3672-6.74805 21.377-7.01172L21.4453-7.98828L19.9512-9.47266L18.4277-9.21875C18.1055-9.15039 17.959-9.17969 17.7148-9.41406L15.7129-11.416C15.459-11.6504 15.4297-11.8164 15.5859-12.1875L16.4648-14.2773C14.9023-15.7324 12.8711-16.3574 10.8398-15.7617C10.6836-15.7227 10.625-15.8496 10.752-15.957ZM5.27344 2.30469L4.10156 1.14258C3.63281 0.683594 3.74023 0.341797 4.14062-0.0195312L14.9512-10.1953L16.416-8.71094L6.42578 2.27539C6.07422 2.67578 5.74219 2.77344 5.27344 2.30469Z"/>
  </g>
  <text style="stroke:none;fill:black;font-family:-apple-system,&quot;SF Pro Display&quot;,&quot;SF Pro Text&quot;,Helvetica,sans-serif;font-weight:bold;" transform="matrix(1 0 0 1 1289 1953)">Exporting</text>
  <text style="stroke:none;fill:black;font-family:-apple-system,&quot;SF Pro Display&quot;,&quot;SF Pro Text&quot;,Helvetica,sans-serif;" transform="matrix(1 0 0 1 1289 1971)">Symbols should be outlined when exporting to ensure the</text>
  <text style="stroke:none;fill:black;font-family:-apple-system,&quot;SF Pro Display&quot;,&quot;SF Pro Text&quot;,Helvetica,sans-serif;" transform="matrix(1 0 0 1 1289 1989)">design is preserved when submitting to Xcode.</text>
  <text id="template-version" style="stroke:none;fill:black;font-family:-apple-system,&quot;SF Pro Display&quot;,&quot;SF Pro Text&quot;,Helvetica,sans-serif;text-anchor:end;" transform="matrix(1 0 0 1 3036 1933)">Template v.2.0</text>
  <text style="stroke:none;fill:black;font-family:-apple-system,&quot;SF Pro Display&quot;,&quot;SF Pro Text&quot;,Helvetica,sans-serif;text-anchor:end;" transform="matrix(1 0 0 1 3036 1951)">Requires Xcode 12 or greater</text>
  <text style="stroke:none;fill:black;font-family:-apple-system,&quot;SF Pro Display&quot;,&quot;SF Pro Text&quot;,Helvetica,sans-serif;text-anchor:end;" transform="matrix(1 0 0 1 3036 1969)">Generated from desktopcomputer</text>
  <text style="stroke:none;fill:black;font-family:-apple-system,&quot;SF Pro Display&quot;,&quot;SF Pro Text&quot;,Helvetica,sans-serif;text-anchor:end;" transform="matrix(1 0 0 1 3036 1987)">Typeset at 100 points</text>
  <text style="stroke:none;fill:black;font-family:-apple-system,&quot;SF Pro Display&quot;,&quot;SF Pro Text&quot;,Helvetica,sans-serif;" transform="matrix(1 0 0 1 263 726)">Small</text>
  <text style="stroke:none;fill:black;font-family:-apple-system,&quot;SF Pro Display&quot;,&quot;SF Pro Text&quot;,Helvetica,sans-serif;" transform="matrix(1 0 0 1 263 1156)">Medium</text>
  <text style="stroke:none;fill:black;font-family:-apple-system,&quot;SF Pro Display&quot;,&quot;SF Pro Text&quot;,Helvetica,sans-serif;" transform="matrix(1 0 0 1 263 1586)">Large</text>
 </g>
 <g id="Guides">
  <g id="H-reference" style="fill:#27AAE1;stroke:none;" transform="matrix(1 0 0 1 339 696)">
   <path d="M0.976562 0L3.66211 0L12.9883-24.4629L45.752-24.4629L55.127 0L57.7637 0L30.6152-70.459L28.125-70.459ZM29.3457-67.1387L29.4434-67.1387L44.873-26.709L13.8672-26.709Z"/>
  </g>
  <line id="Baseline-S" style="fill:none;stroke:#27AAE1;opacity:1;stroke-width:0.5;" x1="263" x2="3036" y1="696" y2="696"/>
  <line id="Capline-S" style="fill:none;stroke:#27AAE1;opacity:1;stroke-width:0.5;" x1="263" x2="3036" y1="625.541" y2="625.541"/>
  <g id="H-reference" style="fill:#27AAE1;stroke:none;" transform="matrix(1 0 0 1 339 1126)">
   <path d="M0.976562 0L3.66211 0L12.9883-24.4629L45.752-24.4629L55.127 0L57.7637 0L30.6152-70.459L28.125-70.459ZM29.3457-67.1387L29.4434-67.1387L44.873-26.709L13.8672-26.709Z"/>
  </g>
  <line id="Baseline-M" style="fill:none;stroke:#27AAE1;opacity:1;stroke-width:0.5;" x1="263" x2="3036" y1="1126" y2="1126"/>
  <line id="Capline-M" style="fill:none;stroke:#27AAE1;opacity:1;stroke-width:0.5;" x1="263" x2="3036" y1="1055.54" y2="1055.54"/>
  <g id="H-reference" style="fill:#27AAE1;stroke:none;" transform="matrix(1 0 0 1 339 1556)">
   <path d="M0.976562 0L3.66211 0L12.9883-24.4629L45.752-24.4629L55.127 0L57.7637 0L30.6152-70.459L28.125-70.459ZM29.3457-67.1387L29.4434-67.1387L44.873-26.709L13.8672-26.709Z"/>
  </g>
  <line id="Baseline-L" style="fill:none;stroke:#27AAE1;opacity:1;stroke-width:0.5;" x1="263" x2="3036" y1="1556" y2="1556"/>
  <line id="Capline-L" style="fill:none;stroke:#27AAE1;opacity:1;stroke-width:0.5;" x1="263" x2="3036" y1="1485.54" y2="1485.54"/>
  <line id="left-margin" style="fill:none;stroke:#00AEEF;stroke-width:0.5;opacity:1.0;" x1="1379.19" x2="1379.19" y1="1030.79" y2="1150.12"/>
  <line id="right-margin" style="fill:none;stroke:#00AEEF;stroke-width:0.5;opacity:1.0;" x1="1520.5" x2="1520.5" y1="1030.79" y2="1150.12"/>
 </g>
 <g id="Symbols">
  <g id="Black-L" transform="matrix(1 0 0 1 2835.96 1556)">
   <path d="M37.6953 11.377L76.1719 11.377L74.8047 20.166L69.3848 20.166C64.9414 20.166 61.377 23.9258 61.377 28.125C61.377 32.3242 64.9414 36.084 69.3848 36.084L125.488 36.084C129.932 36.084 133.496 32.3242 133.496 28.125C133.496 23.9258 129.932 20.166 125.488 20.166L120.02 20.166L118.652 11.377L157.178 11.377C170.947 11.377 178.809 3.61328 178.809-10.2539L178.809-84.1797C178.809-98.0957 170.947-105.811 157.178-105.811L37.6953-105.811C23.877-105.811 16.0645-98.0957 16.0645-84.1797L16.0645-10.2539C16.0645 3.61328 23.877 11.377 37.6953 11.377ZM37.5-22.7051C35.9375-22.7051 35.1562-23.3398 35.1562-25.0977L35.1562-81.5918C35.1562-85.3516 36.8164-86.7676 40.332-86.7676L154.541-86.7676C158.057-86.7676 159.717-85.3516 159.717-81.5918L159.717-25.0977C159.717-23.3398 158.936-22.7051 157.324-22.7051ZM97.4121 4.78516C93.3594 4.78516 90.0391 1.46484 90.0391-2.58789C90.0391-6.68945 93.3594-10.0098 97.4121-10.0098C101.514-10.0098 104.834-6.68945 104.834-2.58789C104.834 1.46484 101.514 4.78516 97.4121 4.78516Z"/>
  </g>
  <g id="Heavy-L" transform="matrix(1 0 0 1 2540.99 1556)">
   <path d="M36.1816 9.96094L74.9512 9.96094L73.4863 19.7754L67.7246 19.7754C63.7207 19.7754 60.5469 23.0957 60.5469 26.9043C60.5469 30.6152 63.7207 33.9844 67.7246 33.9844L123.73 33.9844C127.686 33.9844 130.859 30.6152 130.859 26.9043C130.859 23.0957 127.686 19.7754 123.73 19.7754L117.969 19.7754L116.455 9.96094L155.225 9.96094C168.164 9.96094 175.342 2.88086 175.342-10.2051L175.342-83.7891C175.342-96.8262 168.164-103.906 155.225-103.906L36.1816-103.906C23.2422-103.906 16.0645-96.8262 16.0645-83.7891L16.0645-10.2051C16.0645 2.88086 23.2422 9.96094 36.1816 9.96094ZM35.1562-22.4121C33.4961-22.4121 32.666-23.0957 32.666-24.9023L32.666-81.7383C32.666-85.7422 34.4727-87.3047 38.2324-87.3047L153.174-87.3047C156.982-87.3047 158.74-85.7422 158.74-81.7383L158.74-24.9023C158.74-23.0957 157.91-22.4121 156.25-22.4121ZM95.7031 3.41797C91.8945 3.41797 88.7695 0.292969 88.7695-3.51562C88.7695-7.32422 91.8945-10.4492 95.7031-10.4492C99.5117-10.4492 102.637-7.32422 102.637-3.51562C102.637 0.292969 99.5117 3.41797 95.7031 3.41797Z"/>
  </g>
  <g id="Bold-L" transform="matrix(1 0 0 1 2246.2 1556)">
   <path d="M34.5215 8.34961L73.584 8.34961L71.9238 19.2871L65.8203 19.2871C62.4023 19.2871 59.6191 22.168 59.6191 25.4883C59.6191 28.7598 62.4023 31.6406 65.8203 31.6406L121.729 31.6406C125.195 31.6406 127.93 28.7598 127.93 25.4883C127.93 22.168 125.195 19.2871 121.729 19.2871L115.625 19.2871L114.014 8.34961L153.076 8.34961C165.039 8.34961 171.484 2.00195 171.484-10.1074L171.484-83.3008C171.484-95.4102 165.039-101.758 153.076-101.758L34.5215-101.758C22.5586-101.758 16.0645-95.4102 16.0645-83.3008L16.0645-10.1074C16.0645 2.00195 22.5586 8.34961 34.5215 8.34961ZM32.5684-22.0703C30.7617-22.0703 29.9316-22.8027 29.9316-24.707L29.9316-81.9336C29.9316-86.1816 31.8359-87.8906 35.9375-87.8906L151.66-87.8906C155.762-87.8906 157.617-86.1816 157.617-81.9336L157.617-24.707C157.617-22.8027 156.787-22.0703 154.98-22.0703ZM93.7988 1.9043C90.2344 1.9043 87.3535-0.976562 87.3535-4.54102C87.3535-8.05664 90.2344-10.9863 93.7988-10.9863C97.3145-10.9863 100.244-8.05664 100.244-4.54102C100.244-0.976562 97.3145 1.9043 93.7988 1.9043Z"/>
  </g>
  <g id="Semibold-L" transform="matrix(1 0 0 1 1950.81 1556)">
   <path d="M33.3496 7.22656L72.6074 7.22656L70.8984 18.9941L64.502 18.9941C61.4746 18.9941 58.9844 21.5332 58.9844 24.5117C58.9844 27.4902 61.4746 29.9805 64.502 29.9805L120.41 29.9805C123.438 29.9805 125.928 27.4902 125.928 24.5117C125.928 21.5332 123.438 18.9941 120.41 18.9941L114.014 18.9941L112.305 7.22656L151.562 7.22656C162.891 7.22656 168.848 1.41602 168.848-10.0586L168.848-82.959C168.848-94.4336 162.891-100.244 151.562-100.244L33.3496-100.244C22.0215-100.244 16.0645-94.4336 16.0645-82.959L16.0645-10.0586C16.0645 1.41602 22.0215 7.22656 33.3496 7.22656ZM30.7617-21.875C28.9062-21.875 28.0273-22.6074 28.0273-24.6094L28.0273-82.0312C28.0273-86.4746 30.0293-88.2812 34.3262-88.2812L150.586-88.2812C154.883-88.2812 156.885-86.4746 156.885-82.0312L156.885-24.6094C156.885-22.6074 156.006-21.875 154.15-21.875ZM92.4316 0.878906C89.1113 0.878906 86.377-1.85547 86.377-5.22461C86.377-8.54492 89.1113-11.3281 92.4316-11.3281C95.752-11.3281 98.5352-8.54492 98.5352-5.22461C98.5352-1.85547 95.752 0.878906 92.4316 0.878906Z"/>
  </g>
  <g id="Medium-L" transform="matrix(1 0 0 1 1655.1 1556)">
   <path d="M32.4707 6.39648L71.875 6.39648L70.1172 18.75L63.5254 18.75C60.791 18.75 58.5449 21.0449 58.5449 23.7793C58.5449 26.5137 60.791 28.7598 63.5254 28.7598L119.385 28.7598C122.119 28.7598 124.365 26.5137 124.365 23.7793C124.365 21.0449 122.119 18.75 119.385 18.75L112.793 18.75L111.035 6.39648L150.439 6.39648C161.23 6.39648 166.846 0.976562 166.846-10.0098L166.846-82.7148C166.846-93.7012 161.23-99.1211 150.439-99.1211L32.4707-99.1211C21.6797-99.1211 16.0645-93.7012 16.0645-82.7148L16.0645-10.0098C16.0645 0.976562 21.6797 6.39648 32.4707 6.39648ZM29.3945-21.6797C27.4902-21.6797 26.6113-22.4609 26.6113-24.5117L26.6113-82.1289C26.6113-86.7188 28.6621-88.623 33.1055-88.623L149.805-88.623C154.248-88.623 156.299-86.7188 156.299-82.1289L156.299-24.5117C156.299-22.4609 155.42-21.6797 153.516-21.6797ZM91.4551 0.0488281C88.2324 0.0488281 85.5957-2.53906 85.5957-5.76172C85.5957-8.93555 88.2324-11.6211 91.4551-11.6211C94.5801-11.6211 97.2656-8.93555 97.2656-5.76172C97.2656-2.53906 94.5801 0.0488281 91.4551 0.0488281Z"/>
  </g>
  <g id="Regular-L" transform="matrix(1 0 0 1 1359.71 1556)">
   <path d="M31.3477 5.32227L70.9473 5.32227L69.043 18.457L62.2559 18.457C59.8633 18.457 57.9102 20.4102 57.9102 22.8516C57.9102 25.2441 59.8633 27.1484 62.2559 27.1484L118.018 27.1484C120.41 27.1484 122.363 25.2441 122.363 22.8516C122.363 20.4102 120.41 18.457 118.018 18.457L111.23 18.457L109.326 5.32227L148.926 5.32227C159.082 5.32227 164.209 0.390625 164.209-9.96094L164.209-82.373C164.209-92.7246 159.082-97.6562 148.926-97.6562L31.3477-97.6562C21.1914-97.6562 16.0645-92.7246 16.0645-82.373L16.0645-9.96094C16.0645 0.390625 21.1914 5.32227 31.3477 5.32227ZM27.5879-21.4355C25.6348-21.4355 24.707-22.2656 24.707-24.3652L24.707-82.2266C24.707-87.0117 26.8555-89.0137 31.4941-89.0137L148.779-89.0137C153.418-89.0137 155.566-87.0117 155.566-82.2266L155.566-24.3652C155.566-22.2656 154.639-21.4355 152.686-21.4355ZM90.1367-0.976562C87.1094-0.976562 84.6191-3.41797 84.6191-6.44531C84.6191-9.42383 87.1094-11.9629 90.1367-11.9629C93.0664-11.9629 95.6543-9.42383 95.6543-6.44531C95.6543-3.41797 93.0664-0.976562 90.1367-0.976562Z"/>
  </g>
  <g id="Light-L" transform="matrix(1 0 0 1 1064.39 1556)">
   <path d="M30.0781 4.63867L69.9219 4.63867L67.9688 19.0918L61.5723 19.0918C59.668 19.0918 58.2031 20.5566 58.2031 22.4121C58.2031 24.2676 59.668 25.7324 61.5723 25.7324L115.967 25.7324C117.822 25.7324 119.287 24.2676 119.287 22.4121C119.287 20.5566 117.822 19.0918 115.967 19.0918L109.521 19.0918L107.568 4.63867L147.412 4.63867C156.738 4.63867 161.426 0.0488281 161.426-9.375L161.426-82.1777C161.426-91.6016 156.738-96.1426 147.412-96.1426L30.0781-96.1426C20.752-96.1426 16.0645-91.6016 16.0645-82.1777L16.0645-9.375C16.0645 0.0488281 20.752 4.63867 30.0781 4.63867ZM25.8301-20.8496C23.6816-20.8496 22.7051-21.7773 22.7051-23.9746L22.7051-81.9824C22.7051-87.207 25.1465-89.5508 30.2734-89.5508L147.217-89.5508C152.393-89.5508 154.834-87.207 154.834-81.9824L154.834-23.9746C154.834-21.7773 153.809-20.8496 151.66-20.8496ZM88.7695-1.70898C85.9375-1.70898 83.6914-3.90625 83.6914-6.73828C83.6914-9.42383 85.9375-11.7676 88.7695-11.7676C91.4551-11.7676 93.7988-9.42383 93.7988-6.73828C93.7988-3.90625 91.4551-1.70898 88.7695-1.70898Z"/>
  </g>
  <g id="Thin-L" transform="matrix(1 0 0 1 769.508 1556)">
   <path d="M28.418 3.71094L68.6035 3.71094L66.5039 19.9219L60.6445 19.9219C59.4727 19.9219 58.5938 20.752 58.5938 21.875C58.5938 23.0469 59.4727 23.877 60.6445 23.877L113.232 23.877C114.355 23.877 115.234 23.0469 115.234 21.875C115.234 20.752 114.355 19.9219 113.232 19.9219L107.324 19.9219L105.225 3.71094L145.41 3.71094C153.613 3.71094 157.764-0.390625 157.764-8.59375L157.764-81.8359C157.764-90.0391 153.613-94.1895 145.41-94.1895L28.418-94.1895C20.2148-94.1895 16.0645-90.0391 16.0645-81.8359L16.0645-8.59375C16.0645-0.390625 20.2148 3.71094 28.418 3.71094ZM23.4375-20.0195C21.1426-20.0195 19.9707-21.1426 19.9707-23.4863L19.9707-81.6895C19.9707-87.4512 22.8516-90.2344 28.6621-90.2344L145.215-90.2344C150.977-90.2344 153.857-87.4512 153.857-81.6895L153.857-23.4863C153.857-21.1426 152.686-20.0195 150.391-20.0195ZM86.9141-2.68555C84.375-2.68555 82.4707-4.54102 82.4707-7.12891C82.4707-9.47266 84.375-11.5234 86.9141-11.5234C89.2578-11.5234 91.3574-9.47266 91.3574-7.12891C91.3574-4.54102 89.2578-2.68555 86.9141-2.68555Z"/>
  </g>
  <g id="Ultralight-L" transform="matrix(1 0 0 1 473.725 1556)">
   <path d="M27.5391 3.27148L67.9199 3.27148L65.7715 20.3613L60.1562 20.3613C59.375 20.3613 58.7891 20.8496 58.7891 21.6309C58.7891 22.4121 59.375 22.9004 60.1562 22.9004L111.816 22.9004C112.598 22.9004 113.184 22.4121 113.184 21.6309C113.184 20.8496 112.598 20.3613 111.816 20.3613L106.201 20.3613L104.053 3.27148L144.385 3.27148C152.002 3.27148 155.908-0.634766 155.908-8.20312L155.908-81.6895C155.908-89.2578 152.002-93.1641 144.385-93.1641L27.5391-93.1641C19.9707-93.1641 16.0645-89.2578 16.0645-81.6895L16.0645-8.20312C16.0645-0.634766 19.9707 3.27148 27.5391 3.27148ZM22.2168-19.6289C19.873-19.6289 18.6035-20.8008 18.6035-23.2422L18.6035-81.4941C18.6035-87.5977 21.6797-90.625 27.7832-90.625L144.141-90.625C150.244-90.625 153.32-87.5977 153.32-81.4941L153.32-23.2422C153.32-20.8008 152.1-19.6289 149.707-19.6289ZM85.9863-3.17383C83.5449-3.17383 81.8848-4.88281 81.8848-7.27539C81.8848-9.47266 83.5449-11.4258 85.9863-11.4258C88.1348-11.4258 90.0879-9.47266 90.0879-7.27539C90.0879-4.88281 88.1348-3.17383 85.9863-3.17383Z"/>
  </g>
  <g id="Black-M" transform="matrix(1 0 0 1 2856.32 1126)">
   <path d="M30.5664 2.44141L60.1562 2.44141L59.2285 8.54492L55.6641 8.54492C51.8555 8.54492 48.8281 11.8164 48.8281 15.332C48.8281 18.8477 51.8555 22.1191 55.6641 22.1191L98.4863 22.1191C102.344 22.1191 105.322 18.8477 105.322 15.332C105.322 11.8164 102.344 8.54492 98.4863 8.54492L94.9707 8.54492L93.9941 2.44141L123.584 2.44141C135.01 2.44141 141.699-4.29688 141.699-15.6738L141.699-73.6328C141.699-85.0098 135.01-91.748 123.584-91.748L30.5664-91.748C19.1895-91.748 12.4512-85.0098 12.4512-73.6328L12.4512-15.6738C12.4512-4.29688 19.1895 2.44141 30.5664 2.44141ZM31.25-25.5859C30.0781-25.5859 29.4434-26.123 29.4434-27.3926L29.4434-70.8008C29.4434-73.6816 30.7617-74.7559 33.3984-74.7559L120.801-74.7559C123.389-74.7559 124.707-73.6816 124.707-70.8008L124.707-27.3926C124.707-26.123 124.072-25.5859 122.9-25.5859ZM77.0996-2.7832C73.6816-2.7832 70.9961-5.46875 70.9961-8.88672C70.9961-12.2559 73.6816-14.9414 77.0996-14.9414C80.4688-14.9414 83.1543-12.2559 83.1543-8.88672C83.1543-5.46875 80.4688-2.7832 77.0996-2.7832Z"/>
  </g>
  <g id="Heavy-M" transform="matrix(1 0 0 1 2561.13 1126)">
   <path d="M29.248 1.07422L59.082 1.07422L58.0078 7.95898L54.0039 7.95898C50.5859 7.95898 47.8516 10.8887 47.8516 14.0625C47.8516 17.2852 50.5859 20.166 54.0039 20.166L97.1191 20.166C100.537 20.166 103.271 17.2852 103.271 14.0625C103.271 10.8887 100.537 7.95898 97.1191 7.95898L93.1152 7.95898L92.041 1.07422L121.875 1.07422C132.568 1.07422 138.672-5.0293 138.672-15.7227L138.672-73.2422C138.672-83.9355 132.568-90.0391 121.875-90.0391L29.248-90.0391C18.5547-90.0391 12.4512-83.9355 12.4512-73.2422L12.4512-15.7227C12.4512-5.0293 18.5547 1.07422 29.248 1.07422ZM29.1992-25.4395C27.9297-25.4395 27.2949-25.9766 27.2949-27.2949L27.2949-71.0449C27.2949-74.0234 28.6621-75.1953 31.4453-75.1953L119.678-75.1953C122.461-75.1953 123.828-74.0234 123.828-71.0449L123.828-27.2949C123.828-25.9766 123.193-25.4395 121.973-25.4395ZM75.5859-4.10156C72.4121-4.10156 69.873-6.64062 69.873-9.81445C69.873-12.9395 72.4121-15.4785 75.5859-15.4785C78.7109-15.4785 81.2988-12.9395 81.2988-9.81445C81.2988-6.64062 78.7109-4.10156 75.5859-4.10156Z"/>
  </g>
  <g id="Bold-M" transform="matrix(1 0 0 1 2266.1 1126)">
   <path d="M27.7832-0.488281L57.8613-0.488281L56.6895 7.27539L52.1484 7.27539C49.1699 7.27539 46.7773 9.81445 46.7773 12.6953C46.7773 15.5273 49.1699 18.0176 52.1484 18.0176L95.5566 18.0176C98.584 18.0176 100.977 15.5273 100.977 12.6953C100.977 9.81445 98.584 7.27539 95.5566 7.27539L91.0156 7.27539L89.8438-0.488281L119.971-0.488281C129.834-0.488281 135.303-5.85938 135.303-15.8203L135.303-72.7539C135.303-82.7637 129.834-88.0859 119.971-88.0859L27.7832-88.0859C17.9199-88.0859 12.4512-82.7637 12.4512-72.7539L12.4512-15.8203C12.4512-5.85938 17.9199-0.488281 27.7832-0.488281ZM26.8555-25.2441C25.5371-25.2441 24.9023-25.7812 24.9023-27.1973L24.9023-71.2891C24.9023-74.4629 26.2695-75.6836 29.248-75.6836L118.457-75.6836C121.436-75.6836 122.852-74.4629 122.852-71.2891L122.852-27.1973C122.852-25.7812 122.217-25.2441 120.898-25.2441ZM73.877-5.51758C70.9473-5.51758 68.5547-7.91016 68.5547-10.8398C68.5547-13.7207 70.9473-16.1133 73.877-16.1133C76.7578-16.1133 79.1504-13.7207 79.1504-10.8398C79.1504-7.91016 76.7578-5.51758 73.877-5.51758Z"/>
  </g>
  <g id="Semibold-M" transform="matrix(1 0 0 1 1970.56 1126)">
   <path d="M26.7578-1.5625L57.0312-1.5625L55.7617 6.83594L50.8789 6.83594C48.1934 6.83594 45.9961 9.08203 45.9961 11.7188C45.9961 14.3066 48.1934 16.5527 50.8789 16.5527L94.4824 16.5527C97.2168 16.5527 99.3652 14.3066 99.3652 11.7188C99.3652 9.08203 97.2168 6.83594 94.4824 6.83594L89.5996 6.83594L88.3789-1.5625L118.604-1.5625C127.93-1.5625 132.959-6.39648 132.959-15.8691L132.959-72.4609C132.959-81.9336 127.93-86.7676 118.604-86.7676L26.7578-86.7676C17.4316-86.7676 12.4512-81.9336 12.4512-72.4609L12.4512-15.8691C12.4512-6.39648 17.4316-1.5625 26.7578-1.5625ZM25.2441-25.1465C23.877-25.1465 23.2422-25.6836 23.2422-27.1484L23.2422-71.4844C23.2422-74.7559 24.6582-76.0254 27.7344-76.0254L117.627-76.0254C120.752-76.0254 122.168-74.7559 122.168-71.4844L122.168-27.1484C122.168-25.6836 121.533-25.1465 120.166-25.1465ZM72.7051-6.54297C69.9219-6.54297 67.6758-8.78906 67.6758-11.5234C67.6758-14.2578 69.9219-16.5527 72.7051-16.5527C75.4395-16.5527 77.6855-14.2578 77.6855-11.5234C77.6855-8.78906 75.4395-6.54297 72.7051-6.54297Z"/>
  </g>
  <g id="Medium-M" transform="matrix(1 0 0 1 1674.75 1126)">
   <path d="M25.9766-2.34375L56.3965-2.34375L55.0781 6.49414L49.9023 6.49414C47.4609 6.49414 45.459 8.49609 45.459 10.9863C45.459 13.3789 47.4609 15.4297 49.9023 15.4297L93.7012 15.4297C96.1426 15.4297 98.1445 13.3789 98.1445 10.9863C98.1445 8.49609 96.1426 6.49414 93.7012 6.49414L88.5254 6.49414L87.207-2.34375L117.627-2.34375C126.514-2.34375 131.152-6.83594 131.152-15.918L131.152-72.2168C131.152-81.2988 126.514-85.791 117.627-85.791L25.9766-85.791C17.0898-85.791 12.4512-81.2988 12.4512-72.2168L12.4512-15.918C12.4512-6.83594 17.0898-2.34375 25.9766-2.34375ZM24.0234-25.0488C22.6074-25.0488 21.9727-25.5859 21.9727-27.0996L21.9727-71.6309C21.9727-74.9512 23.3887-76.2695 26.6113-76.2695L116.992-76.2695C120.215-76.2695 121.631-74.9512 121.631-71.6309L121.631-27.0996C121.631-25.5859 120.996-25.0488 119.58-25.0488ZM71.8262-7.27539C69.1895-7.27539 66.9922-9.42383 66.9922-12.0605C66.9922-14.6973 69.1895-16.8945 71.8262-16.8945C74.4141-16.8945 76.6113-14.6973 76.6113-12.0605C76.6113-9.42383 74.4141-7.27539 71.8262-7.27539Z"/>
  </g>
  <g id="Regular-M" transform="matrix(1 0 0 1 1379.19 1126)">
   <path d="M25-3.41797L55.5664-3.41797L54.1504 6.00586L48.6328 6.00586C46.4844 6.00586 44.7266 7.8125 44.7266 10.0098C44.7266 12.1582 46.4844 13.916 48.6328 13.916L92.627 13.916C94.8242 13.916 96.582 12.1582 96.582 10.0098C96.582 7.8125 94.8242 6.00586 92.627 6.00586L87.1094 6.00586L85.7422-3.41797L116.309-3.41797C124.658-3.41797 128.857-7.42188 128.857-15.9668L128.857-71.9238C128.857-80.4688 124.658-84.4727 116.309-84.4727L25-84.4727C16.6504-84.4727 12.4512-80.4688 12.4512-71.9238L12.4512-15.9668C12.4512-7.42188 16.6504-3.41797 25-3.41797ZM22.4121-24.9023C20.9473-24.9023 20.3125-25.4883 20.3125-27.002L20.3125-71.7773C20.3125-75.2441 21.7773-76.6113 25.1465-76.6113L116.162-76.6113C119.482-76.6113 120.996-75.2441 120.996-71.7773L120.996-27.002C120.996-25.4883 120.312-24.9023 118.848-24.9023ZM70.6543-8.25195C68.1641-8.25195 66.1133-10.3027 66.1133-12.793C66.1133-15.1855 68.1641-17.2852 70.6543-17.2852C73.0957-17.2852 75.1465-15.1855 75.1465-12.793C75.1465-10.3027 73.0957-8.25195 70.6543-8.25195Z"/>
  </g>
  <g id="Light-M" transform="matrix(1 0 0 1 1083.72 1126)">
   <path d="M23.877-4.00391L54.6387-4.00391L53.1738 6.5918L47.998 6.5918C46.3379 6.5918 44.9707 7.91016 44.9707 9.61914C44.9707 11.3281 46.3379 12.6465 47.998 12.6465L90.7715 12.6465C92.4805 12.6465 93.8477 11.3281 93.8477 9.61914C93.8477 7.91016 92.4805 6.5918 90.7715 6.5918L85.6445 6.5918L84.1797-4.00391L114.941-4.00391C122.51-4.00391 126.367-7.71484 126.367-15.4297L126.367-71.6797C126.367-79.4434 122.51-83.1055 114.941-83.1055L23.877-83.1055C16.2598-83.1055 12.4512-79.4434 12.4512-71.6797L12.4512-15.4297C12.4512-7.71484 16.2598-4.00391 23.877-4.00391ZM20.8008-24.3652C19.2383-24.3652 18.5059-25.0488 18.5059-26.6602L18.5059-71.582C18.5059-75.4395 20.2637-77.0996 24.0234-77.0996L114.795-77.0996C118.555-77.0996 120.312-75.4395 120.312-71.582L120.312-26.6602C120.312-25.0488 119.58-24.3652 117.969-24.3652ZM69.3848-8.93555C67.1387-8.93555 65.2832-10.7422 65.2832-13.0371C65.2832-15.2344 67.1387-17.1387 69.3848-17.1387C71.582-17.1387 73.5352-15.2344 73.5352-13.0371C73.5352-10.7422 71.582-8.93555 69.3848-8.93555Z"/>
  </g>
  <g id="Thin-M" transform="matrix(1 0 0 1 788.673 1126)">
   <path d="M22.3633-4.83398L53.4668-4.83398L51.8555 7.32422L47.168 7.32422C46.1426 7.32422 45.3125 8.10547 45.3125 9.13086C45.3125 10.2051 46.1426 10.9863 47.168 10.9863L88.3301 10.9863C89.3555 10.9863 90.1855 10.2051 90.1855 9.13086C90.1855 8.10547 89.3555 7.32422 88.3301 7.32422L83.6426 7.32422L82.0801-4.83398L113.135-4.83398C119.727-4.83398 123.047-8.1543 123.047-14.7461L123.047-71.4355C123.047-78.0273 119.727-81.3477 113.135-81.3477L22.3633-81.3477C15.7715-81.3477 12.4512-78.0273 12.4512-71.4355L12.4512-14.7461C12.4512-8.1543 15.7715-4.83398 22.3633-4.83398ZM18.7012-23.6328C16.9434-23.6328 16.0645-24.4629 16.0645-26.2207L16.0645-71.2891C16.0645-75.6348 18.2129-77.7344 22.5586-77.7344L112.939-77.7344C117.285-77.7344 119.434-75.6348 119.434-71.2891L119.434-26.2207C119.434-24.4629 118.555-23.6328 116.846-23.6328ZM67.7734-9.81445C65.7227-9.81445 64.209-11.3281 64.209-13.3789C64.209-15.2344 65.7227-16.8945 67.7734-16.8945C69.6289-16.8945 71.3379-15.2344 71.3379-13.3789C71.3379-11.3281 69.6289-9.81445 67.7734-9.81445Z"/>
  </g>
  <g id="Ultralight-M" transform="matrix(1 0 0 1 492.792 1126)">
   <path d="M21.6309-5.27344L52.832-5.27344L51.1719 7.71484L46.7773 7.71484C46.0449 7.71484 45.5078 8.20312 45.5078 8.88672C45.5078 9.61914 46.0449 10.1074 46.7773 10.1074L87.0605 10.1074C87.793 10.1074 88.3301 9.61914 88.3301 8.88672C88.3301 8.20312 87.793 7.71484 87.0605 7.71484L82.666 7.71484L81.0059-5.27344L112.207-5.27344C118.262-5.27344 121.387-8.34961 121.387-14.4043L121.387-71.2891C121.387-77.3438 118.262-80.4199 112.207-80.4199L21.6309-80.4199C15.5273-80.4199 12.4512-77.3438 12.4512-71.2891L12.4512-14.4043C12.4512-8.34961 15.5273-5.27344 21.6309-5.27344ZM17.5781-23.2422C15.7715-23.2422 14.8438-24.1211 14.8438-26.0254L14.8438-71.1426C14.8438-75.7812 17.1875-78.0273 21.7773-78.0273L112.012-78.0273C116.65-78.0273 118.994-75.7812 118.994-71.1426L118.994-26.0254C118.994-24.1211 118.066-23.2422 116.211-23.2422ZM66.8945-10.2539C64.9902-10.2539 63.623-11.6211 63.623-13.5254C63.623-15.2344 64.9902-16.7969 66.8945-16.7969C68.6523-16.7969 70.2148-15.2344 70.2148-13.5254C70.2148-11.6211 68.6523-10.2539 66.8945-10.2539Z"/>
  </g>
  <g id="Black-S" transform="matrix(1 0 0 1 2873.1 696)">
   <path d="M23.877-5.81055L47.0703-5.81055L46.3379-0.976562L43.5059-0.976562C40.5273-0.976562 38.1836 1.5625 38.1836 4.29688C38.1836 7.03125 40.5273 9.57031 43.5059 9.57031L77.0996 9.57031C80.0781 9.57031 82.4219 7.03125 82.4219 4.29688C82.4219 1.5625 80.0781-0.976562 77.0996-0.976562L74.2676-0.976562L73.5352-5.81055L96.7285-5.81055C105.615-5.81055 110.84-11.0352 110.84-19.9219L110.84-65.2832C110.84-74.1699 105.615-79.3945 96.7285-79.3945L23.877-79.3945C14.9902-79.3945 9.76562-74.1699 9.76562-65.2832L9.76562-19.9219C9.76562-11.0352 14.9902-5.81055 23.877-5.81055ZM24.3652-27.6855C23.4375-27.6855 22.9492-28.0762 22.9492-29.1016L22.9492-63.1348C22.9492-65.3809 23.9746-66.2109 26.0254-66.2109L94.5801-66.2109C96.6309-66.2109 97.6562-65.3809 97.6562-63.1348L97.6562-29.1016C97.6562-28.0762 97.168-27.6855 96.2402-27.6855ZM60.3027-9.91211C57.666-9.91211 55.5664-12.0117 55.5664-14.6484C55.5664-17.2852 57.666-19.3848 60.3027-19.3848C62.9395-19.3848 65.0391-17.2852 65.0391-14.6484C65.0391-12.0117 62.9395-9.91211 60.3027-9.91211Z"/>
  </g>
  <g id="Heavy-S" transform="matrix(1 0 0 1 2577.41 696)">
   <path d="M22.998-6.78711L46.3379-6.78711L45.5078-1.51367L42.2852-1.51367C39.5996-1.51367 37.4023 0.830078 37.4023 3.36914C37.4023 5.9082 39.5996 8.25195 42.2852 8.25195L76.2695 8.25195C78.9551 8.25195 81.1523 5.9082 81.1523 3.36914C81.1523 0.830078 78.9551-1.51367 76.2695-1.51367L73.0469-1.51367L72.2168-6.78711L95.5566-6.78711C104.004-6.78711 108.789-11.5723 108.789-20.0195L108.789-64.9902C108.789-73.4863 104.004-78.2227 95.5566-78.2227L22.998-78.2227C14.5508-78.2227 9.76562-73.4863 9.76562-64.9902L9.76562-20.0195C9.76562-11.5723 14.5508-6.78711 22.998-6.78711ZM22.9492-27.6367C21.9727-27.6367 21.4844-28.0273 21.4844-29.0527L21.4844-63.3301C21.4844-65.625 22.5098-66.5039 24.6582-66.5039L93.8965-66.5039C96.0449-66.5039 97.0703-65.625 97.0703-63.3301L97.0703-29.0527C97.0703-28.0273 96.582-27.6367 95.6055-27.6367ZM59.2773-10.8398C56.7871-10.8398 54.7852-12.8418 54.7852-15.332C54.7852-17.8223 56.7871-19.8242 59.2773-19.8242C61.7676-19.8242 63.7695-17.8223 63.7695-15.332C63.7695-12.8418 61.7676-10.8398 59.2773-10.8398Z"/>
  </g>
  <g id="Bold-S" transform="matrix(1 0 0 1 2281.85 696)">
   <path d="M22.0215-7.91016L45.5078-7.91016L44.6289-2.09961L40.9668-2.09961C38.5254-2.09961 36.5234 0 36.5234 2.34375C36.5234 4.6875 38.5254 6.73828 40.9668 6.73828L75.293 6.73828C77.7344 6.73828 79.7363 4.6875 79.7363 2.34375C79.7363 0 77.7344-2.09961 75.293-2.09961L71.6309-2.09961L70.752-7.91016L94.2383-7.91016C102.148-7.91016 106.494-12.1582 106.494-20.166L106.494-64.6973C106.494-72.6562 102.148-76.9043 94.2383-76.9043L22.0215-76.9043C14.1113-76.9043 9.76562-72.6562 9.76562-64.6973L9.76562-20.166C9.76562-12.1582 14.1113-7.91016 22.0215-7.91016ZM21.3379-27.5391C20.3613-27.5391 19.873-27.9297 19.873-29.0039L19.873-63.5742C19.873-65.918 20.8984-66.7969 23.1445-66.7969L93.1152-66.7969C95.3613-66.7969 96.3867-65.918 96.3867-63.5742L96.3867-29.0039C96.3867-27.9297 95.8984-27.5391 94.9219-27.5391ZM58.1543-11.8652C55.8105-11.8652 53.9062-13.7695 53.9062-16.0645C53.9062-18.4082 55.8105-20.3125 58.1543-20.3125C60.4492-20.3125 62.3535-18.4082 62.3535-16.0645C62.3535-13.7695 60.4492-11.8652 58.1543-11.8652Z"/>
  </g>
  <g id="Semibold-S" transform="matrix(1 0 0 1 1985.92 696)">
   <path d="M21.3379-8.69141L44.9707-8.69141L43.9941-2.49023L40.0391-2.49023C37.793-2.49023 35.9375-0.585938 35.9375 1.61133C35.9375 3.80859 37.793 5.71289 40.0391 5.71289L74.6582 5.71289C76.9043 5.71289 78.7109 3.80859 78.7109 1.61133C78.7109-0.585938 76.9043-2.49023 74.6582-2.49023L70.6543-2.49023L69.7266-8.69141L93.3594-8.69141C100.879-8.69141 104.932-12.5488 104.932-20.2148L104.932-64.4531C104.932-72.1191 100.879-76.0254 93.3594-76.0254L21.3379-76.0254C13.7695-76.0254 9.76562-72.1191 9.76562-64.4531L9.76562-20.2148C9.76562-12.5488 13.7695-8.69141 21.3379-8.69141ZM20.2637-27.4902C19.2383-27.4902 18.75-27.8809 18.75-29.0039L18.75-63.7207C18.75-66.1133 19.7754-67.041 22.0703-67.041L92.627-67.041C94.9219-67.041 95.8984-66.1133 95.8984-63.7207L95.8984-29.0039C95.8984-27.8809 95.459-27.4902 94.4336-27.4902ZM57.3242-12.5488C55.127-12.5488 53.2715-14.4043 53.2715-16.6016C53.2715-18.7988 55.127-20.6543 57.3242-20.6543C59.5703-20.6543 61.377-18.7988 61.377-16.6016C61.377-14.4043 59.5703-12.5488 57.3242-12.5488Z"/>
  </g>
  <g id="Medium-S" transform="matrix(1 0 0 1 1689.82 696)">
   <path d="M20.8008-9.22852L44.5312-9.22852L43.5547-2.7832L39.3555-2.7832C37.207-2.7832 35.498-1.02539 35.498 1.07422C35.498 3.17383 37.207 4.93164 39.3555 4.93164L74.1211 4.93164C76.2695 4.93164 77.9785 3.17383 77.9785 1.07422C77.9785-1.02539 76.2695-2.7832 74.1211-2.7832L69.9219-2.7832L68.9453-9.22852L92.6758-9.22852C99.9512-9.22852 103.711-12.8906 103.711-20.3125L103.711-64.3066C103.711-71.7285 99.9512-75.3418 92.6758-75.3418L20.8008-75.3418C13.5254-75.3418 9.76562-71.7285 9.76562-64.3066L9.76562-20.3125C9.76562-12.8906 13.5254-9.22852 20.8008-9.22852ZM19.4336-27.4414C18.3594-27.4414 17.9199-27.8809 17.9199-28.9551L17.9199-63.8184C17.9199-66.3086 18.9453-67.1875 21.2891-67.1875L92.1875-67.1875C94.5312-67.1875 95.5566-66.3086 95.5566-63.8184L95.5566-28.9551C95.5566-27.8809 95.1172-27.4414 94.043-27.4414ZM56.7383-13.0859C54.5898-13.0859 52.832-14.8926 52.832-16.9922C52.832-19.1406 54.5898-20.9473 56.7383-20.9473C58.8867-20.9473 60.6445-19.1406 60.6445-16.9922C60.6445-14.8926 58.8867-13.0859 56.7383-13.0859Z"/>
  </g>
  <g id="Regular-S" transform="matrix(1 0 0 1 1393.89 696)">
   <path d="M20.1172-10.0098L43.9941-10.0098L42.9199-3.17383L38.4277-3.17383C36.5234-3.17383 34.9121-1.61133 34.9121 0.390625C34.9121 2.29492 36.5234 3.90625 38.4277 3.90625L73.4863 3.90625C75.4395 3.90625 77.002 2.29492 77.002 0.390625C77.002-1.61133 75.4395-3.17383 73.4863-3.17383L68.9941-3.17383L67.9688-10.0098L91.7969-10.0098C98.6816-10.0098 102.148-13.2812 102.148-20.3613L102.148-64.0625C102.148-71.1914 98.6816-74.4629 91.7969-74.4629L20.1172-74.4629C13.2324-74.4629 9.76562-71.1914 9.76562-64.0625L9.76562-20.3613C9.76562-13.2812 13.2324-10.0098 20.1172-10.0098ZM18.3594-27.3926C17.2852-27.3926 16.7969-27.832 16.7969-28.9551L16.7969-63.9648C16.7969-66.5039 17.8223-67.4316 20.2148-67.4316L91.6992-67.4316C94.0918-67.4316 95.1172-66.5039 95.1172-63.9648L95.1172-28.9551C95.1172-27.832 94.6777-27.3926 93.5547-27.3926ZM55.957-13.7695C53.9551-13.7695 52.1973-15.4785 52.1973-17.5293C52.1973-19.5312 53.9551-21.2402 55.957-21.2402C57.959-21.2402 59.7168-19.5312 59.7168-17.5293C59.7168-15.4785 57.959-13.7695 55.957-13.7695Z"/>
  </g>
  <g id="Light-S" transform="matrix(1 0 0 1 1098.27 696)">
   <path d="M19.1406-10.5469L43.1641-10.5469L42.041-2.68555L37.8906-2.68555C36.377-2.68555 35.1562-1.46484 35.1562 0.0488281C35.1562 1.5625 36.377 2.7832 37.8906 2.7832L71.8262 2.7832C73.3398 2.7832 74.5605 1.5625 74.5605 0.0488281C74.5605-1.46484 73.3398-2.68555 71.8262-2.68555L67.6758-2.68555L66.5527-10.5469L90.5762-10.5469C96.8262-10.5469 99.9512-13.5742 99.9512-19.9219L99.9512-63.8672C99.9512-70.2637 96.8262-73.2422 90.5762-73.2422L19.1406-73.2422C12.8906-73.2422 9.76562-70.2637 9.76562-63.8672L9.76562-19.9219C9.76562-13.5742 12.8906-10.5469 19.1406-10.5469ZM16.9434-26.9043C15.7227-26.9043 15.1855-27.3926 15.1855-28.6621L15.1855-63.7695C15.1855-66.6504 16.4551-67.8223 19.2383-67.8223L90.4785-67.8223C93.2617-67.8223 94.5312-66.6504 94.5312-63.7695L94.5312-28.6621C94.5312-27.3926 93.9941-26.9043 92.7734-26.9043ZM54.8828-14.3555C52.9785-14.3555 51.4648-15.8691 51.4648-17.7246C51.4648-19.5312 52.9785-21.0938 54.8828-21.0938C56.6895-21.0938 58.252-19.5312 58.252-17.7246C58.252-15.8691 56.6895-14.3555 54.8828-14.3555Z"/>
  </g>
  <g id="Thin-S" transform="matrix(1 0 0 1 803.004 696)">
   <path d="M17.8223-11.2793L42.0898-11.2793L40.8691-2.05078L37.1582-2.05078C36.1816-2.05078 35.4492-1.31836 35.4492-0.341797C35.4492 0.585938 36.1816 1.26953 37.1582 1.26953L69.6777 1.26953C70.6055 1.26953 71.3867 0.585938 71.3867-0.341797C71.3867-1.31836 70.6055-2.05078 69.6777-2.05078L65.918-2.05078L64.6973-11.2793L89.0137-11.2793C94.3359-11.2793 97.0703-13.916 97.0703-19.3359L97.0703-63.623C97.0703-69.043 94.3359-71.6797 89.0137-71.6797L17.8223-71.6797C12.5-71.6797 9.76562-69.043 9.76562-63.623L9.76562-19.3359C9.76562-13.916 12.5-11.2793 17.8223-11.2793ZM15.0391-26.2695C13.7207-26.2695 13.0859-26.9043 13.0859-28.2715L13.0859-63.5254C13.0859-66.8457 14.6484-68.4082 17.9688-68.4082L88.8672-68.4082C92.1387-68.4082 93.75-66.8457 93.75-63.5254L93.75-28.2715C93.75-26.9043 93.1152-26.2695 91.748-26.2695ZM53.418-15.1367C51.7578-15.1367 50.5371-16.3574 50.5371-18.0176C50.5371-19.5801 51.7578-20.9473 53.418-20.9473C54.9316-20.9473 56.2988-19.5801 56.2988-18.0176C56.2988-16.3574 54.9316-15.1367 53.418-15.1367Z"/>
  </g>
  <g id="Ultralight-S" transform="matrix(1 0 0 1 507.05 696)">
   <path d="M17.1387-11.6211L41.5527-11.6211L40.2832-1.70898L36.7676-1.70898C36.084-1.70898 35.5957-1.2207 35.5957-0.585938C35.5957 0.0488281 36.084 0.537109 36.7676 0.537109L68.5547 0.537109C69.2383 0.537109 69.7266 0.0488281 69.7266-0.585938C69.7266-1.2207 69.2383-1.70898 68.5547-1.70898L65.0391-1.70898L63.7695-11.6211L88.1836-11.6211C93.0664-11.6211 95.5566-14.1113 95.5566-18.9941L95.5566-63.5254C95.5566-68.4082 93.0664-70.8984 88.1836-70.8984L17.1387-70.8984C12.2559-70.8984 9.76562-68.4082 9.76562-63.5254L9.76562-18.9941C9.76562-14.1113 12.2559-11.6211 17.1387-11.6211ZM14.1113-25.9766C12.6953-25.9766 11.9629-26.6113 11.9629-28.0762L11.9629-63.4277C11.9629-66.9434 13.7207-68.7012 17.2852-68.7012L88.0371-68.7012C91.6016-68.7012 93.3594-66.9434 93.3594-63.4277L93.3594-28.0762C93.3594-26.6113 92.627-25.9766 91.2109-25.9766ZM52.6855-15.5273C51.123-15.5273 50-16.6504 50-18.1641C50-19.5801 51.123-20.8008 52.6855-20.8008C54.0527-20.8008 55.3223-19.5801 55.3223-18.1641C55.3223-16.6504 54.0527-15.5273 52.6855-15.5273Z"/>
  </g>
 </g>
</svg>
