<?xml version="1.0" encoding="UTF-8"?>
<!--Generator: Apple Native CoreSVG 149-->
<!DOCTYPE svg
PUBLIC "-//W3C//DTD SVG 1.1//EN"
       "http://www.w3.org/Graphics/SVG/1.1/DTD/svg11.dtd">
<svg version="1.1" xmlns="http://www.w3.org/2000/svg" xmlns:xlink="http://www.w3.org/1999/xlink" width="3300" height="2200">
 <!--glyph: "uni100A27.medium", point size: 100.000000, font version: "Version 16.0d18e1", template writer version: "8"-->
 <g id="Notes">
  <rect height="2200" id="artboard" style="fill:white;opacity:1" width="3300" x="0" y="0"/>
  <line id="" style="fill:none;stroke:black;opacity:1;stroke-width:0.5;" x1="263" x2="3036" y1="292" y2="292"/>
  <text style="stroke:none;fill:black;font-family:-apple-system,&quot;SF Pro Display&quot;,&quot;SF Pro Text&quot;,Helvetica,sans-serif;font-weight:bold;" transform="matrix(1 0 0 1 263 322)">Weight/Scale Variations</text>
  <text style="stroke:none;fill:black;font-family:-apple-system,&quot;SF Pro Display&quot;,&quot;SF Pro Text&quot;,Helvetica,sans-serif;text-anchor:middle;" transform="matrix(1 0 0 1 559.711 322)">Ultralight</text>
  <text style="stroke:none;fill:black;font-family:-apple-system,&quot;SF Pro Display&quot;,&quot;SF Pro Text&quot;,Helvetica,sans-serif;text-anchor:middle;" transform="matrix(1 0 0 1 856.422 322)">Thin</text>
  <text style="stroke:none;fill:black;font-family:-apple-system,&quot;SF Pro Display&quot;,&quot;SF Pro Text&quot;,Helvetica,sans-serif;text-anchor:middle;" transform="matrix(1 0 0 1 1153.13 322)">Light</text>
  <text style="stroke:none;fill:black;font-family:-apple-system,&quot;SF Pro Display&quot;,&quot;SF Pro Text&quot;,Helvetica,sans-serif;text-anchor:middle;" transform="matrix(1 0 0 1 1449.84 322)">Regular</text>
  <text style="stroke:none;fill:black;font-family:-apple-system,&quot;SF Pro Display&quot;,&quot;SF Pro Text&quot;,Helvetica,sans-serif;text-anchor:middle;" transform="matrix(1 0 0 1 1746.56 322)">Medium</text>
  <text style="stroke:none;fill:black;font-family:-apple-system,&quot;SF Pro Display&quot;,&quot;SF Pro Text&quot;,Helvetica,sans-serif;text-anchor:middle;" transform="matrix(1 0 0 1 2043.27 322)">Semibold</text>
  <text style="stroke:none;fill:black;font-family:-apple-system,&quot;SF Pro Display&quot;,&quot;SF Pro Text&quot;,Helvetica,sans-serif;text-anchor:middle;" transform="matrix(1 0 0 1 2339.98 322)">Bold</text>
  <text style="stroke:none;fill:black;font-family:-apple-system,&quot;SF Pro Display&quot;,&quot;SF Pro Text&quot;,Helvetica,sans-serif;text-anchor:middle;" transform="matrix(1 0 0 1 2636.69 322)">Heavy</text>
  <text style="stroke:none;fill:black;font-family:-apple-system,&quot;SF Pro Display&quot;,&quot;SF Pro Text&quot;,Helvetica,sans-serif;text-anchor:middle;" transform="matrix(1 0 0 1 2933.4 322)">Black</text>
  <line id="" style="fill:none;stroke:black;opacity:1;stroke-width:0.5;" x1="263" x2="3036" y1="1903" y2="1903"/>
  <g id="" transform="matrix(1 0 0 1 263 1933)">
   <path d="M9.24805 0.830078C13.5547 0.830078 17.1387-2.74414 17.1387-7.05078C17.1387-11.3574 13.5449-14.9316 9.23828-14.9316C4.94141-14.9316 1.36719-11.3574 1.36719-7.05078C1.36719-2.74414 4.95117 0.830078 9.24805 0.830078ZM9.24805-0.654297C5.70312-0.654297 2.87109-3.49609 2.87109-7.05078C2.87109-10.6055 5.69336-13.4473 9.23828-13.4473C12.793-13.4473 15.6348-10.6055 15.6445-7.05078C15.6543-3.49609 12.8027-0.654297 9.24805-0.654297ZM6.39648-6.31836L8.50586-6.31836L8.50586-4.19922C8.50586-3.75977 8.79883-3.45703 9.22852-3.45703C9.67773-3.45703 9.9707-3.75977 9.9707-4.19922L9.9707-6.31836L12.0996-6.31836C12.5391-6.31836 12.8418-6.61133 12.8418-7.04102C12.8418-7.48047 12.5391-7.7832 12.0996-7.7832L9.9707-7.7832L9.9707-9.89258C9.9707-10.3418 9.67773-10.6445 9.22852-10.6445C8.79883-10.6445 8.50586-10.3418 8.50586-9.89258L8.50586-7.7832L6.39648-7.7832C5.94727-7.7832 5.64453-7.48047 5.64453-7.04102C5.64453-6.61133 5.94727-6.31836 6.39648-6.31836Z"/>
  </g>
  <g id="" transform="matrix(1 0 0 1 281.506 1933)">
   <path d="M11.709 2.91016C17.1582 2.91016 21.6699-1.61133 21.6699-7.05078C21.6699-12.5 17.1484-17.0117 11.6992-17.0117C6.25977-17.0117 1.74805-12.5 1.74805-7.05078C1.74805-1.61133 6.26953 2.91016 11.709 2.91016ZM11.709 1.25C7.09961 1.25 3.41797-2.44141 3.41797-7.05078C3.41797-11.6602 7.08984-15.3516 11.6992-15.3516C16.3086-15.3516 20-11.6602 20.0098-7.05078C20.0195-2.44141 16.3184 1.25 11.709 1.25ZM7.98828-6.23047L10.8789-6.23047L10.8789-3.32031C10.8789-2.83203 11.2109-2.5 11.6895-2.5C12.1777-2.5 12.5195-2.83203 12.5195-3.32031L12.5195-6.23047L15.4297-6.23047C15.918-6.23047 16.25-6.5625 16.25-7.04102C16.25-7.5293 15.918-7.87109 15.4297-7.87109L12.5195-7.87109L12.5195-10.7617C12.5195-11.2695 12.1777-11.6016 11.6895-11.6016C11.2109-11.6016 10.8789-11.2598 10.8789-10.7617L10.8789-7.87109L7.98828-7.87109C7.48047-7.87109 7.14844-7.5293 7.14844-7.04102C7.14844-6.5625 7.49023-6.23047 7.98828-6.23047Z"/>
  </g>
  <g id="" transform="matrix(1 0 0 1 304.924 1933)">
   <path d="M14.9707 5.66406C21.9336 5.66406 27.6953-0.0976562 27.6953-7.05078C27.6953-14.0137 21.9238-19.7754 14.9609-19.7754C8.00781-19.7754 2.25586-14.0137 2.25586-7.05078C2.25586-0.0976562 8.01758 5.66406 14.9707 5.66406ZM14.9707 3.84766C8.93555 3.84766 4.08203-1.01562 4.08203-7.05078C4.08203-13.0957 8.92578-17.9492 14.9609-17.9492C21.0059-17.9492 25.8594-13.0957 25.8691-7.05078C25.8789-1.01562 21.0156 3.84766 14.9707 3.84766ZM10.0586-6.14258L14.0625-6.14258L14.0625-2.12891C14.0625-1.5918 14.4336-1.2207 14.9512-1.2207C15.4883-1.2207 15.8594-1.5918 15.8594-2.12891L15.8594-6.14258L19.8828-6.14258C20.4102-6.14258 20.791-6.51367 20.791-7.03125C20.791-7.56836 20.4199-7.94922 19.8828-7.94922L15.8594-7.94922L15.8594-11.9531C15.8594-12.5098 15.4883-12.8809 14.9512-12.8809C14.4336-12.8809 14.0625-12.5 14.0625-11.9531L14.0625-7.94922L10.0586-7.94922C9.50195-7.94922 9.13086-7.56836 9.13086-7.03125C9.13086-6.51367 9.51172-6.14258 10.0586-6.14258Z"/>
  </g>
  <text style="stroke:none;fill:black;font-family:-apple-system,&quot;SF Pro Display&quot;,&quot;SF Pro Text&quot;,Helvetica,sans-serif;font-weight:bold;" transform="matrix(1 0 0 1 263 1953)">Design Variations</text>
  <text style="stroke:none;fill:black;font-family:-apple-system,&quot;SF Pro Display&quot;,&quot;SF Pro Text&quot;,Helvetica,sans-serif;" transform="matrix(1 0 0 1 263 1971)">Symbols are supported in up to nine weights and three scales.</text>
  <text style="stroke:none;fill:black;font-family:-apple-system,&quot;SF Pro Display&quot;,&quot;SF Pro Text&quot;,Helvetica,sans-serif;" transform="matrix(1 0 0 1 263 1989)">For optimal layout with text and other symbols, vertically align</text>
  <text style="stroke:none;fill:black;font-family:-apple-system,&quot;SF Pro Display&quot;,&quot;SF Pro Text&quot;,Helvetica,sans-serif;" transform="matrix(1 0 0 1 263 2007)">symbols with the adjacent text.</text>
  <line id="" style="fill:none;stroke:#00AEEF;stroke-width:0.5;opacity:1.0;" x1="776" x2="776" y1="1919" y2="1933"/>
  <g id="" transform="matrix(1 0 0 1 776 1933)">
   <path d="M3.31055 0.126953C3.82812 0.126953 4.08203-0.0683594 4.26758-0.605469L5.52734-4.0625L11.2891-4.0625L12.5488-0.605469C12.7344-0.0683594 12.9883 0.126953 13.4961 0.126953C14.0137 0.126953 14.3457-0.185547 14.3457-0.673828C14.3457-0.839844 14.3164-0.986328 14.2383-1.20117L9.6582-13.3887C9.43359-13.9941 9.0332-14.2871 8.4082-14.2871C7.80273-14.2871 7.39258-13.9941 7.17773-13.3984L2.59766-1.19141C2.51953-0.976562 2.49023-0.830078 2.49023-0.664062C2.49023-0.175781 2.80273 0.126953 3.31055 0.126953ZM6.00586-5.53711L8.37891-12.1094L8.42773-12.1094L10.8008-5.53711Z"/>
  </g>
  <line id="" style="fill:none;stroke:#00AEEF;stroke-width:0.5;opacity:1.0;" x1="792.836" x2="792.836" y1="1919" y2="1933"/>
  <text style="stroke:none;fill:black;font-family:-apple-system,&quot;SF Pro Display&quot;,&quot;SF Pro Text&quot;,Helvetica,sans-serif;font-weight:bold;" transform="matrix(1 0 0 1 776 1953)">Margins</text>
  <text style="stroke:none;fill:black;font-family:-apple-system,&quot;SF Pro Display&quot;,&quot;SF Pro Text&quot;,Helvetica,sans-serif;" transform="matrix(1 0 0 1 776 1971)">Leading and trailing margins on the left and right side of each symbol</text>
  <text style="stroke:none;fill:black;font-family:-apple-system,&quot;SF Pro Display&quot;,&quot;SF Pro Text&quot;,Helvetica,sans-serif;" transform="matrix(1 0 0 1 776 1989)">can be adjusted by modifying the x-location of the margin guidelines.</text>
  <text style="stroke:none;fill:black;font-family:-apple-system,&quot;SF Pro Display&quot;,&quot;SF Pro Text&quot;,Helvetica,sans-serif;" transform="matrix(1 0 0 1 776 2007)">Modifications are automatically applied proportionally to all</text>
  <text style="stroke:none;fill:black;font-family:-apple-system,&quot;SF Pro Display&quot;,&quot;SF Pro Text&quot;,Helvetica,sans-serif;" transform="matrix(1 0 0 1 776 2025)">scales and weights.</text>
  <g id="" transform="matrix(1 0 0 1 1289 1933)">
   <path d="M2.8418 1.86523L4.54102 3.57422C5.40039 4.44336 6.38672 4.38477 7.31445 3.35938L17.4902-7.85156C17.7539-7.76367 18.0273-7.7832 18.3398-7.8418L19.4043-8.03711L20.0684-7.36328L20.0293-6.80664C19.9902-6.30859 20.1172-5.92773 20.6055-5.44922L21.3672-4.70703C21.8457-4.22852 22.4609-4.19922 22.9297-4.66797L25.8398-7.58789C26.3086-8.05664 26.2891-8.65234 25.8105-9.13086L25.0391-9.89258C24.5605-10.3711 24.1895-10.5273 23.7109-10.4883L23.1348-10.4395L22.4902-11.0742L22.7344-12.1973C22.8613-12.7637 22.7051-13.2031 22.1191-13.7891L19.9219-15.9766C16.582-19.2969 12.1484-19.2188 9.25781-16.3281C8.83789-15.918 8.80859-15.3418 9.04297-14.9512C9.27734-14.5898 9.73633-14.3555 10.3809-14.5215C11.8457-14.8633 13.3691-14.9219 14.7949-13.9844L14.209-12.5293C14.0137-12.0508 13.9844-11.6504 14.1113-11.2891L3.04688-0.898438C2.06055 0.0195312 1.98242 0.996094 2.8418 1.86523ZM10.752-15.957C13.1836-17.7344 16.4746-17.4316 18.7012-15.2051L21.1328-12.793C21.3672-12.5586 21.4062-12.373 21.3379-12.0312L21.0156-10.5469L22.5195-9.0625L23.5059-9.12109C23.7598-9.13086 23.8379-9.11133 24.0332-8.91602L24.6094-8.33984L22.168-5.89844L21.5918-6.47461C21.3965-6.66992 21.3672-6.74805 21.377-7.01172L21.4453-7.98828L19.9512-9.47266L18.4277-9.21875C18.1055-9.15039 17.959-9.17969 17.7148-9.41406L15.7129-11.416C15.459-11.6504 15.4297-11.8164 15.5859-12.1875L16.4648-14.2773C14.9023-15.7324 12.8711-16.3574 10.8398-15.7617C10.6836-15.7227 10.625-15.8496 10.752-15.957ZM5.27344 2.30469L4.10156 1.14258C3.63281 0.683594 3.74023 0.341797 4.14062-0.0195312L14.9512-10.1953L16.416-8.71094L6.42578 2.27539C6.07422 2.67578 5.74219 2.77344 5.27344 2.30469Z"/>
  </g>
  <text style="stroke:none;fill:black;font-family:-apple-system,&quot;SF Pro Display&quot;,&quot;SF Pro Text&quot;,Helvetica,sans-serif;font-weight:bold;" transform="matrix(1 0 0 1 1289 1953)">Exporting</text>
  <text style="stroke:none;fill:black;font-family:-apple-system,&quot;SF Pro Display&quot;,&quot;SF Pro Text&quot;,Helvetica,sans-serif;" transform="matrix(1 0 0 1 1289 1971)">Symbols should be outlined when exporting to ensure the</text>
  <text style="stroke:none;fill:black;font-family:-apple-system,&quot;SF Pro Display&quot;,&quot;SF Pro Text&quot;,Helvetica,sans-serif;" transform="matrix(1 0 0 1 1289 1989)">design is preserved when submitting to Xcode.</text>
  <text id="template-version" style="stroke:none;fill:black;font-family:-apple-system,&quot;SF Pro Display&quot;,&quot;SF Pro Text&quot;,Helvetica,sans-serif;text-anchor:end;" transform="matrix(1 0 0 1 3036 1933)">Template v.2.0</text>
  <text style="stroke:none;fill:black;font-family:-apple-system,&quot;SF Pro Display&quot;,&quot;SF Pro Text&quot;,Helvetica,sans-serif;text-anchor:end;" transform="matrix(1 0 0 1 3036 1951)">Requires Xcode 12 or greater</text>
  <text style="stroke:none;fill:black;font-family:-apple-system,&quot;SF Pro Display&quot;,&quot;SF Pro Text&quot;,Helvetica,sans-serif;text-anchor:end;" transform="matrix(1 0 0 1 3036 1969)">Generated from display.2</text>
  <text style="stroke:none;fill:black;font-family:-apple-system,&quot;SF Pro Display&quot;,&quot;SF Pro Text&quot;,Helvetica,sans-serif;text-anchor:end;" transform="matrix(1 0 0 1 3036 1987)">Typeset at 100 points</text>
  <text style="stroke:none;fill:black;font-family:-apple-system,&quot;SF Pro Display&quot;,&quot;SF Pro Text&quot;,Helvetica,sans-serif;" transform="matrix(1 0 0 1 263 726)">Small</text>
  <text style="stroke:none;fill:black;font-family:-apple-system,&quot;SF Pro Display&quot;,&quot;SF Pro Text&quot;,Helvetica,sans-serif;" transform="matrix(1 0 0 1 263 1156)">Medium</text>
  <text style="stroke:none;fill:black;font-family:-apple-system,&quot;SF Pro Display&quot;,&quot;SF Pro Text&quot;,Helvetica,sans-serif;" transform="matrix(1 0 0 1 263 1586)">Large</text>
 </g>
 <g id="Guides">
  <g id="H-reference" style="fill:#27AAE1;stroke:none;" transform="matrix(1 0 0 1 339 696)">
   <path d="M0.976562 0L3.66211 0L12.9883-24.4629L45.752-24.4629L55.127 0L57.7637 0L30.6152-70.459L28.125-70.459ZM29.3457-67.1387L29.4434-67.1387L44.873-26.709L13.8672-26.709Z"/>
  </g>
  <line id="Baseline-S" style="fill:none;stroke:#27AAE1;opacity:1;stroke-width:0.5;" x1="263" x2="3036" y1="696" y2="696"/>
  <line id="Capline-S" style="fill:none;stroke:#27AAE1;opacity:1;stroke-width:0.5;" x1="263" x2="3036" y1="625.541" y2="625.541"/>
  <g id="H-reference" style="fill:#27AAE1;stroke:none;" transform="matrix(1 0 0 1 339 1126)">
   <path d="M0.976562 0L3.66211 0L12.9883-24.4629L45.752-24.4629L55.127 0L57.7637 0L30.6152-70.459L28.125-70.459ZM29.3457-67.1387L29.4434-67.1387L44.873-26.709L13.8672-26.709Z"/>
  </g>
  <line id="Baseline-M" style="fill:none;stroke:#27AAE1;opacity:1;stroke-width:0.5;" x1="263" x2="3036" y1="1126" y2="1126"/>
  <line id="Capline-M" style="fill:none;stroke:#27AAE1;opacity:1;stroke-width:0.5;" x1="263" x2="3036" y1="1055.54" y2="1055.54"/>
  <g id="H-reference" style="fill:#27AAE1;stroke:none;" transform="matrix(1 0 0 1 339 1556)">
   <path d="M0.976562 0L3.66211 0L12.9883-24.4629L45.752-24.4629L55.127 0L57.7637 0L30.6152-70.459L28.125-70.459ZM29.3457-67.1387L29.4434-67.1387L44.873-26.709L13.8672-26.709Z"/>
  </g>
  <line id="Baseline-L" style="fill:none;stroke:#27AAE1;opacity:1;stroke-width:0.5;" x1="263" x2="3036" y1="1556" y2="1556"/>
  <line id="Capline-L" style="fill:none;stroke:#27AAE1;opacity:1;stroke-width:0.5;" x1="263" x2="3036" y1="1485.54" y2="1485.54"/>
  <line id="left-margin" style="fill:none;stroke:#00AEEF;stroke-width:0.5;opacity:1.0;" x1="1358.8" x2="1358.8" y1="1030.79" y2="1150.12"/>
  <line id="right-margin" style="fill:none;stroke:#00AEEF;stroke-width:0.5;opacity:1.0;" x1="1540.88" x2="1540.88" y1="1030.79" y2="1150.12"/>
 </g>
 <g id="Symbols">
  <g id="Black-L" transform="matrix(1 0 0 1 2810.21 1556)">
   <path d="M70.0684 36.084L124.805 36.084C129.248 36.084 132.812 32.3242 132.812 28.125C132.812 23.9258 129.248 20.166 124.805 20.166L120.02 20.166L118.994 13.4766C121.973 14.7949 125.537 15.4785 129.59 15.4785L153.711 15.4785L152.979 20.166L149.365 20.166C144.922 20.166 141.357 23.9258 141.357 28.125C141.357 32.3242 144.922 36.084 149.365 36.084L188.916 36.084C193.408 36.084 196.924 32.3242 196.924 28.125C196.924 23.9258 193.408 20.166 188.916 20.166L185.303 20.166L184.57 15.4785L208.691 15.4785C222.51 15.4785 230.322 7.71484 230.322-6.15234L230.322-50.1465C230.322-64.0137 222.51-71.7773 208.691-71.7773L178.809-71.7773L178.809-84.1797C178.809-98.0957 170.947-105.811 157.178-105.811L37.6953-105.811C23.877-105.811 16.0645-98.0957 16.0645-84.1797L16.0645-10.2539C16.0645 3.61328 23.877 11.377 37.6953 11.377L76.1719 11.377L74.8047 20.166L70.0684 20.166C65.5762 20.166 62.0117 23.9258 62.0117 28.125C62.0117 32.3242 65.5762 36.084 70.0684 36.084ZM40.332-7.71484C36.8164-7.71484 35.1562-9.08203 35.1562-12.8906L35.1562-81.5918C35.1562-85.3516 36.8164-86.7676 40.332-86.7676L154.541-86.7676C158.057-86.7676 159.717-85.3516 159.717-81.5918L159.717-71.7773L129.59-71.7773C115.771-71.7773 107.959-64.0137 107.959-50.1465L107.959-7.71484ZM127.002-8.78906L127.002-47.5098C127.002-51.3184 128.711-52.6855 132.227-52.6855L206.104-52.6855C209.619-52.6855 211.279-51.3184 211.279-47.5098L211.279-8.78906C211.279-4.98047 209.619-3.61328 206.104-3.61328L132.227-3.61328C128.711-3.61328 127.002-4.98047 127.002-8.78906Z"/>
  </g>
  <g id="Heavy-L" transform="matrix(1 0 0 1 2515.18 1556)">
   <path d="M68.5547 33.9844L122.852 33.9844C126.855 33.9844 130.029 30.6152 130.029 26.9043C130.029 23.0957 126.855 19.7754 122.852 19.7754L117.725 19.7754L116.65 12.6953C119.385 13.8184 122.559 14.3555 126.172 14.3555L151.514 14.3555L150.684 19.7754L146.533 19.7754C142.529 19.7754 139.355 23.0957 139.355 26.9043C139.355 30.6152 142.529 33.9844 146.533 33.9844L186.475 33.9844C190.43 33.9844 193.604 30.6152 193.604 26.9043C193.604 23.0957 190.43 19.7754 186.475 19.7754L182.324 19.7754L181.494 14.3555L206.787 14.3555C219.727 14.3555 226.953 7.27539 226.953-5.76172L226.953-50.7324C226.953-63.8184 219.727-70.8984 206.787-70.8984L175.342-70.8984L175.342-83.7891C175.342-96.8262 168.164-103.906 155.225-103.906L36.1816-103.906C23.2422-103.906 16.0645-96.8262 16.0645-83.7891L16.0645-10.2051C16.0645 2.88086 23.2422 9.96094 36.1816 9.96094L75.1465 9.96094L73.6816 19.7754L68.5547 19.7754C64.5996 19.7754 61.4258 23.0957 61.4258 26.9043C61.4258 30.6152 64.5996 33.9844 68.5547 33.9844ZM38.2324-6.68945C34.4727-6.68945 32.666-8.20312 32.666-12.207L32.666-81.7383C32.666-85.7422 34.4727-87.3047 38.2324-87.3047L153.174-87.3047C156.982-87.3047 158.74-85.7422 158.74-81.7383L158.74-70.8984L126.172-70.8984C113.232-70.8984 106.055-63.8184 106.055-50.7324L106.055-6.68945ZM122.656-7.8125L122.656-48.7305C122.656-52.7344 124.463-54.2969 128.223-54.2969L204.785-54.2969C208.545-54.2969 210.303-52.7344 210.303-48.7305L210.303-7.8125C210.303-3.75977 208.545-2.24609 204.785-2.24609L128.223-2.24609C124.463-2.24609 122.656-3.75977 122.656-7.8125Z"/>
  </g>
  <g id="Bold-L" transform="matrix(1 0 0 1 2220.37 1556)">
   <path d="M66.8945 31.6406L120.654 31.6406C124.121 31.6406 126.855 28.7598 126.855 25.4883C126.855 22.168 124.121 19.2871 120.654 19.2871L115.137 19.2871L114.062 11.8164C116.455 12.6953 119.238 13.1348 122.412 13.1348L149.072 13.1348L148.145 19.2871L143.359 19.2871C139.941 19.2871 137.158 22.168 137.158 25.4883C137.158 28.7598 139.941 31.6406 143.359 31.6406L183.74 31.6406C187.158 31.6406 189.893 28.7598 189.893 25.4883C189.893 22.168 187.158 19.2871 183.74 19.2871L178.955 19.2871L178.027 13.1348L204.688 13.1348C216.65 13.1348 223.145 6.83594 223.145-5.32227L223.145-51.4648C223.145-63.5742 216.65-69.9219 204.688-69.9219L171.484-69.9219L171.484-83.3008C171.484-95.4102 165.039-101.758 153.076-101.758L34.5215-101.758C22.5586-101.758 16.0645-95.4102 16.0645-83.3008L16.0645-10.1074C16.0645 2.00195 22.5586 8.34961 34.5215 8.34961L74.0234 8.34961L72.4121 19.2871L66.8945 19.2871C63.4766 19.2871 60.6934 22.168 60.6934 25.4883C60.6934 28.7598 63.4766 31.6406 66.8945 31.6406ZM35.9375-5.51758C31.8359-5.51758 29.9316-7.22656 29.9316-11.4746L29.9316-81.9336C29.9316-86.1816 31.8359-87.8906 35.9375-87.8906L151.66-87.8906C155.762-87.8906 157.617-86.1816 157.617-81.9336L157.617-69.9219L122.412-69.9219C110.4-69.9219 103.955-63.5742 103.955-51.4648L103.955-5.51758ZM117.822-6.68945L117.822-50.0488C117.822-54.3457 119.727-56.0547 123.779-56.0547L203.271-56.0547C207.373-56.0547 209.277-54.3457 209.277-50.0488L209.277-6.68945C209.277-2.39258 207.373-0.732422 203.271-0.732422L123.779-0.732422C119.727-0.732422 117.822-2.39258 117.822-6.68945Z"/>
  </g>
  <g id="Semibold-L" transform="matrix(1 0 0 1 1924.98 1556)">
   <path d="M65.7227 29.9805L119.189 29.9805C122.217 29.9805 124.707 27.4902 124.707 24.5117C124.707 21.5332 122.217 18.9941 119.189 18.9941L113.379 18.9941L112.256 11.1816C114.404 11.9141 116.943 12.3047 119.775 12.3047L147.363 12.3047L146.387 18.9941L141.162 18.9941C138.135 18.9941 135.645 21.5332 135.645 24.5117C135.645 27.4902 138.135 29.9805 141.162 29.9805L181.836 29.9805C184.863 29.9805 187.354 27.4902 187.354 24.5117C187.354 21.5332 184.863 18.9941 181.836 18.9941L176.611 18.9941L175.635 12.3047L203.223 12.3047C214.551 12.3047 220.508 6.49414 220.508-4.98047L220.508-51.9531C220.508-63.4277 214.551-69.2383 203.223-69.2383L168.848-69.2383L168.848-82.959C168.848-94.4336 162.891-100.244 151.562-100.244L33.3496-100.244C22.0215-100.244 16.0645-94.4336 16.0645-82.959L16.0645-10.0586C16.0645 1.41602 22.0215 7.22656 33.3496 7.22656L73.2422 7.22656L71.5332 18.9941L65.7227 18.9941C62.6953 18.9941 60.2051 21.5332 60.2051 24.5117C60.2051 27.4902 62.6953 29.9805 65.7227 29.9805ZM102.49-4.98047L102.49-4.73633L34.3262-4.73633C30.0293-4.73633 28.0273-6.54297 28.0273-10.9863L28.0273-82.0312C28.0273-86.4746 30.0293-88.2812 34.3262-88.2812L150.586-88.2812C154.883-88.2812 156.885-86.4746 156.885-82.0312L156.885-69.2383L119.775-69.2383C108.447-69.2383 102.49-63.4277 102.49-51.9531ZM114.453-5.9082L114.453-50.9766C114.453-55.4199 116.455-57.2754 120.752-57.2754L202.246-57.2754C206.543-57.2754 208.545-55.4199 208.545-50.9766L208.545-5.9082C208.545-1.46484 206.543 0.341797 202.246 0.341797L120.752 0.341797C116.455 0.341797 114.453-1.46484 114.453-5.9082Z"/>
  </g>
  <g id="Medium-L" transform="matrix(1 0 0 1 1629.27 1556)">
   <path d="M64.8926 28.7598L118.018 28.7598C120.801 28.7598 123.047 26.5137 123.047 23.7793C123.047 21.0449 120.801 18.75 118.018 18.75L112.012 18.75L110.889 10.6934C112.891 11.3281 115.186 11.6699 117.773 11.6699L146.094 11.6699L145.02 18.75L139.502 18.75C136.719 18.75 134.473 21.0449 134.473 23.7793C134.473 26.5137 136.719 28.7598 139.502 28.7598L180.371 28.7598C183.154 28.7598 185.4 26.5137 185.4 23.7793C185.4 21.0449 183.154 18.75 180.371 18.75L174.854 18.75L173.828 11.6699L202.1 11.6699C212.939 11.6699 218.506 6.25 218.506-4.73633L218.506-52.2949C218.506-63.2812 212.939-68.7012 202.1-68.7012L166.846-68.7012L166.846-82.7148C166.846-93.7012 161.23-99.1211 150.439-99.1211L32.4707-99.1211C21.6797-99.1211 16.0645-93.7012 16.0645-82.7148L16.0645-10.0098C16.0645 0.976562 21.6797 6.39648 32.4707 6.39648L72.6562 6.39648L70.8496 18.75L64.8926 18.75C62.1094 18.75 59.8633 21.0449 59.8633 23.7793C59.8633 26.5137 62.1094 28.7598 64.8926 28.7598ZM101.367-4.73633C101.367-4.54102 101.367-4.3457 101.367-4.10156L33.1055-4.10156C28.6621-4.10156 26.6113-6.00586 26.6113-10.5957L26.6113-82.1289C26.6113-86.7188 28.6621-88.623 33.1055-88.623L149.805-88.623C154.248-88.623 156.299-86.7188 156.299-82.1289L156.299-68.7012L117.773-68.7012C106.982-68.7012 101.367-63.2812 101.367-52.2949ZM111.914-5.37109L111.914-51.709C111.914-56.2988 113.965-58.1543 118.408-58.1543L201.465-58.1543C205.957-58.1543 208.008-56.2988 208.008-51.709L208.008-5.37109C208.008-0.78125 205.957 1.12305 201.465 1.12305L118.408 1.12305C113.965 1.12305 111.914-0.78125 111.914-5.37109Z"/>
  </g>
  <g id="Regular-L" transform="matrix(1 0 0 1 1333.85 1556)">
   <path d="M63.7207 27.1484L116.553 27.1484C118.945 27.1484 120.898 25.2441 120.898 22.8516C120.898 20.4102 118.945 18.457 116.553 18.457L110.254 18.457L109.082 10.0586C110.84 10.5957 112.891 10.8398 115.186 10.8398L144.385 10.8398L143.311 18.457L137.354 18.457C134.961 18.457 133.008 20.4102 133.008 22.8516C133.008 25.2441 134.961 27.1484 137.354 27.1484L178.516 27.1484C180.908 27.1484 182.861 25.2441 182.861 22.8516C182.861 20.4102 180.908 18.457 178.516 18.457L172.559 18.457L171.436 10.8398L200.635 10.8398C210.791 10.8398 215.918 5.9082 215.918-4.44336L215.918-52.7832C215.918-63.1348 210.791-68.0176 200.635-68.0176L164.209-68.0176L164.209-82.373C164.209-92.7246 159.082-97.6562 148.926-97.6562L31.3477-97.6562C21.1914-97.6562 16.0645-92.7246 16.0645-82.373L16.0645-9.96094C16.0645 0.390625 21.1914 5.32227 31.3477 5.32227L71.875 5.32227L70.0195 18.457L63.7207 18.457C61.3281 18.457 59.375 20.4102 59.375 22.8516C59.375 25.2441 61.3281 27.1484 63.7207 27.1484ZM99.9512-4.44336C99.9512-4.05273 99.9512-3.66211 99.9512-3.32031L31.4941-3.32031C26.8555-3.32031 24.707-5.32227 24.707-10.1074L24.707-82.2266C24.707-87.0117 26.8555-89.0137 31.4941-89.0137L148.779-89.0137C153.418-89.0137 155.566-87.0117 155.566-82.2266L155.566-68.0176L115.186-68.0176C105.029-68.0176 99.9512-63.1348 99.9512-52.7832ZM108.594-4.58984L108.594-52.5879C108.594-57.373 110.742-59.375 115.381-59.375L200.488-59.375C205.127-59.375 207.275-57.373 207.275-52.5879L207.275-4.58984C207.275 0.146484 205.127 2.14844 200.488 2.14844L115.381 2.14844C110.742 2.14844 108.594 0.146484 108.594-4.58984Z"/>
  </g>
  <g id="Light-L" transform="matrix(1 0 0 1 1039.17 1556)">
   <path d="M62.5 25.7324L115.039 25.7324C116.895 25.7324 118.359 24.2676 118.359 22.4121C118.359 20.5566 116.895 19.0918 115.039 19.0918L108.057 19.0918L106.641 8.74023C108.398 9.32617 110.4 9.57031 112.646 9.57031L142.236 9.57031L140.918 19.0918L134.424 19.0918C132.568 19.0918 131.055 20.5566 131.055 22.4121C131.055 24.2676 132.568 25.7324 134.424 25.7324L176.074 25.7324C177.93 25.7324 179.443 24.2676 179.443 22.4121C179.443 20.5566 177.93 19.0918 176.074 19.0918L169.629 19.0918L168.262 9.57031L197.852 9.57031C207.129 9.57031 211.865 5.0293 211.865-4.44336L211.865-53.0762C211.865-62.5 207.129-67.0898 197.852-67.0898L161.426-67.0898L161.426-82.1777C161.426-91.6016 156.738-96.1426 147.412-96.1426L30.0781-96.1426C20.752-96.1426 16.0645-91.6016 16.0645-82.1777L16.0645-9.375C16.0645 0.0488281 20.752 4.63867 30.0781 4.63867L71.4355 4.63867L69.4336 19.0918L62.5 19.0918C60.5957 19.0918 59.1309 20.5566 59.1309 22.4121C59.1309 24.2676 60.5957 25.7324 62.5 25.7324ZM98.6328-4.44336C98.6328-3.56445 98.6816-2.73438 98.7793-2.00195L30.2734-2.00195C25.1465-2.00195 22.7051-4.29688 22.7051-9.52148L22.7051-81.9824C22.7051-87.207 25.1465-89.5508 30.2734-89.5508L147.217-89.5508C152.393-89.5508 154.834-87.207 154.834-81.9824L154.834-67.0898L112.646-67.0898C103.369-67.0898 98.6328-62.5 98.6328-53.0762ZM105.273-4.58984L105.273-52.9297C105.273-58.1055 107.715-60.4492 112.842-60.4492L197.656-60.4492C202.783-60.4492 205.225-58.1055 205.225-52.9297L205.225-4.58984C205.225 0.634766 202.783 2.97852 197.656 2.97852L112.842 2.97852C107.715 2.97852 105.273 0.634766 105.273-4.58984Z"/>
  </g>
  <g id="Thin-L" transform="matrix(1 0 0 1 745.143 1556)">
   <path d="M60.8398 23.877L113.037 23.877C114.16 23.877 115.039 23.0469 115.039 21.875C115.039 20.752 114.16 19.9219 113.037 19.9219L105.127 19.9219L103.467 7.03125C105.078 7.61719 107.031 7.95898 109.277 7.95898L139.307 7.95898L137.744 19.9219L130.566 19.9219C129.395 19.9219 128.516 20.752 128.516 21.875C128.516 23.0469 129.395 23.877 130.566 23.877L172.852 23.877C174.023 23.877 174.902 23.0469 174.902 21.875C174.902 20.752 174.023 19.9219 172.852 19.9219L165.674 19.9219L164.111 7.95898L194.141 7.95898C202.295 7.95898 206.494 3.80859 206.494-4.39453L206.494-53.5156C206.494-61.7188 202.295-65.8203 194.141-65.8203L157.764-65.8203L157.764-81.8359C157.764-90.0391 153.613-94.1895 145.41-94.1895L28.418-94.1895C20.2148-94.1895 16.0645-90.0391 16.0645-81.8359L16.0645-8.59375C16.0645-0.390625 20.2148 3.71094 28.418 3.71094L70.8008 3.71094L68.7012 19.9219L60.8398 19.9219C59.668 19.9219 58.7891 20.752 58.7891 21.875C58.7891 23.0469 59.668 23.877 60.8398 23.877ZM96.9238-4.39453C96.9238-2.83203 97.0703-1.46484 97.3633-0.195312L28.6621-0.195312C22.8516-0.195312 19.9707-2.97852 19.9707-8.78906L19.9707-81.6895C19.9707-87.4512 22.8516-90.2344 28.6621-90.2344L145.215-90.2344C150.977-90.2344 153.857-87.4512 153.857-81.6895L153.857-65.8203L109.277-65.8203C101.123-65.8203 96.9238-61.7188 96.9238-53.5156ZM100.879-4.54102L100.879-53.3203C100.879-59.1309 103.711-61.9141 109.521-61.9141L193.896-61.9141C199.658-61.9141 202.539-59.1309 202.539-53.3203L202.539-4.54102C202.539 1.2207 199.658 4.00391 193.896 4.00391L109.521 4.00391C103.711 4.00391 100.879 1.2207 100.879-4.54102Z"/>
  </g>
  <g id="Ultralight-L" transform="matrix(1 0 0 1 449.823 1556)">
   <path d="M59.9609 22.9004L112.012 22.9004C112.793 22.9004 113.379 22.4121 113.379 21.6309C113.379 20.8496 112.793 20.3613 112.012 20.3613L103.613 20.3613L101.807 6.10352C103.418 6.78711 105.322 7.12891 107.568 7.12891L137.793 7.12891L136.084 20.3613L128.564 20.3613C127.783 20.3613 127.197 20.8496 127.197 21.6309C127.197 22.4121 127.783 22.9004 128.564 22.9004L171.191 22.9004C171.973 22.9004 172.559 22.4121 172.559 21.6309C172.559 20.8496 171.973 20.3613 171.191 20.3613L163.672 20.3613L162.012 7.12891L192.236 7.12891C199.854 7.12891 203.711 3.17383 203.711-4.39453L203.711-53.7109C203.711-61.2793 199.854-65.1855 192.236-65.1855L155.908-65.1855L155.908-81.6895C155.908-89.2578 152.002-93.1641 144.385-93.1641L27.5391-93.1641C19.9707-93.1641 16.0645-89.2578 16.0645-81.6895L16.0645-8.20312C16.0645-0.634766 19.9707 3.27148 27.5391 3.27148L70.5078 3.27148L68.3594 20.3613L59.9609 20.3613C59.1797 20.3613 58.5938 20.8496 58.5938 21.6309C58.5938 22.4121 59.1797 22.9004 59.9609 22.9004ZM96.0449-4.39453C96.0449-2.44141 96.3379-0.732422 96.8262 0.732422L27.7832 0.732422C21.6797 0.732422 18.6035-2.29492 18.6035-8.39844L18.6035-81.4941C18.6035-87.5977 21.6797-90.625 27.7832-90.625L144.141-90.625C150.244-90.625 153.32-87.5977 153.32-81.4941L153.32-65.1855L107.568-65.1855C99.9512-65.1855 96.0449-61.2793 96.0449-53.7109ZM98.6328-4.54102L98.6328-53.5645C98.6328-59.6191 101.709-62.6465 107.812-62.6465L191.992-62.6465C198.096-62.6465 201.172-59.6191 201.172-53.5645L201.172-4.54102C201.172 1.5625 198.096 4.54102 191.992 4.54102L107.812 4.54102C105.029 4.54102 102.93 3.95508 101.367 2.73438L101.367 2.44141L101.074 2.44141C99.4629 0.976562 98.6328-1.36719 98.6328-4.54102Z"/>
  </g>
  <g id="Black-M" transform="matrix(1 0 0 1 2836.72 1126)">
   <path d="M55.6152 22.1191L98.5352 22.1191C102.393 22.1191 105.371 18.8477 105.371 15.332C105.371 11.8164 102.393 8.54492 98.5352 8.54492L94.9707 8.54492L94.043 2.7832C96.7285 4.15039 99.9512 4.88281 103.662 4.88281L120.898 4.88281L120.361 8.54492L118.018 8.54492C114.209 8.54492 111.182 11.8164 111.182 15.332C111.182 18.8477 114.209 22.1191 118.018 22.1191L148.438 22.1191C152.246 22.1191 155.273 18.8477 155.273 15.332C155.273 11.8164 152.246 8.54492 148.438 8.54492L146.094 8.54492L145.508 4.88281L162.793 4.88281C174.219 4.88281 180.908-1.85547 180.908-13.2324L180.908-46.0938C180.908-57.5195 174.219-64.2578 162.793-64.2578L141.699-64.2578L141.699-73.6328C141.699-85.0098 135.01-91.748 123.584-91.748L30.5664-91.748C19.1895-91.748 12.4512-85.0098 12.4512-73.6328L12.4512-15.6738C12.4512-4.29688 19.1895 2.44141 30.5664 2.44141L60.1562 2.44141L59.2285 8.54492L55.6152 8.54492C51.8066 8.54492 48.7793 11.8164 48.7793 15.332C48.7793 18.8477 51.8066 22.1191 55.6152 22.1191ZM33.3984-14.5508C30.7617-14.5508 29.4434-15.625 29.4434-18.457L29.4434-70.8008C29.4434-73.6816 30.7617-74.7559 33.3984-74.7559L120.801-74.7559C123.389-74.7559 124.707-73.6816 124.707-70.8008L124.707-64.2578L103.662-64.2578C92.2363-64.2578 85.5469-57.5195 85.5469-46.0938L85.5469-14.5508ZM102.539-16.0645L102.539-43.3105C102.539-46.1914 103.857-47.2168 106.445-47.2168L160.01-47.2168C162.598-47.2168 163.916-46.1914 163.916-43.3105L163.916-16.0645C163.916-13.1836 162.598-12.1094 160.01-12.1094L106.445-12.1094C103.857-12.1094 102.539-13.1836 102.539-16.0645Z"/>
  </g>
  <g id="Heavy-M" transform="matrix(1 0 0 1 2541.33 1126)">
   <path d="M54.3457 20.166L96.8262 20.166C100.244 20.166 102.979 17.2852 102.979 14.0625C102.979 10.8887 100.244 7.95898 96.8262 7.95898L93.0176 7.95898L92.1387 2.34375C94.5312 3.41797 97.3633 4.00391 100.586 4.00391L119.092 4.00391L118.457 7.95898L115.674 7.95898C112.256 7.95898 109.521 10.8887 109.521 14.0625C109.521 17.2852 112.256 20.166 115.674 20.166L146.387 20.166C149.805 20.166 152.539 17.2852 152.539 14.0625C152.539 10.8887 149.805 7.95898 146.387 7.95898L143.555 7.95898L142.969 4.00391L161.475 4.00391C172.119 4.00391 178.271-2.09961 178.271-12.793L178.271-46.7285C178.271-57.4219 172.119-63.5254 161.475-63.5254L138.672-63.5254L138.672-73.2422C138.672-83.9355 132.568-90.0391 121.875-90.0391L29.248-90.0391C18.5547-90.0391 12.4512-83.9355 12.4512-73.2422L12.4512-15.7227C12.4512-5.0293 18.5547 1.07422 29.248 1.07422L59.1797 1.07422L58.1055 7.95898L54.3457 7.95898C50.8789 7.95898 48.1445 10.8887 48.1445 14.0625C48.1445 17.2852 50.8789 20.166 54.3457 20.166ZM31.4453-13.7695C28.6621-13.7695 27.2949-14.8926 27.2949-17.9199L27.2949-71.0449C27.2949-74.0234 28.6621-75.1953 31.4453-75.1953L119.678-75.1953C122.461-75.1953 123.828-74.0234 123.828-71.0449L123.828-63.5254L100.586-63.5254C89.9414-63.5254 83.7891-57.4219 83.7891-46.7285L83.7891-13.7695ZM98.6328-14.9902L98.6328-44.5312C98.6328-47.5098 100-48.6816 102.783-48.6816L159.277-48.6816C162.061-48.6816 163.428-47.5098 163.428-44.5312L163.428-14.9902C163.428-11.9629 162.061-10.8398 159.277-10.8398L102.783-10.8398C100-10.8398 98.6328-11.9629 98.6328-14.9902Z"/>
  </g>
  <g id="Bold-M" transform="matrix(1 0 0 1 2246.11 1126)">
   <path d="M52.8809 18.0176L94.873 18.0176C97.8516 18.0176 100.244 15.5273 100.244 12.6953C100.244 9.81445 97.8516 7.27539 94.873 7.27539L90.8203 7.27539L89.9902 1.80664C92.041 2.58789 94.4336 3.02734 97.168 3.02734L117.041 3.02734L116.406 7.27539L113.086 7.27539C110.059 7.27539 107.666 9.81445 107.666 12.6953C107.666 15.5273 110.059 18.0176 113.086 18.0176L144.092 18.0176C147.07 18.0176 149.463 15.5273 149.463 12.6953C149.463 9.81445 147.07 7.27539 144.092 7.27539L140.771 7.27539L140.088 3.02734L159.961 3.02734C169.824 3.02734 175.293-2.34375 175.293-12.3047L175.293-47.3633C175.293-57.3242 169.824-62.6953 159.961-62.6953L135.303-62.6953L135.303-72.7539C135.303-82.7637 129.834-88.0859 119.971-88.0859L27.7832-88.0859C17.9199-88.0859 12.4512-82.7637 12.4512-72.7539L12.4512-15.8203C12.4512-5.85938 17.9199-0.488281 27.7832-0.488281L58.0566-0.488281L56.8848 7.27539L52.8809 7.27539C49.8535 7.27539 47.4609 9.81445 47.4609 12.6953C47.4609 15.5273 49.8535 18.0176 52.8809 18.0176ZM29.248-12.9395C26.2695-12.9395 24.9023-14.1113 24.9023-17.2852L24.9023-71.2891C24.9023-74.4629 26.2695-75.6836 29.248-75.6836L118.457-75.6836C121.436-75.6836 122.852-74.4629 122.852-71.2891L122.852-62.6953L97.168-62.6953C87.3047-62.6953 81.8359-57.3242 81.8359-47.3633L81.8359-12.9395ZM94.2871-13.7695L94.2871-45.8984C94.2871-49.0723 95.7031-50.293 98.6816-50.293L158.496-50.293C161.475-50.293 162.842-49.0723 162.842-45.8984L162.842-13.7695C162.842-10.6445 161.475-9.42383 158.496-9.42383L98.6816-9.42383C95.7031-9.42383 94.2871-10.6445 94.2871-13.7695Z"/>
  </g>
  <g id="Semibold-M" transform="matrix(1 0 0 1 1950.42 1126)">
   <path d="M51.8555 16.5527L93.5059 16.5527C96.1914 16.5527 98.3887 14.3066 98.3887 11.7188C98.3887 9.08203 96.1914 6.83594 93.5059 6.83594L89.3555 6.83594L88.5254 1.36719C90.332 2.00195 92.4316 2.34375 94.8242 2.34375L115.625 2.34375L114.941 6.83594L111.279 6.83594C108.545 6.83594 106.396 9.08203 106.396 11.7188C106.396 14.3066 108.545 16.5527 111.279 16.5527L142.48 16.5527C145.215 16.5527 147.363 14.3066 147.363 11.7188C147.363 9.08203 145.215 6.83594 142.48 6.83594L138.818 6.83594L138.135 2.34375L158.936 2.34375C168.262 2.34375 173.242-2.53906 173.242-11.9629L173.242-47.8516C173.242-57.2754 168.262-62.1582 158.936-62.1582L132.959-62.1582L132.959-72.4609C132.959-81.9336 127.93-86.7676 118.604-86.7676L26.7578-86.7676C17.4316-86.7676 12.4512-81.9336 12.4512-72.4609L12.4512-15.8691C12.4512-6.39648 17.4316-1.5625 26.7578-1.5625L57.3242-1.5625L56.0547 6.83594L51.8555 6.83594C49.1699 6.83594 47.0215 9.08203 47.0215 11.7188C47.0215 14.3066 49.1699 16.5527 51.8555 16.5527ZM27.7344-12.3047C24.6582-12.3047 23.2422-13.5742 23.2422-16.8457L23.2422-71.4844C23.2422-74.7559 24.6582-76.0254 27.7344-76.0254L117.627-76.0254C120.752-76.0254 122.168-74.7559 122.168-71.4844L122.168-62.1582L94.8242-62.1582C85.498-62.1582 80.5176-57.2754 80.5176-47.8516L80.5176-12.3047ZM91.3086-12.9395L91.3086-46.875C91.3086-50.0977 92.7246-51.3672 95.8496-51.3672L157.91-51.3672C161.035-51.3672 162.451-50.0977 162.451-46.875L162.451-12.9395C162.451-9.66797 161.035-8.44727 157.91-8.44727L95.8496-8.44727C92.7246-8.44727 91.3086-9.66797 91.3086-12.9395Z"/>
  </g>
  <g id="Medium-M" transform="matrix(1 0 0 1 1654.49 1126)">
   <path d="M51.123 15.4297L92.5293 15.4297C94.9707 15.4297 96.9727 13.3789 96.9727 10.9863C96.9727 8.49609 94.9707 6.49414 92.5293 6.49414L88.1836 6.49414L87.4023 1.07422C89.0137 1.5625 90.918 1.85547 93.0664 1.85547L114.551 1.85547L113.867 6.49414L109.912 6.49414C107.422 6.49414 105.42 8.49609 105.42 10.9863C105.42 13.3789 107.422 15.4297 109.912 15.4297L141.309 15.4297C143.75 15.4297 145.752 13.3789 145.752 10.9863C145.752 8.49609 143.75 6.49414 141.309 6.49414L137.354 6.49414L136.621 1.85547L158.154 1.85547C167.041 1.85547 171.68-2.63672 171.68-11.7188L171.68-48.1934C171.68-57.2266 167.041-61.7188 158.154-61.7188L131.152-61.7188L131.152-72.2168C131.152-81.2988 126.514-85.791 117.627-85.791L25.9766-85.791C17.0898-85.791 12.4512-81.2988 12.4512-72.2168L12.4512-15.918C12.4512-6.83594 17.0898-2.34375 25.9766-2.34375L56.7383-2.34375L55.4199 6.49414L51.123 6.49414C48.6328 6.49414 46.6309 8.49609 46.6309 10.9863C46.6309 13.3789 48.6328 15.4297 51.123 15.4297ZM26.6113-11.8652C23.3887-11.8652 21.9727-13.1836 21.9727-16.5039L21.9727-71.6309C21.9727-74.9512 23.3887-76.2695 26.6113-76.2695L116.992-76.2695C120.215-76.2695 121.631-74.9512 121.631-71.6309L121.631-61.7188L93.0664-61.7188C84.1797-61.7188 79.4922-57.2266 79.4922-48.1934L79.4922-11.8652ZM89.0137-12.3047L89.0137-47.5586C89.0137-50.9277 90.4785-52.2461 93.6523-52.2461L157.52-52.2461C160.742-52.2461 162.158-50.9277 162.158-47.5586L162.158-12.3047C162.158-8.98438 160.742-7.66602 157.52-7.66602L93.6523-7.66602C90.4785-7.66602 89.0137-8.98438 89.0137-12.3047Z"/>
  </g>
  <g id="Regular-M" transform="matrix(1 0 0 1 1358.8 1126)">
   <path d="M50.0977 13.916L91.1621 13.916C93.3594 13.916 95.1172 12.1582 95.1172 10.0098C95.1172 7.8125 93.3594 6.00586 91.1621 6.00586L86.7188 6.00586L85.9375 0.585938C87.3535 0.976562 88.916 1.17188 90.7227 1.17188L113.135 1.17188L112.451 6.00586L108.105 6.00586C105.957 6.00586 104.15 7.8125 104.15 10.0098C104.15 12.1582 105.957 13.916 108.105 13.916L139.746 13.916C141.895 13.916 143.701 12.1582 143.701 10.0098C143.701 7.8125 141.895 6.00586 139.746 6.00586L135.4 6.00586L134.668 1.17188L157.129 1.17188C165.479 1.17188 169.629-2.83203 169.629-11.377L169.629-48.6328C169.629-57.1777 165.479-61.1816 157.129-61.1816L128.857-61.1816L128.857-71.9238C128.857-80.4688 124.658-84.4727 116.309-84.4727L25-84.4727C16.6504-84.4727 12.4512-80.4688 12.4512-71.9238L12.4512-15.9668C12.4512-7.42188 16.6504-3.41797 25-3.41797L55.957-3.41797L54.5898 6.00586L50.0977 6.00586C47.9492 6.00586 46.1426 7.8125 46.1426 10.0098C46.1426 12.1582 47.9492 13.916 50.0977 13.916ZM78.1738-11.377L78.1738-11.2793L25.1465-11.2793C21.7773-11.2793 20.3125-12.6465 20.3125-16.0645L20.3125-71.7773C20.3125-75.2441 21.7773-76.6113 25.1465-76.6113L116.162-76.6113C119.482-76.6113 120.996-75.2441 120.996-71.7773L120.996-61.1816L90.7227-61.1816C82.373-61.1816 78.1738-57.1777 78.1738-48.6328ZM86.0352-11.5234L86.0352-48.5352C86.0352-51.9531 87.5488-53.3203 90.8691-53.3203L156.982-53.3203C160.303-53.3203 161.768-51.9531 161.768-48.5352L161.768-11.5234C161.768-8.05664 160.303-6.68945 156.982-6.68945L90.8691-6.68945C87.5488-6.68945 86.0352-8.05664 86.0352-11.5234Z"/>
  </g>
  <g id="Light-M" transform="matrix(1 0 0 1 1063.9 1126)">
   <path d="M48.9746 12.6465L89.8438 12.6465C91.5039 12.6465 92.8711 11.3281 92.8711 9.61914C92.8711 7.91016 91.5039 6.5918 89.8438 6.5918L84.7168 6.5918L83.7402-0.537109C85.1074-0.146484 86.6699 0.0488281 88.4277 0.0488281L111.182 0.0488281L110.254 6.5918L105.469 6.5918C103.809 6.5918 102.441 7.91016 102.441 9.61914C102.441 11.3281 103.809 12.6465 105.469 12.6465L137.549 12.6465C139.258 12.6465 140.625 11.3281 140.625 9.61914C140.625 7.91016 139.258 6.5918 137.549 6.5918L132.764 6.5918L131.836 0.0488281L154.59 0.0488281C162.158 0.0488281 166.016-3.66211 166.016-11.377L166.016-48.9258C166.016-56.6406 162.158-60.3516 154.59-60.3516L126.367-60.3516L126.367-71.6797C126.367-79.4434 122.51-83.1055 114.941-83.1055L23.877-83.1055C16.2598-83.1055 12.4512-79.4434 12.4512-71.6797L12.4512-15.4297C12.4512-7.71484 16.2598-4.00391 23.877-4.00391L55.5664-4.00391L54.0527 6.5918L48.9746 6.5918C47.3145 6.5918 45.9473 7.91016 45.9473 9.61914C45.9473 11.3281 47.3145 12.6465 48.9746 12.6465ZM77.0508-11.377C77.0508-10.9375 77.0508-10.498 77.0508-10.0586L24.0234-10.0586C20.2637-10.0586 18.5059-11.7188 18.5059-15.5762L18.5059-71.582C18.5059-75.4395 20.2637-77.0996 24.0234-77.0996L114.795-77.0996C118.555-77.0996 120.312-75.4395 120.312-71.582L120.312-60.3516L88.4277-60.3516C80.8594-60.3516 77.0508-56.6406 77.0508-48.9258ZM83.0566-11.4746L83.0566-48.7793C83.0566-52.6367 84.8145-54.2969 88.623-54.2969L154.443-54.2969C158.203-54.2969 159.961-52.6367 159.961-48.7793L159.961-11.4746C159.961-7.66602 158.203-6.00586 154.443-6.00586L88.623-6.00586C84.8145-6.00586 83.0566-7.66602 83.0566-11.4746Z"/>
  </g>
  <g id="Thin-M" transform="matrix(1 0 0 1 769.606 1126)">
   <path d="M47.5098 10.9863L88.0371 10.9863C89.0625 10.9863 89.8926 10.2051 89.8926 9.13086C89.8926 8.10547 89.0625 7.32422 88.0371 7.32422L82.0801 7.32422L80.8594-2.09961C82.1777-1.66016 83.6914-1.41602 85.4004-1.41602L108.594-1.41602L107.422 7.32422L102.002 7.32422C100.977 7.32422 100.146 8.10547 100.146 9.13086C100.146 10.2051 100.977 10.9863 102.002 10.9863L134.668 10.9863C135.693 10.9863 136.523 10.2051 136.523 9.13086C136.523 8.10547 135.693 7.32422 134.668 7.32422L129.248 7.32422L128.076-1.41602L151.27-1.41602C157.861-1.41602 161.182-4.73633 161.182-11.3281L161.182-49.3164C161.182-55.9082 157.861-59.2285 151.27-59.2285L123.047-59.2285L123.047-71.4355C123.047-78.0273 119.727-81.3477 113.135-81.3477L22.3633-81.3477C15.7715-81.3477 12.4512-78.0273 12.4512-71.4355L12.4512-14.7461C12.4512-8.1543 15.7715-4.83398 22.3633-4.83398L55.0293-4.83398L53.418 7.32422L47.5098 7.32422C46.4355 7.32422 45.6055 8.10547 45.6055 9.13086C45.6055 10.2051 46.4355 10.9863 47.5098 10.9863ZM75.4883-11.3281C75.4883-10.3027 75.5859-9.32617 75.7324-8.44727L22.5586-8.44727C18.2129-8.44727 16.0645-10.5469 16.0645-14.8926L16.0645-71.2891C16.0645-75.6348 18.2129-77.7344 22.5586-77.7344L112.939-77.7344C117.285-77.7344 119.434-75.6348 119.434-71.2891L119.434-59.2285L85.4004-59.2285C78.8574-59.2285 75.4883-55.9082 75.4883-49.3164ZM79.1016-11.4746L79.1016-49.1699C79.1016-53.5156 81.25-55.6152 85.5957-55.6152L151.074-55.6152C155.42-55.6152 157.568-53.5156 157.568-49.1699L157.568-11.4746C157.568-7.08008 155.42-5.0293 151.074-5.0293L85.5957-5.0293C81.25-5.0293 79.1016-7.08008 79.1016-11.4746Z"/>
  </g>
  <g id="Ultralight-M" transform="matrix(1 0 0 1 474.14 1126)">
   <path d="M46.7285 10.1074L87.1094 10.1074C87.8418 10.1074 88.3789 9.61914 88.3789 8.88672C88.3789 8.20312 87.8418 7.71484 87.1094 7.71484L80.7617 7.71484L79.3945-2.92969C80.6641-2.44141 82.1289-2.14844 83.8867-2.14844L107.227-2.14844L105.957 7.71484L100.244 7.71484C99.5117 7.71484 98.9746 8.20312 98.9746 8.88672C98.9746 9.61914 99.5117 10.1074 100.244 10.1074L133.154 10.1074C133.887 10.1074 134.424 9.61914 134.424 8.88672C134.424 8.20312 133.887 7.71484 133.154 7.71484L127.441 7.71484L126.172-2.14844L149.561-2.14844C155.615-2.14844 158.691-5.27344 158.691-11.3281L158.691-49.4629C158.691-55.5664 155.615-58.6426 149.561-58.6426L121.387-58.6426L121.387-71.2891C121.387-77.3438 118.262-80.4199 112.207-80.4199L21.6309-80.4199C15.5273-80.4199 12.4512-77.3438 12.4512-71.2891L12.4512-14.4043C12.4512-8.34961 15.5273-5.27344 21.6309-5.27344L54.7363-5.27344L53.0762 7.71484L46.7285 7.71484C45.9961 7.71484 45.459 8.20312 45.459 8.88672C45.459 9.61914 45.9961 10.1074 46.7285 10.1074ZM74.707-11.3281C74.707-9.96094 74.8535-8.74023 75.1953-7.66602L21.7773-7.66602C17.1875-7.66602 14.8438-9.91211 14.8438-14.5508L14.8438-71.1426C14.8438-75.7812 17.1875-78.0273 21.7773-78.0273L112.012-78.0273C116.65-78.0273 118.994-75.7812 118.994-71.1426L118.994-58.6426L83.8867-58.6426C77.832-58.6426 74.707-55.5664 74.707-49.4629ZM77.0996-11.4746L77.0996-49.3652C77.0996-54.0039 79.4434-56.25 84.082-56.25L149.365-56.25C154.004-56.25 156.299-54.0039 156.299-49.3652L156.299-11.4746C156.299-6.83594 154.004-4.54102 149.365-4.54102L84.082-4.54102C79.4434-4.54102 77.0996-6.83594 77.0996-11.4746Z"/>
  </g>
  <g id="Black-S" transform="matrix(1 0 0 1 2857.72 696)">
   <path d="M43.5059 9.57031L77.0996 9.57031C80.0781 9.57031 82.4219 7.03125 82.4219 4.29688C82.4219 1.5625 80.0781-0.976562 77.0996-0.976562L74.2676-0.976562L73.584-5.46875C75.6348-4.39453 78.125-3.85742 81.0059-3.85742L94.6289-3.85742L94.1895-0.976562L92.334-0.976562C89.3555-0.976562 87.0117 1.5625 87.0117 4.29688C87.0117 7.03125 89.3555 9.57031 92.334 9.57031L116.162 9.57031C119.141 9.57031 121.484 7.03125 121.484 4.29688C121.484 1.5625 119.141-0.976562 116.162-0.976562L114.307-0.976562L113.867-3.85742L127.49-3.85742C136.377-3.85742 141.602-9.08203 141.602-17.9688L141.602-43.7988C141.602-52.6855 136.377-57.9102 127.49-57.9102L110.84-57.9102L110.84-65.2832C110.84-74.1699 105.615-79.3945 96.7285-79.3945L23.877-79.3945C14.9902-79.3945 9.76562-74.1699 9.76562-65.2832L9.76562-19.9219C9.76562-11.0352 14.9902-5.81055 23.877-5.81055L47.0703-5.81055L46.3379-0.976562L43.5059-0.976562C40.5273-0.976562 38.1836 1.5625 38.1836 4.29688C38.1836 7.03125 40.5273 9.57031 43.5059 9.57031ZM26.0254-18.9941C23.9746-18.9941 22.9492-19.8242 22.9492-22.0703L22.9492-63.1348C22.9492-65.3809 23.9746-66.2109 26.0254-66.2109L94.5801-66.2109C96.6309-66.2109 97.6562-65.3809 97.6562-63.1348L97.6562-57.9102L81.0059-57.9102C72.1191-57.9102 66.8945-52.6855 66.8945-43.7988L66.8945-18.9941ZM80.0781-20.1172L80.0781-41.6504C80.0781-43.8965 81.1035-44.7266 83.1543-44.7266L125.342-44.7266C127.393-44.7266 128.418-43.8965 128.418-41.6504L128.418-20.1172C128.418-17.8711 127.393-17.041 125.342-17.041L83.1543-17.041C81.1035-17.041 80.0781-17.8711 80.0781-20.1172Z"/>
  </g>
  <g id="Heavy-S" transform="matrix(1 0 0 1 2561.81 696)">
   <path d="M42.627 8.25195L75.9277 8.25195C78.6621 8.25195 80.8105 5.9082 80.8105 3.36914C80.8105 0.830078 78.6621-1.51367 75.9277-1.51367L72.998-1.51367L72.3633-5.66406C74.2188-4.83398 76.416-4.39453 78.9062-4.39453L93.457-4.39453L92.9688-1.51367L90.8203-1.51367C88.0859-1.51367 85.9375 0.830078 85.9375 3.36914C85.9375 5.9082 88.0859 8.25195 90.8203 8.25195L114.844 8.25195C117.578 8.25195 119.727 5.9082 119.727 3.36914C119.727 0.830078 117.578-1.51367 114.844-1.51367L112.695-1.51367L112.207-4.39453L126.758-4.39453C135.156-4.39453 139.99-9.17969 139.99-17.627L139.99-44.2383C139.99-52.6855 135.156-57.4707 126.758-57.4707L108.789-57.4707L108.789-64.9902C108.789-73.4863 104.004-78.2227 95.5566-78.2227L22.998-78.2227C14.5508-78.2227 9.76562-73.4863 9.76562-64.9902L9.76562-20.0195C9.76562-11.5723 14.5508-6.78711 22.998-6.78711L46.3867-6.78711L45.5566-1.51367L42.627-1.51367C39.8926-1.51367 37.7441 0.830078 37.7441 3.36914C37.7441 5.9082 39.8926 8.25195 42.627 8.25195ZM24.6582-18.5547C22.5098-18.5547 21.4844-19.3848 21.4844-21.6797L21.4844-63.3301C21.4844-65.625 22.5098-66.5039 24.6582-66.5039L93.8965-66.5039C96.0449-66.5039 97.0703-65.625 97.0703-63.3301L97.0703-57.4707L78.9062-57.4707C70.5078-57.4707 65.7227-52.6855 65.7227-44.2383L65.7227-18.5547ZM77.4414-19.2871L77.4414-42.5781C77.4414-44.873 78.4668-45.7031 80.6152-45.7031L125.098-45.7031C127.197-45.7031 128.223-44.873 128.223-42.5781L128.223-19.2871C128.223-16.9922 127.197-16.1621 125.098-16.1621L80.6152-16.1621C78.4668-16.1621 77.4414-16.9922 77.4414-19.2871Z"/>
  </g>
  <g id="Bold-S" transform="matrix(1 0 0 1 2266.03 696)">
   <path d="M41.6504 6.73828L74.6094 6.73828C77.0508 6.73828 79.0039 4.6875 79.0039 2.34375C79.0039 0 77.0508-2.09961 74.6094-2.09961L71.582-2.09961L70.9961-5.95703C72.6074-5.32227 74.4629-5.0293 76.6113-5.0293L92.0898-5.0293L91.6504-2.09961L89.1602-2.09961C86.7188-2.09961 84.7168 0 84.7168 2.34375C84.7168 4.6875 86.7188 6.73828 89.1602 6.73828L113.379 6.73828C115.82 6.73828 117.773 4.6875 117.773 2.34375C117.773 0 115.82-2.09961 113.379-2.09961L110.84-2.09961L110.4-5.0293L125.928-5.0293C133.789-5.0293 138.135-9.27734 138.135-17.2363L138.135-44.6777C138.135-52.6855 133.789-56.9336 125.928-56.9336L106.494-56.9336L106.494-64.6973C106.494-72.6562 102.148-76.9043 94.2383-76.9043L22.0215-76.9043C14.1113-76.9043 9.76562-72.6562 9.76562-64.6973L9.76562-20.166C9.76562-12.1582 14.1113-7.91016 22.0215-7.91016L45.5566-7.91016L44.6777-2.09961L41.6504-2.09961C39.209-2.09961 37.2559 0 37.2559 2.34375C37.2559 4.6875 39.209 6.73828 41.6504 6.73828ZM23.1445-18.0176C20.8984-18.0176 19.873-18.8965 19.873-21.2891L19.873-63.5742C19.873-65.918 20.8984-66.7969 23.1445-66.7969L93.1152-66.7969C95.3613-66.7969 96.3867-65.918 96.3867-63.5742L96.3867-56.9336L76.6113-56.9336C68.7012-56.9336 64.3555-52.6855 64.3555-44.6777L64.3555-18.0176ZM74.4629-18.3594L74.4629-43.5547C74.4629-45.9473 75.4883-46.8262 77.7344-46.8262L124.756-46.8262C127.002-46.8262 128.027-45.9473 128.027-43.5547L128.027-18.3594C128.027-16.0156 127.002-15.1367 124.756-15.1367L77.7344-15.1367C75.4883-15.1367 74.4629-16.0156 74.4629-18.3594Z"/>
  </g>
  <g id="Semibold-S" transform="matrix(1 0 0 1 1969.95 696)">
   <path d="M40.9668 5.71289L73.6816 5.71289C75.9766 5.71289 77.7832 3.80859 77.7832 1.61133C77.7832-0.585938 75.9766-2.49023 73.6816-2.49023L70.6055-2.49023L70.0684-6.15234C71.4844-5.66406 73.1445-5.41992 75-5.41992L91.2109-5.41992L90.7227-2.49023L87.9883-2.49023C85.7422-2.49023 83.8867-0.585938 83.8867 1.61133C83.8867 3.80859 85.7422 5.71289 87.9883 5.71289L112.354 5.71289C114.6 5.71289 116.406 3.80859 116.406 1.61133C116.406-0.585938 114.6-2.49023 112.354-2.49023L109.57-2.49023L109.131-5.41992L125.342-5.41992C132.861-5.41992 136.865-9.32617 136.865-16.9922L136.865-45.0195C136.865-52.6855 132.861-56.5918 125.342-56.5918L104.932-56.5918L104.932-64.4531C104.932-72.1191 100.879-76.0254 93.3594-76.0254L21.3379-76.0254C13.7695-76.0254 9.76562-72.1191 9.76562-64.4531L9.76562-20.2148C9.76562-12.5488 13.7695-8.69141 21.3379-8.69141L45.0195-8.69141L44.043-2.49023L40.9668-2.49023C38.7207-2.49023 36.9141-0.585938 36.9141 1.61133C36.9141 3.80859 38.7207 5.71289 40.9668 5.71289ZM22.0703-17.6758C19.7754-17.6758 18.75-18.5547 18.75-20.9961L18.75-63.7207C18.75-66.1133 19.7754-67.041 22.0703-67.041L92.627-67.041C94.9219-67.041 95.8984-66.1133 95.8984-63.7207L95.8984-56.5918L75-56.5918C67.4805-56.5918 63.4277-52.6855 63.4277-45.0195L63.4277-17.6758ZM72.4121-17.7734L72.4121-44.2871C72.4121-46.6797 73.4375-47.6074 75.7324-47.6074L124.561-47.6074C126.855-47.6074 127.881-46.6797 127.881-44.2871L127.881-17.7734C127.881-15.332 126.855-14.4531 124.561-14.4531L75.7324-14.4531C73.4375-14.4531 72.4121-15.332 72.4121-17.7734Z"/>
  </g>
  <g id="Medium-S" transform="matrix(1 0 0 1 1673.7 696)">
   <path d="M40.4785 4.93164L72.998 4.93164C75.0977 4.93164 76.8555 3.17383 76.8555 1.07422C76.8555-1.02539 75.0977-2.7832 72.998-2.7832L69.873-2.7832L69.3359-6.34766C70.6543-5.95703 72.1191-5.76172 73.7793-5.76172L90.5273-5.76172L90.0391-2.7832L87.1094-2.7832C85.0098-2.7832 83.252-1.02539 83.252 1.07422C83.252 3.17383 85.0098 4.93164 87.1094 4.93164L111.572 4.93164C113.672 4.93164 115.43 3.17383 115.43 1.07422C115.43-1.02539 113.672-2.7832 111.572-2.7832L108.643-2.7832L108.154-5.76172L124.902-5.76172C132.178-5.76172 135.938-9.375 135.938-16.7969L135.938-45.2637C135.938-52.6855 132.178-56.2988 124.902-56.2988L103.711-56.2988L103.711-64.3066C103.711-71.7285 99.9512-75.3418 92.6758-75.3418L20.8008-75.3418C13.5254-75.3418 9.76562-71.7285 9.76562-64.3066L9.76562-20.3125C9.76562-12.8906 13.5254-9.22852 20.8008-9.22852L44.5801-9.22852L43.6035-2.7832L40.4785-2.7832C38.3789-2.7832 36.6211-1.02539 36.6211 1.07422C36.6211 3.17383 38.3789 4.93164 40.4785 4.93164ZM21.2891-17.3828C18.9453-17.3828 17.9199-18.3105 17.9199-20.752L17.9199-63.8184C17.9199-66.3086 18.9453-67.1875 21.2891-67.1875L92.1875-67.1875C94.5312-67.1875 95.5566-66.3086 95.5566-63.8184L95.5566-56.2988L73.7793-56.2988C66.5039-56.2988 62.7441-52.6855 62.7441-45.2637L62.7441-17.3828ZM70.8984-17.2852L70.8984-44.8242C70.8984-47.2656 71.9238-48.1934 74.2676-48.1934L124.414-48.1934C126.758-48.1934 127.783-47.2656 127.783-44.8242L127.783-17.2852C127.783-14.7949 126.758-13.916 124.414-13.916L74.2676-13.916C71.9238-13.916 70.8984-14.7949 70.8984-17.2852Z"/>
  </g>
  <g id="Regular-S" transform="matrix(1 0 0 1 1377.63 696)">
   <path d="M39.7949 3.90625L72.1191 3.90625C74.0234 3.90625 75.6348 2.29492 75.6348 0.390625C75.6348-1.61133 74.0234-3.17383 72.1191-3.17383L68.8965-3.17383L68.4082-6.5918C69.5312-6.29883 70.8008-6.20117 72.2168-6.20117L89.5996-6.20117L89.1602-3.17383L85.9863-3.17383C84.0332-3.17383 82.4707-1.61133 82.4707 0.390625C82.4707 2.29492 84.0332 3.90625 85.9863 3.90625L110.547 3.90625C112.5 3.90625 114.062 2.29492 114.062 0.390625C114.062-1.61133 112.5-3.17383 110.547-3.17383L107.373-3.17383L106.934-6.20117L124.316-6.20117C131.25-6.20117 134.668-9.47266 134.668-16.5527L134.668-45.6055C134.668-52.6855 131.25-55.957 124.316-55.957L102.148-55.957L102.148-64.0625C102.148-71.1914 98.6816-74.4629 91.7969-74.4629L20.1172-74.4629C13.2324-74.4629 9.76562-71.1914 9.76562-64.0625L9.76562-20.3613C9.76562-13.2812 13.2324-10.0098 20.1172-10.0098L44.043-10.0098L43.0176-3.17383L39.7949-3.17383C37.8906-3.17383 36.2793-1.61133 36.2793 0.390625C36.2793 2.29492 37.8906 3.90625 39.7949 3.90625ZM20.2148-17.041C17.8223-17.041 16.7969-17.9688 16.7969-20.459L16.7969-63.9648C16.7969-66.5039 17.8223-67.4316 20.2148-67.4316L91.6992-67.4316C94.0918-67.4316 95.1172-66.5039 95.1172-63.9648L95.1172-55.957L72.2168-55.957C65.2832-55.957 61.8164-52.6855 61.8164-45.6055L61.8164-17.041ZM68.8965-16.6504L68.8965-45.5078C68.8965-47.998 69.873-48.9258 72.3145-48.9258L124.219-48.9258C126.611-48.9258 127.637-47.998 127.637-45.5078L127.637-16.6504C127.637-14.1602 126.611-13.2324 124.219-13.2324L72.3145-13.2324C69.873-13.2324 68.8965-14.1602 68.8965-16.6504Z"/>
  </g>
  <g id="Light-S" transform="matrix(1 0 0 1 1082.53 696)">
   <path d="M38.8184 2.7832L70.8984 2.7832C72.4121 2.7832 73.6328 1.5625 73.6328 0.0488281C73.6328-1.46484 72.4121-2.68555 70.8984-2.68555L67.1387-2.68555L66.4551-7.61719C67.5293-7.32422 68.7988-7.17773 70.166-7.17773L87.8906-7.17773L87.207-2.68555L83.6426-2.68555C82.1289-2.68555 80.9082-1.46484 80.9082 0.0488281C80.9082 1.5625 82.1289 2.7832 83.6426 2.7832L108.594 2.7832C110.107 2.7832 111.328 1.5625 111.328 0.0488281C111.328-1.46484 110.107-2.68555 108.594-2.68555L105.029-2.68555L104.395-7.17773L122.07-7.17773C128.32-7.17773 131.445-10.1562 131.445-16.5527L131.445-45.8496C131.445-52.1973 128.32-55.2246 122.07-55.2246L99.9512-55.2246L99.9512-63.8672C99.9512-70.2637 96.8262-73.2422 90.5762-73.2422L19.1406-73.2422C12.8906-73.2422 9.76562-70.2637 9.76562-63.8672L9.76562-19.9219C9.76562-13.5742 12.8906-10.5469 19.1406-10.5469L43.7012-10.5469L42.5781-2.68555L38.8184-2.68555C37.3047-2.68555 36.084-1.46484 36.084 0.0488281C36.084 1.5625 37.3047 2.7832 38.8184 2.7832ZM60.791-16.5527C60.791-16.3574 60.791-16.1621 60.791-15.9668L19.2383-15.9668C16.4551-15.9668 15.1855-17.1875 15.1855-20.0195L15.1855-63.7695C15.1855-66.6504 16.4551-67.8223 19.2383-67.8223L90.4785-67.8223C93.2617-67.8223 94.5312-66.6504 94.5312-63.7695L94.5312-55.2246L70.166-55.2246C63.9648-55.2246 60.791-52.1973 60.791-45.8496ZM66.2109-16.6504L66.2109-45.752C66.2109-48.584 67.4805-49.8047 70.3125-49.8047L121.973-49.8047C124.756-49.8047 126.025-48.584 126.025-45.752L126.025-16.6504C126.025-13.7695 124.756-12.5977 121.973-12.5977L70.3125-12.5977C67.4805-12.5977 66.2109-13.7695 66.2109-16.6504Z"/>
  </g>
  <g id="Thin-S" transform="matrix(1 0 0 1 787.941 696)">
   <path d="M37.5 1.26953L69.3359 1.26953C70.2637 1.26953 70.9961 0.585938 70.9961-0.341797C70.9961-1.31836 70.2637-2.05078 69.3359-2.05078L64.8438-2.05078L63.916-8.98438C64.9414-8.64258 66.1133-8.44727 67.5293-8.44727L85.5957-8.44727L84.7168-2.05078L80.6152-2.05078C79.6387-2.05078 78.9062-1.31836 78.9062-0.341797C78.9062 0.585938 79.6387 1.26953 80.6152 1.26953L106.055 1.26953C106.982 1.26953 107.764 0.585938 107.764-0.341797C107.764-1.31836 106.982-2.05078 106.055-2.05078L101.953-2.05078L101.074-8.44727L119.141-8.44727C124.512-8.44727 127.197-11.1328 127.197-16.5039L127.197-46.1914C127.197-51.5625 124.512-54.248 119.141-54.248L97.0703-54.248L97.0703-63.623C97.0703-69.043 94.3359-71.6797 89.0137-71.6797L17.8223-71.6797C12.5-71.6797 9.76562-69.043 9.76562-63.623L9.76562-19.3359C9.76562-13.916 12.5-11.2793 17.8223-11.2793L43.2129-11.2793L41.9922-2.05078L37.5-2.05078C36.5723-2.05078 35.8398-1.31836 35.8398-0.341797C35.8398 0.585938 36.5723 1.26953 37.5 1.26953ZM59.4727-16.5039C59.4727-15.8203 59.4727-15.1855 59.5703-14.5508L17.9688-14.5508C14.6484-14.5508 13.0859-16.1133 13.0859-19.4336L13.0859-63.5254C13.0859-66.8457 14.6484-68.4082 17.9688-68.4082L88.8672-68.4082C92.1387-68.4082 93.75-66.8457 93.75-63.5254L93.75-54.248L67.5293-54.248C62.1582-54.248 59.4727-51.5625 59.4727-46.1914ZM62.7441-16.6016L62.7441-46.0938C62.7441-49.4141 64.3555-50.9277 67.627-50.9277L118.994-50.9277C122.314-50.9277 123.926-49.4141 123.926-46.0938L123.926-16.6016C123.926-13.2812 122.314-11.7676 118.994-11.7676L67.627-11.7676C64.3555-11.7676 62.7441-13.2812 62.7441-16.6016Z"/>
  </g>
  <g id="Ultralight-S" transform="matrix(1 0 0 1 492.328 696)">
   <path d="M36.8164 0.537109L68.5059 0.537109C69.1406 0.537109 69.6289 0.0488281 69.6289-0.585938C69.6289-1.2207 69.1406-1.70898 68.5059-1.70898L63.623-1.70898L62.5977-9.7168C63.5742-9.32617 64.7949-9.13086 66.1133-9.13086L84.375-9.13086L83.3984-1.70898L79.0039-1.70898C78.3691-1.70898 77.8809-1.2207 77.8809-0.585938C77.8809 0.0488281 78.3691 0.537109 79.0039 0.537109L104.736 0.537109C105.42 0.537109 105.908 0.0488281 105.908-0.585938C105.908-1.2207 105.42-1.70898 104.736-1.70898L100.342-1.70898L99.3652-9.13086L117.627-9.13086C122.51-9.13086 125-11.6211 125-16.5039L125-46.3379C125-51.2695 122.51-53.7109 117.627-53.7109L95.5566-53.7109L95.5566-63.5254C95.5566-68.4082 93.0664-70.8984 88.1836-70.8984L17.1387-70.8984C12.2559-70.8984 9.76562-68.4082 9.76562-63.5254L9.76562-18.9941C9.76562-14.1113 12.2559-11.6211 17.1387-11.6211L42.9688-11.6211L41.6992-1.70898L36.8164-1.70898C36.1816-1.70898 35.6934-1.2207 35.6934-0.585938C35.6934 0.0488281 36.1816 0.537109 36.8164 0.537109ZM58.7402-16.5039C58.7402-15.5273 58.8379-14.6484 59.0332-13.8184L17.2852-13.8184C13.7207-13.8184 11.9629-15.5762 11.9629-19.0918L11.9629-63.4277C11.9629-66.9434 13.7207-68.7012 17.2852-68.7012L88.0371-68.7012C91.6016-68.7012 93.3594-66.9434 93.3594-63.4277L93.3594-53.7109L66.1133-53.7109C61.2305-53.7109 58.7402-51.2695 58.7402-46.3379ZM60.9375-16.6016L60.9375-46.2402C60.9375-49.8047 62.7441-51.5137 66.2598-51.5137L117.48-51.5137C121.045-51.5137 122.803-49.8047 122.803-46.2402L122.803-16.6016C122.803-13.0371 121.045-11.3281 117.48-11.3281L66.2598-11.3281C62.7441-11.3281 60.9375-13.0371 60.9375-16.6016Z"/>
  </g>
 </g>
</svg>
