<?xml version="1.0" encoding="UTF-8" standalone="no"?> <!-- Created with Vectornator for iOS (http://vectornator.io/) --><!DOCTYPE svg PUBLIC "-//W3C//DTD SVG 1.1//EN" "http://www.w3.org/Graphics/SVG/1.1/DTD/svg11.dtd">
<svg height="100%" style="fill-rule:evenodd;clip-rule:evenodd;stroke-linecap:round;stroke-linejoin:round;" xmlns:xlink="http://www.w3.org/1999/xlink" xmlns="http://www.w3.org/2000/svg" xml:space="preserve" width="100%" xmlns:vectornator="http://vectornator.io" version="1.1" viewBox="0 0 2388 1668">
<metadata>
<vectornator:setting key="DimensionsVisible" value="1"/>
<vectornator:setting key="DynamicGuides" value="0"/>
<vectornator:setting key="SnapToPoints" value="0"/>
<vectornator:setting key="GuidesVisible" value="1"/>
<vectornator:setting key="RulersVisible" value="1"/>
<vectornator:setting key="CMYKEnabledKey" value="0"/>
<vectornator:setting key="SnapToEdges" value="0"/>
<vectornator:setting key="DisplayWhiteBackground" value="0"/>
<vectornator:setting key="SnapToGuides" value="1"/>
<vectornator:setting key="GridSpacing" value="36"/>
<vectornator:setting key="SnapToGrid" value="0"/>
<vectornator:setting key="Units" value="Pixels"/>
<vectornator:setting key="New" value="1"/>
</metadata>
<defs/>
<g id="Layer 2" vectornator:layerName="Layer 2">
<g opacity="1">
<path d="M2035.08+518.752C2145.35+519.659+2226.58+566.966+2278.78+660.675C2304.35+706.02+2320.02+770.843+2325.81+855.142C2326.69+878.219+2326.67+946.423+2325.72+1059.75L2324.19+1243.29C2324.05+1260.34+2319.11+1268.83+2309.38+1268.75C2299.65+1268.67+2294.92+1253.08+2295.18+1221.99C2295.48+1185.88+2291.6+1164.54+2283.55+1157.95C2275.5+1151.37+2250.93+1147.91+2209.85+1147.57L1332.57+1140.36C1285+1139.97+1257.42+1141.75+1249.82+1145.69C1236.79+1152.61+1229.55+1178.13+1228.1+1222.25C1227.87+1249.33+1222.35+1262.82+1211.54+1262.73C1201.81+1262.65+1197.05+1250.07+1197.26+1225C1197.27+1224+1197.32+1217.98+1197.41+1206.95C1198.59+1195.93+1199.21+1185.9+1199.29+1176.87L1204.97+883.542C1206.96+775.234+1227.09+694.657+1265.37+641.813C1310.21+579.995+1374.8+549.433+1459.12+550.126C1532.63+550.73+1592.69+576.801+1639.29+628.337C1685.89+679.873+1714.75+751.825+1725.87+844.193L1735.6+844.273C1742.85+753.059+1763.98+682.02+1799+631.154C1851.53+555.358+1930.22+517.89+2035.08+518.752ZM1473.95+715.744C1370.17+714.891+1300.8+736.386+1265.84+780.231C1247.27+803.148+1237.72+846.7+1237.18+910.888C1237.04+927.938+1238.44+954.529+1241.38+990.661L1711.64+994.527L1711.75+980.987L1709.2+898.218C1707.52+841.033+1685.99+796.473+1644.64+764.539C1603.28+732.604+1546.39+716.339+1473.95+715.744ZM2015.93+676.568C1879.72+675.448+1794.97+725.905+1761.68+827.938C1751.7+857.946+1746.37+913.569+1745.69+994.807L2228.93+998.779C2260.28+999.036+2278.14+996.174+2282.52+990.192C2290.17+980.225+2294.18+952.174+2294.57+906.039C2295.15+836.836+2271.82+781.479+2224.6+739.968C2177.38+698.457+2107.82+677.323+2015.93+676.568Z" opacity="1" fill="#bfbdbd"/>
</g>
<g opacity="1"/>
</g>
<g id="Layer 3" vectornator:layerName="Layer 3">
<path stroke="#bfbdbd" stroke-width="6.26" d="M1589.92+791.312L1225.86+990.567L863.786+789.553L865.76+389.285L1229.81+190.03L1591.89+391.044L1589.92+791.312Z" fill="none" stroke-linecap="butt" opacity="1" stroke-linejoin="round"/>
</g>
<g id="Layer 1" vectornator:layerName="Layer 1">
<g opacity="1">
<path d="M873.557+381.041C882.206+381.137+886.389+393.22+886.107+417.29C885.472+471.447+893.768+501.63+910.993+507.84C922.838+511.984+969.839+514.513+1052+515.428L1103.89+516.005C1150.84+568.685+1183.77+618.702+1202.68+666.055C1221.58+713.408+1230.65+770.18+1229.87+836.372C1228.01+994.831+1175.46+1120.13+1072.21+1212.26C968.961+1304.39+829.773+1349.48+654.646+1347.53C477.358+1345.56+334.657+1298.34+226.543+1205.86C118.428+1113.38+65.247+992.421+66.9982+842.988C67.7622+777.8+88.0552+706.81+127.877+630.02C140.039+607.086+146.208+588.097+146.384+573.053C146.607+553.998+133.782+541.317+107.908+535.011C92.8323+529.828+85.3356+523.726+85.4179+516.706C85.5119+508.683+90.4235+504.725+100.153+504.834C101.234+504.846+111.492+505.963+130.927+508.185C194.625+515.916+241.614+519.448+271.895+518.782L359.476+518.252C403.81+517.742+431.37+518.55+442.157+520.677C452.943+522.803+458.284+528.379+458.178+537.405C458.072+546.431+450.446+551.361+435.3+552.196C331.463+556.055+249.246+583.225+188.65+633.705C128.053+684.186+97.2673+751.046+96.2918+834.287C95.0694+938.589+144.1+1021.63+243.384+1083.42C342.668+1145.21+478.792+1177.07+651.756+1178.99C819.316+1180.86+952.373+1151.5+1050.93+1090.91C1149.48+1030.32+1199.38+947.369+1200.61+842.064C1201.55+761.832+1177.34+706.396+1127.96+675.755C1103.27+660.435+1058.5+652.414+993.639+651.692C939.587+651.091+907.641+655.499+897.8+664.919C887.959+674.338+883.25+707.135+883.673+763.309C883.509+777.35+882.592+786.367+880.924+790.361C879.255+794.354+875.718+796.321+870.313+796.261C858.422+796.129+852.605+785.03+852.864+762.967L853.181+735.888C856.683+713.86+858.41+658.713+858.364+570.445L858.153+450.079C858.235+443.059+857.782+435.531+856.795+427.496C856.89+419.472+856.954+413.956+856.989+410.948C857.224+390.89+862.747+380.921+873.557+381.041Z" opacity="1" fill="#bfbdbd"/>
</g>
</g>
</svg>
