<svg xmlns="http://www.w3.org/2000/svg" xmlns:xlink="http://www.w3.org/1999/xlink" width="3300" height="2200" viewBox="0 0 3300 2200">
  <defs>
    <clipPath id="clip-path">
      <rect id="artboard" width="3300" height="2200" fill="#fff"/>
    </clipPath>
    <linearGradient id="linear-gradient" x1="0.5" x2="0.5" y2="1" gradientUnits="objectBoundingBox">
      <stop offset="0" stop-color="#eac13c"/>
      <stop offset="1" stop-color="#75611e"/>
    </linearGradient>
  </defs>
  <g id="Mask_Group_1" data-name="Mask Group 1" clip-path="url(#clip-path)">
    <g id="pencil">
      <g id="Notes" transform="translate(25 -46)">
        <path id="artboard-2" data-name="artboard" d="M0,0H3300V2200H0Z" transform="matrix(0.974, -0.225, 0.225, 0.974, -205.157, 399.362)" fill="#fff"/>
        <line id="Line_5" data-name="Line 5" x2="2773" transform="translate(263 292)" fill="none" stroke="#000" stroke-width="0.5"/>
        <text id="Weight_Scale_Variations" data-name="Weight/Scale Variations" transform="translate(263 322)" font-size="20" font-family="Helvetica-Bold, Helvetica" font-weight="700"><tspan x="0" y="0">Weight/Scale Variations</tspan></text>
        <text id="Ultralight" transform="translate(559.711 322)" font-size="20" font-family="Helvetica"><tspan x="-39.458" y="0">Ultralight</tspan></text>
        <text id="Thin" transform="translate(856.422 322)" font-size="20" font-family="Helvetica"><tspan x="-19.453" y="0">Thin</tspan></text>
        <text id="Light" transform="translate(1153.13 322)" font-size="20" font-family="Helvetica"><tspan x="-21.685" y="0">Light</tspan></text>
        <text id="Regular" transform="translate(1449.84 322)" font-size="20" font-family="Helvetica"><tspan x="-35.02" y="0">Regular</tspan></text>
        <text id="Medium" transform="translate(1746.56 322)" font-size="20" font-family="Helvetica"><tspan x="-35.566" y="0">Medium</tspan></text>
        <text id="Semibold" transform="translate(2043.27 322)" font-size="20" font-family="Helvetica"><tspan x="-41.689" y="0">Semibold</tspan></text>
        <text id="Bold" transform="translate(2339.98 322)" font-size="20" font-family="Helvetica"><tspan x="-20.015" y="0">Bold</tspan></text>
        <text id="Heavy" transform="translate(2636.69 322)" font-size="20" font-family="Helvetica"><tspan x="-28.345" y="0">Heavy</tspan></text>
        <text id="Black" transform="translate(2933.4 322)" font-size="20" font-family="Helvetica"><tspan x="-24.453" y="0">Black</tspan></text>
        <line id="Line_6" data-name="Line 6" x2="2773" transform="translate(263 1903)" fill="none" stroke="#000" stroke-width="0.5"/>
        <g id="Group_6" data-name="Group 6" transform="translate(263 1933)">
          <path id="Path_9" data-name="Path 9" d="M9.248.83a7.949,7.949,0,0,0,7.891-7.881,7.957,7.957,0,0,0-7.9-7.881A7.938,7.938,0,0,0,1.367-7.051,7.947,7.947,0,0,0,9.248.83Zm0-1.484a6.358,6.358,0,0,1-6.377-6.4,6.35,6.35,0,0,1,6.367-6.4,6.383,6.383,0,0,1,6.406,6.4A6.362,6.362,0,0,1,9.248-.654ZM6.4-6.318H8.506V-4.2a.7.7,0,0,0,.723.742A.7.7,0,0,0,9.971-4.2V-6.318H12.1a.7.7,0,0,0,.742-.723.707.707,0,0,0-.742-.742H9.971V-9.893a.7.7,0,0,0-.742-.752.7.7,0,0,0-.723.752v2.109H6.4a.71.71,0,0,0-.752.742A.7.7,0,0,0,6.4-6.318Z"/>
        </g>
        <g id="Group_7" data-name="Group 7" transform="translate(281.506 1933)">
          <path id="Path_10" data-name="Path 10" d="M11.709,2.91A10.035,10.035,0,0,0,21.67-7.051,10.037,10.037,0,0,0,11.7-17.012,10.026,10.026,0,0,0,1.748-7.051,10.041,10.041,0,0,0,11.709,2.91Zm0-1.66a8.261,8.261,0,0,1-8.291-8.3,8.252,8.252,0,0,1,8.281-8.3,8.284,8.284,0,0,1,8.311,8.3A8.263,8.263,0,0,1,11.709,1.25ZM7.988-6.23h2.891v2.91a.777.777,0,0,0,.811.82.787.787,0,0,0,.83-.82V-6.23h2.91a.777.777,0,0,0,.82-.811.787.787,0,0,0-.82-.83h-2.91v-2.891a.792.792,0,0,0-.83-.84.787.787,0,0,0-.811.84v2.891H7.988a.792.792,0,0,0-.84.83A.787.787,0,0,0,7.988-6.23Z"/>
        </g>
        <g id="Group_8" data-name="Group 8" transform="translate(304.924 1933)">
          <path id="Path_11" data-name="Path 11" d="M14.971,5.664A12.806,12.806,0,0,0,27.7-7.051,12.817,12.817,0,0,0,14.961-19.775,12.8,12.8,0,0,0,2.256-7.051,12.8,12.8,0,0,0,14.971,5.664Zm0-1.816A10.87,10.87,0,0,1,4.082-7.051a10.855,10.855,0,0,1,10.879-10.9,10.88,10.88,0,0,1,10.908,10.9A10.865,10.865,0,0,1,14.971,3.848Zm-4.912-9.99h4v4.014a.862.862,0,0,0,.889.908.866.866,0,0,0,.908-.908V-6.143h4.023a.867.867,0,0,0,.908-.889.874.874,0,0,0-.908-.918H15.859v-4a.872.872,0,0,0-.908-.928.872.872,0,0,0-.889.928v4h-4a.879.879,0,0,0-.928.918A.872.872,0,0,0,10.059-6.143Z"/>
        </g>
        <text id="Design_Variations" data-name="Design Variations" transform="translate(263 1953)" font-size="20" font-family="Helvetica-Bold, Helvetica" font-weight="700"><tspan x="0" y="0">Design Variations</tspan></text>
        <text id="Symbols_are_supported_in_up_to_nine_weights_and_three_scales." data-name="Symbols are supported in up to nine weights and three scales." transform="translate(263 1971)" font-size="20" font-family="Helvetica"><tspan x="0" y="0">Symbols are supported in up to nine weights and three scales.</tspan></text>
        <text id="For_optimal_layout_with_text_and_other_symbols_vertically_align" data-name="For optimal layout with text and other symbols, vertically align" transform="translate(263 1989)" font-size="20" font-family="Helvetica"><tspan x="0" y="0">For optimal layout with text and other symbols, vertically align</tspan></text>
        <text id="symbols_with_the_adjacent_text." data-name="symbols with the adjacent text." transform="translate(263 2007)" font-size="20" font-family="Helvetica"><tspan x="0" y="0">symbols with the adjacent text.</tspan></text>
        <line id="Line_7" data-name="Line 7" y2="14" transform="translate(776 1919)" fill="none" stroke="#00aeef" stroke-width="0.5"/>
        <g id="Group_9" data-name="Group 9" transform="translate(776 1933)">
          <path id="Path_12" data-name="Path 12" d="M3.311.127a.887.887,0,0,0,.957-.732l1.26-3.457h5.762l1.26,3.457A.884.884,0,0,0,13.5.127a.773.773,0,0,0,.85-.8,1.447,1.447,0,0,0-.107-.527L9.658-13.389a1.225,1.225,0,0,0-1.25-.9,1.212,1.212,0,0,0-1.23.889L2.6-1.191a1.447,1.447,0,0,0-.107.527A.747.747,0,0,0,3.311.127Zm2.7-5.664,2.373-6.572h.049L10.8-5.537Z"/>
        </g>
        <line id="Line_8" data-name="Line 8" y2="14" transform="translate(792.836 1919)" fill="none" stroke="#00aeef" stroke-width="0.5"/>
        <text id="Margins" transform="translate(776 1953)" font-size="20" font-family="Helvetica-Bold, Helvetica" font-weight="700"><tspan x="0" y="0">Margins</tspan></text>
        <text id="Leading_and_trailing_margins_on_the_left_and_right_side_of_each_symbol" data-name="Leading and trailing margins on the left and right side of each symbol" transform="translate(776 1971)" font-size="20" font-family="Helvetica"><tspan x="0" y="0">Leading and trailing margins on the left and right side of each symbol</tspan></text>
        <text id="can_be_adjusted_by_modifying_the_x-location_of_the_margin_guidelines." data-name="can be adjusted by modifying the x-location of the margin guidelines." transform="translate(776 1989)" font-size="20" font-family="Helvetica"><tspan x="0" y="0">can be adjusted by modifying the x-location of the margin guidelines.</tspan></text>
        <text id="Modifications_are_automatically_applied_proportionally_to_all" data-name="Modifications are automatically applied proportionally to all" transform="translate(776 2007)" font-size="20" font-family="Helvetica"><tspan x="0" y="0">Modifications are automatically applied proportionally to all</tspan></text>
        <text id="scales_and_weights." data-name="scales and weights." transform="translate(776 2025)" font-size="20" font-family="Helvetica"><tspan x="0" y="0">scales and weights.</tspan></text>
        <g id="Group_10" data-name="Group 10" transform="translate(1289 1933)">
          <path id="Path_13" data-name="Path 13" d="M2.842,1.865l1.7,1.709c.859.869,1.846.811,2.773-.215L17.49-7.852a1.661,1.661,0,0,0,.85.01l1.065-.2.664.674-.039.557a1.551,1.551,0,0,0,.576,1.357l.762.742a1.038,1.038,0,0,0,1.563.039l2.91-2.92a1.016,1.016,0,0,0-.029-1.543l-.771-.762a1.569,1.569,0,0,0-1.328-.6l-.576.049-.645-.635.244-1.123a1.581,1.581,0,0,0-.615-1.592l-2.2-2.187c-3.34-3.32-7.773-3.242-10.664-.352a1.123,1.123,0,0,0-.215,1.377,1.154,1.154,0,0,0,1.338.43,5.408,5.408,0,0,1,4.414.537l-.586,1.455a1.7,1.7,0,0,0-.1,1.24L3.047-.9C2.061.02,1.982,1,2.842,1.865Zm7.91-17.822a6.056,6.056,0,0,1,7.949.752l2.432,2.412a.708.708,0,0,1,.205.762l-.322,1.484,1.5,1.484.986-.059a.542.542,0,0,1,.527.205l.576.576L22.168-5.9l-.576-.576a.557.557,0,0,1-.215-.537l.068-.977L19.951-9.473l-1.524.254a.641.641,0,0,1-.713-.2l-2-2c-.254-.234-.283-.4-.127-.771l.879-2.09a5.759,5.759,0,0,0-5.625-1.484C10.684-15.723,10.625-15.85,10.752-15.957ZM5.273,2.3,4.1,1.143C3.633.684,3.74.342,4.141-.02L14.951-10.2l1.465,1.484L6.426,2.275C6.074,2.676,5.742,2.773,5.273,2.3Z"/>
        </g>
        <text id="Exporting" transform="translate(1289 1953)" font-size="20" font-family="Helvetica-Bold, Helvetica" font-weight="700"><tspan x="0" y="0">Exporting</tspan></text>
        <text id="Symbols_should_be_outlined_when_exporting_to_ensure_the" data-name="Symbols should be outlined when exporting to ensure the" transform="translate(1289 1971)" font-size="20" font-family="Helvetica"><tspan x="0" y="0">Symbols should be outlined when exporting to ensure the</tspan></text>
        <text id="design_is_preserved_when_submitting_to_Xcode." data-name="design is preserved when submitting to Xcode." transform="translate(1289 1989)" font-size="20" font-family="Helvetica"><tspan x="0" y="0">design is preserved when submitting to Xcode.</tspan></text>
        <text id="template-version" transform="translate(3036 1933)" font-size="20" font-family="Helvetica"><tspan x="-128.594" y="0">Template v.2.0</tspan></text>
        <text id="Requires_Xcode_12_or_greater" data-name="Requires Xcode 12 or greater" transform="translate(3036 1951)" font-size="20" font-family="Helvetica"><tspan x="-262.373" y="0">Requires Xcode 12 or greater</tspan></text>
        <text id="Generated_from_pencil" data-name="Generated from pencil" transform="translate(3036 1969)" font-size="20" font-family="Helvetica"><tspan x="-197.881" y="0">Generated from pencil</tspan></text>
        <text id="Typeset_at_100_points" data-name="Typeset at 100 points" transform="translate(3036 1987)" font-size="20" font-family="Helvetica"><tspan x="-190.137" y="0">Typeset at 100 points</tspan></text>
        <text id="Small" transform="translate(263 726)" font-size="20" font-family="Helvetica"><tspan x="0" y="0">Small</tspan></text>
        <text id="Medium-2" data-name="Medium" transform="translate(263 1156)" font-size="20" font-family="Helvetica"><tspan x="0" y="0">Medium</tspan></text>
        <text id="Large" transform="translate(263 1586)" font-size="20" font-family="Helvetica"><tspan x="0" y="0">Large</tspan></text>
      </g>
      <g id="Guides">
        <g id="H-reference" transform="translate(339 696)">
          <path id="Path_14" data-name="Path 14" d="M.977,0H3.662l9.326-24.463H45.752L55.127,0h2.637L30.615-70.459h-2.49ZM29.346-67.139h.1l15.43,40.43H13.867Z" fill="#27aae1"/>
        </g>
        <line id="Baseline-S" x2="2773" transform="translate(263 696)" fill="none" stroke="#27aae1" stroke-width="0.5"/>
        <line id="Capline-S" x2="2773" transform="translate(263 625.541)" fill="none" stroke="#27aae1" stroke-width="0.5"/>
        <g id="H-reference-2" data-name="H-reference" transform="translate(339 1126)">
          <path id="Path_15" data-name="Path 15" d="M.977,0H3.662l9.326-24.463H45.752L55.127,0h2.637L30.615-70.459h-2.49ZM29.346-67.139h.1l15.43,40.43H13.867Z" fill="#27aae1"/>
        </g>
        <line id="Baseline-M" x2="2773" transform="translate(263 1126)" fill="none" stroke="#27aae1" stroke-width="0.5"/>
        <line id="Capline-M" x2="2773" transform="translate(263 1055.54)" fill="none" stroke="#27aae1" stroke-width="0.5"/>
        <g id="H-reference-3" data-name="H-reference" transform="translate(339 1556)">
          <path id="Path_16" data-name="Path 16" d="M.977,0H3.662l9.326-24.463H45.752L55.127,0h2.637L30.615-70.459h-2.49ZM29.346-67.139h.1l15.43,40.43H13.867Z" fill="#27aae1"/>
        </g>
        <line id="Baseline-L" x2="2773" transform="translate(263 1556)" fill="none" stroke="#27aae1" stroke-width="0.5"/>
        <line id="Capline-L" x2="2773" transform="translate(263 1485.54)" fill="none" stroke="#27aae1" stroke-width="0.5"/>
        <line id="left-margin" y2="119.33" transform="translate(1399.72 1030.79)" fill="none" stroke="#00aeef" stroke-width="0.5"/>
        <line id="right-margin" y2="119.33" transform="translate(1499.97 1030.79)" fill="none" stroke="#00aeef" stroke-width="0.5"/>
      </g>
      <g id="Symbols">
        <g id="Black-L" transform="translate(2859.11 1556)">
          <path id="Path_17" data-name="Path 17" d="M122.51-67.676l8.447-8.447c4-4,4.2-8.789.391-12.7l-3.662-3.711c-3.858-3.906-8.741-3.516-12.793.439l-8.448,8.35ZM37.3,17.48,114.7-59.961,98.682-75.977,21.338,1.465,14.746,18.994a3.911,3.911,0,0,0,4.883,5.029Z"/>
        </g>
        <g id="Heavy-L" transform="translate(2564.69 1556)">
          <path id="Path_18" data-name="Path 18" d="M118.7-67.09l7.813-7.812c3.808-3.809,3.955-8.2.439-11.817l-3.223-3.223c-3.564-3.613-8.056-3.271-11.816.439l-7.861,7.764ZM35.791,15.771,111.475-60.01l-14.551-14.6L21.191,1.172,14.7,17.725a3.461,3.461,0,0,0,4.3,4.443Z"/>
        </g>
        <g id="Bold-L" transform="translate(2270.54 1556)">
          <path id="Path_19" data-name="Path 19" d="M114.453-66.406l7.178-7.129c3.515-3.564,3.662-7.52.39-10.84l-2.685-2.686c-3.223-3.271-7.275-2.93-10.791.488l-7.178,7.08ZM34.033,13.867,107.91-60.01,94.922-73.047,21.045.83,14.7,16.357a2.836,2.836,0,0,0,3.564,3.662Z"/>
        </g>
        <g id="Semibold-L" transform="translate(1975.59 1556)">
          <path id="Path_20" data-name="Path 20" d="M111.475-65.918l6.738-6.689c3.369-3.369,3.516-7.031.439-10.107l-2.343-2.344c-3.028-3.076-6.788-2.783-10.059.488L99.463-77.93ZM32.813,12.6,105.469-60.01,93.555-71.973,20.947.635l-6.3,14.746A2.494,2.494,0,0,0,17.725,18.6Z"/>
        </g>
        <g id="Medium-L" transform="translate(1680.22 1556)">
          <path id="Path_21" data-name="Path 21" d="M109.277-65.576l6.348-6.3c3.223-3.271,3.369-6.689.488-9.619l-2.1-2.1c-2.881-2.881-6.4-2.539-9.522.537l-6.4,6.3ZM31.934,11.572l71.679-71.631L92.529-71.143,20.85.439l-6.2,14.209a2.19,2.19,0,0,0,2.734,2.832Z"/>
        </g>
        <g id="Regular-L" transform="translate(1385.27 1556)">
          <path id="Path_22" data-name="Path 22" d="M106.348-65.137l5.957-5.811c3.027-3.076,3.125-6.2.439-8.935l-1.709-1.709c-2.685-2.686-5.908-2.393-8.838.537L96.24-75.244ZM30.762,10.3l70.41-70.361-10.01-10.01L20.752.244,14.6,13.721a1.82,1.82,0,0,0,2.246,2.344Z"/>
        </g>
        <g id="Light-L" transform="translate(1088.7 1556)">
          <path id="Path_23" data-name="Path 23" d="M106.885-66.6l5.322-5.273c2.734-2.832,2.881-5.566.391-8.057L111.426-81.1c-2.393-2.393-5.274-2.1-7.959.537l-5.274,5.225ZM29.443,10.6,102.1-61.963l-8.594-8.643L20.85,1.953l-6.25,12.7A1.48,1.48,0,0,0,16.455,16.6Z"/>
        </g>
        <g id="Thin-L" transform="translate(792.213 1556)">
          <path id="Path_24" data-name="Path 24" d="M107.52-68.6l4.541-4.492c2.441-2.49,2.539-4.687.341-6.885l-.439-.439c-2-2-4.492-1.758-6.738.488l-4.493,4.492ZM27.734,11.035,103.32-64.5l-6.689-6.787L21.045,4.2,14.551,15.967a1.013,1.013,0,0,0,1.367,1.318Z"/>
        </g>
        <g id="Ultralight-L" transform="translate(495.6 1556)">
          <path id="Path_25" data-name="Path 25" d="M107.861-69.629l4.151-4.053c2.246-2.344,2.295-4.3.293-6.3l-.049-.1c-1.856-1.807-4.053-1.562-6.152.488l-4.053,4.1ZM26.855,11.231l77.1-77.051-5.713-5.811L21.094,5.322,14.551,16.6a.791.791,0,0,0,1.074,1.074Z"/>
        </g>
        <g id="Black-M" transform="translate(2872.83 1126)">
          <path id="Path_26" data-name="Path 26" d="M100.342-62.012l7.031-7.031c3.32-3.32,3.418-7.324.244-10.6l-3.174-3.174c-3.173-3.271-7.324-2.979-10.644.293l-7.031,6.982ZM30.322,8.057,93.7-55.42,80.127-68.945,16.748-5.469,11.475,8.984a3.52,3.52,0,0,0,4.394,4.541Z"/>
        </g>
        <g id="Heavy-M" transform="translate(2578.58 1126)">
          <path id="Path_27" data-name="Path 27" d="M96.045-60.937l6.543-6.543c3.125-3.125,3.223-6.787.244-9.814l-2.783-2.832c-2.979-3.027-6.739-2.734-9.864.293L83.643-73.34ZM28.955,6.152,89.941-54.932,77.588-67.285,16.6-6.25,11.426,7.373a3.077,3.077,0,0,0,3.857,3.955Z"/>
        </g>
        <g id="Bold-M" transform="translate(2284.63 1126)">
          <path id="Path_28" data-name="Path 28" d="M91.211-59.766l6.006-5.957c2.881-2.93,3.027-6.25.293-8.984l-2.393-2.441c-2.686-2.734-6.1-2.49-8.984.391L80.127-70.85ZM27.441,3.955l58.3-58.35L74.707-65.43,16.357-7.08,11.377,5.566A2.6,2.6,0,0,0,14.6,8.887Z"/>
        </g>
        <g id="Semibold-M" transform="translate(1989.82 1126)">
          <path id="Path_29" data-name="Path 29" d="M87.939-58.984,93.506-64.5c2.783-2.783,2.881-5.859.342-8.447l-2.1-2.148c-2.539-2.539-5.713-2.295-8.447.391l-5.615,5.566ZM26.367,2.49,82.861-54,72.754-64.16,16.26-7.666,11.377,4.346a2.2,2.2,0,0,0,2.734,2.832Z"/>
        </g>
        <g id="Medium-M" transform="translate(1694.55 1126)">
          <path id="Path_30" data-name="Path 30" d="M85.4-58.35l5.322-5.273c2.637-2.637,2.734-5.518.342-7.959l-1.9-1.953c-2.393-2.392-5.371-2.148-7.959.439l-5.322,5.225ZM25.586,1.367,80.713-53.76,71.24-63.184,16.113-8.154,11.328,3.369a1.992,1.992,0,0,0,2.441,2.539Z"/>
        </g>
        <g id="Regular-M" transform="translate(1599.828 659.803)">
          <path id="Path_31" data-name="Path 31" d="M82.129-57.568,87.061-62.4c2.49-2.49,2.588-5.176.391-7.422l-1.66-1.66c-2.2-2.2-4.883-1.953-7.373.439l-4.932,4.883ZM24.56-.146,77.832-53.369l-8.545-8.594L15.967-8.691,11.328,2.148A1.59,1.59,0,0,0,13.281,4.2Z" transform="translate(14.153 147)" fill="url(#linear-gradient)"/>
        </g>
        <g id="Light-M" transform="translate(1103.13 1126)">
          <path id="Path_32" data-name="Path 32" d="M82.568-58.887l4.443-4.346c2.246-2.295,2.344-4.59.342-6.592L86.182-71c-2-2-4.346-1.758-6.543.391L75.2-66.26ZM23.389.146,78.711-55.078,71.436-62.4,16.113-7.178,11.328,3.027a1.285,1.285,0,0,0,1.611,1.66Z"/>
        </g>
        <g id="Thin-M" transform="translate(806.593 1126)">
          <path id="Path_33" data-name="Path 33" d="M83.2-60.645l3.711-3.662c1.953-2,2-3.809.244-5.566l-.488-.537c-1.66-1.611-3.662-1.416-5.469.391l-3.662,3.662ZM21.875.537l57.959-57.91-5.615-5.664L16.26-5.176,11.328,4.15a.87.87,0,0,0,1.123,1.172Z"/>
        </g>
        <g id="Ultralight-M" transform="translate(509.98 1126)">
          <path id="Path_34" data-name="Path 34" d="M83.5-61.572l3.369-3.272c1.758-1.855,1.856-3.467.244-5.078l-.2-.146c-1.465-1.465-3.271-1.318-4.932.391l-3.271,3.271ZM21.094.732,80.42-58.545,75.684-63.33,16.357-4.15,11.328,4.736a.666.666,0,0,0,.879.928Z"/>
        </g>
        <g id="Black-S" transform="translate(2886.13 696)">
          <path id="Path_35" data-name="Path 35" d="M78.271-56.1l5.469-5.469c2.588-2.588,2.686-5.713.2-8.252l-2.441-2.49c-2.49-2.539-5.713-2.295-8.3.244l-5.469,5.42ZM23.682-1.465,73.1-50.977,62.549-61.523,13.135-12.012,8.984-.732A2.731,2.731,0,0,0,12.4,2.783Z"/>
        </g>
        <g id="Heavy-S" transform="translate(2591.3 696)">
          <path id="Path_36" data-name="Path 36" d="M74.9-55.127,80.078-60.3c2.441-2.441,2.539-5.371.2-7.764l-2.2-2.246c-2.344-2.393-5.322-2.148-7.812.244l-5.176,5.127ZM22.754-2.979,70.117-50.439l-9.766-9.766L12.939-12.744l-4,10.693a2.392,2.392,0,0,0,3.027,3.076Z"/>
        </g>
        <g id="Bold-S" transform="translate(2296.69 696)">
          <path id="Path_37" data-name="Path 37" d="M71.191-54.1l4.785-4.736c2.344-2.344,2.441-5.029.244-7.227l-1.953-2c-2.2-2.2-4.932-2-7.227.293l-4.834,4.736ZM21.729-4.687,66.8-49.8,57.91-58.74,12.793-13.623,8.936-3.564A2.058,2.058,0,0,0,11.475-.879Z"/>
        </g>
        <g id="Semibold-S" transform="translate(2001.42 696)">
          <path id="Path_38" data-name="Path 38" d="M68.6-53.369l4.541-4.492c2.246-2.246,2.344-4.736.293-6.836l-1.807-1.855c-2.051-2.051-4.639-1.856-6.836.342l-4.59,4.492ZM21-5.811,64.551-49.365l-8.35-8.35L12.646-14.16,8.887-4.59a1.831,1.831,0,0,0,2.246,2.344Z"/>
        </g>
        <g id="Medium-S" transform="translate(1705.81 696)">
          <path id="Path_39" data-name="Path 39" d="M66.65-52.783l4.395-4.346c2.148-2.148,2.246-4.541.293-6.543l-1.709-1.709c-1.953-1.953-4.395-1.758-6.543.342l-4.395,4.3ZM20.459-6.738,62.842-49.023l-7.91-7.91L12.6-14.6,8.887-5.371a1.665,1.665,0,0,0,2,2.148Z"/>
        </g>
        <g id="Regular-S" transform="translate(1410.51 696)">
          <path id="Path_40" data-name="Path 40" d="M64.111-52.051l4.1-4.1c2.1-2.051,2.2-4.3.342-6.152l-1.514-1.562c-1.855-1.856-4.1-1.66-6.2.342l-4.15,4.1ZM19.775-7.861,60.547-48.584l-7.324-7.324L12.451-15.186,8.887-6.348A1.416,1.416,0,0,0,10.6-4.541Z"/>
        </g>
        <g id="Light-S" transform="translate(1113.92 696)">
          <path id="Path_41" data-name="Path 41" d="M64.5-53.271l3.662-3.564c1.855-1.9,1.953-3.809.293-5.518l-1.074-1.074c-1.66-1.66-3.662-1.465-5.469.342l-3.662,3.564ZM18.75-7.617,61.328-50.146l-6.2-6.2L12.549-13.867,8.887-5.615A1.118,1.118,0,0,0,10.254-4.15Z"/>
        </g>
        <g id="Thin-S" transform="translate(817.36 696)">
          <path id="Path_42" data-name="Path 42" d="M65.039-54.834l3.027-2.979c1.611-1.611,1.66-3.125.244-4.541l-.488-.537c-1.367-1.367-3.027-1.221-4.541.293L60.3-59.619ZM17.432-7.275,62.3-52.148l-4.687-4.736L12.7-12.061,8.838-4.59A.8.8,0,0,0,9.863-3.564Z"/>
        </g>
        <g id="Ultralight-S" transform="translate(520.722 696)">
          <path id="Path_43" data-name="Path 43" d="M65.332-55.615,68.018-58.3c1.465-1.465,1.514-2.783.244-4.1l-.244-.2c-1.221-1.221-2.637-1.074-4,.293l-2.686,2.637ZM16.7-7.129,62.842-53.174l-3.955-4L12.793-11.133,8.838-4.053a.594.594,0,0,0,.781.781Z"/>
        </g>
      </g>
      <g id="Regular-M-2" data-name="Regular-M" transform="translate(1858.719 919)">
        <path id="Path_31-2" data-name="Path 31" d="M82.129-57.568,87.061-62.4c2.49-2.49,2.588-5.176.391-7.422l-1.66-1.66c-2.2-2.2-4.883-1.953-7.373.439l-4.932,4.883ZM24.56-.146,77.832-53.369l-8.545-8.594L15.967-8.691,11.328,2.148A1.59,1.59,0,0,0,13.281,4.2Z" fill="url(#linear-gradient)"/>
      </g>
    </g>
  </g>
</svg>
