<?xml version="1.0" encoding="UTF-8"?>
<!--Generator: Apple Native CoreSVG 149-->
<!DOCTYPE svg
PUBLIC "-//W3C//DTD SVG 1.1//EN"
       "http://www.w3.org/Graphics/SVG/1.1/DTD/svg11.dtd">
<svg version="1.1" xmlns="http://www.w3.org/2000/svg" xmlns:xlink="http://www.w3.org/1999/xlink" width="3300" height="2200">
 <!--glyph: "uni100951.medium", point size: 100.000000, font version: "Version 16.0d18e1", template writer version: "8"-->
 <g id="Notes">
  <rect height="2200" id="artboard" style="fill:white;opacity:1" width="3300" x="0" y="0"/>
  <line id="" style="fill:none;stroke:black;opacity:1;stroke-width:0.5;" x1="263" x2="3036" y1="292" y2="292"/>
  <text style="stroke:none;fill:black;font-family:-apple-system,&quot;SF Pro Display&quot;,&quot;SF Pro Text&quot;,Helvetica,sans-serif;font-weight:bold;" transform="matrix(1 0 0 1 263 322)">Weight/Scale Variations</text>
  <text style="stroke:none;fill:black;font-family:-apple-system,&quot;SF Pro Display&quot;,&quot;SF Pro Text&quot;,Helvetica,sans-serif;text-anchor:middle;" transform="matrix(1 0 0 1 559.711 322)">Ultralight</text>
  <text style="stroke:none;fill:black;font-family:-apple-system,&quot;SF Pro Display&quot;,&quot;SF Pro Text&quot;,Helvetica,sans-serif;text-anchor:middle;" transform="matrix(1 0 0 1 856.422 322)">Thin</text>
  <text style="stroke:none;fill:black;font-family:-apple-system,&quot;SF Pro Display&quot;,&quot;SF Pro Text&quot;,Helvetica,sans-serif;text-anchor:middle;" transform="matrix(1 0 0 1 1153.13 322)">Light</text>
  <text style="stroke:none;fill:black;font-family:-apple-system,&quot;SF Pro Display&quot;,&quot;SF Pro Text&quot;,Helvetica,sans-serif;text-anchor:middle;" transform="matrix(1 0 0 1 1449.84 322)">Regular</text>
  <text style="stroke:none;fill:black;font-family:-apple-system,&quot;SF Pro Display&quot;,&quot;SF Pro Text&quot;,Helvetica,sans-serif;text-anchor:middle;" transform="matrix(1 0 0 1 1746.56 322)">Medium</text>
  <text style="stroke:none;fill:black;font-family:-apple-system,&quot;SF Pro Display&quot;,&quot;SF Pro Text&quot;,Helvetica,sans-serif;text-anchor:middle;" transform="matrix(1 0 0 1 2043.27 322)">Semibold</text>
  <text style="stroke:none;fill:black;font-family:-apple-system,&quot;SF Pro Display&quot;,&quot;SF Pro Text&quot;,Helvetica,sans-serif;text-anchor:middle;" transform="matrix(1 0 0 1 2339.98 322)">Bold</text>
  <text style="stroke:none;fill:black;font-family:-apple-system,&quot;SF Pro Display&quot;,&quot;SF Pro Text&quot;,Helvetica,sans-serif;text-anchor:middle;" transform="matrix(1 0 0 1 2636.69 322)">Heavy</text>
  <text style="stroke:none;fill:black;font-family:-apple-system,&quot;SF Pro Display&quot;,&quot;SF Pro Text&quot;,Helvetica,sans-serif;text-anchor:middle;" transform="matrix(1 0 0 1 2933.4 322)">Black</text>
  <line id="" style="fill:none;stroke:black;opacity:1;stroke-width:0.5;" x1="263" x2="3036" y1="1903" y2="1903"/>
  <g id="" transform="matrix(1 0 0 1 263 1933)">
   <path d="M9.24805 0.830078C13.5547 0.830078 17.1387-2.74414 17.1387-7.05078C17.1387-11.3574 13.5449-14.9316 9.23828-14.9316C4.94141-14.9316 1.36719-11.3574 1.36719-7.05078C1.36719-2.74414 4.95117 0.830078 9.24805 0.830078ZM9.24805-0.654297C5.70312-0.654297 2.87109-3.49609 2.87109-7.05078C2.87109-10.6055 5.69336-13.4473 9.23828-13.4473C12.793-13.4473 15.6348-10.6055 15.6445-7.05078C15.6543-3.49609 12.8027-0.654297 9.24805-0.654297ZM6.39648-6.31836L8.50586-6.31836L8.50586-4.19922C8.50586-3.75977 8.79883-3.45703 9.22852-3.45703C9.67773-3.45703 9.9707-3.75977 9.9707-4.19922L9.9707-6.31836L12.0996-6.31836C12.5391-6.31836 12.8418-6.61133 12.8418-7.04102C12.8418-7.48047 12.5391-7.7832 12.0996-7.7832L9.9707-7.7832L9.9707-9.89258C9.9707-10.3418 9.67773-10.6445 9.22852-10.6445C8.79883-10.6445 8.50586-10.3418 8.50586-9.89258L8.50586-7.7832L6.39648-7.7832C5.94727-7.7832 5.64453-7.48047 5.64453-7.04102C5.64453-6.61133 5.94727-6.31836 6.39648-6.31836Z"/>
  </g>
  <g id="" transform="matrix(1 0 0 1 281.506 1933)">
   <path d="M11.709 2.91016C17.1582 2.91016 21.6699-1.61133 21.6699-7.05078C21.6699-12.5 17.1484-17.0117 11.6992-17.0117C6.25977-17.0117 1.74805-12.5 1.74805-7.05078C1.74805-1.61133 6.26953 2.91016 11.709 2.91016ZM11.709 1.25C7.09961 1.25 3.41797-2.44141 3.41797-7.05078C3.41797-11.6602 7.08984-15.3516 11.6992-15.3516C16.3086-15.3516 20-11.6602 20.0098-7.05078C20.0195-2.44141 16.3184 1.25 11.709 1.25ZM7.98828-6.23047L10.8789-6.23047L10.8789-3.32031C10.8789-2.83203 11.2109-2.5 11.6895-2.5C12.1777-2.5 12.5195-2.83203 12.5195-3.32031L12.5195-6.23047L15.4297-6.23047C15.918-6.23047 16.25-6.5625 16.25-7.04102C16.25-7.5293 15.918-7.87109 15.4297-7.87109L12.5195-7.87109L12.5195-10.7617C12.5195-11.2695 12.1777-11.6016 11.6895-11.6016C11.2109-11.6016 10.8789-11.2598 10.8789-10.7617L10.8789-7.87109L7.98828-7.87109C7.48047-7.87109 7.14844-7.5293 7.14844-7.04102C7.14844-6.5625 7.49023-6.23047 7.98828-6.23047Z"/>
  </g>
  <g id="" transform="matrix(1 0 0 1 304.924 1933)">
   <path d="M14.9707 5.66406C21.9336 5.66406 27.6953-0.0976562 27.6953-7.05078C27.6953-14.0137 21.9238-19.7754 14.9609-19.7754C8.00781-19.7754 2.25586-14.0137 2.25586-7.05078C2.25586-0.0976562 8.01758 5.66406 14.9707 5.66406ZM14.9707 3.84766C8.93555 3.84766 4.08203-1.01562 4.08203-7.05078C4.08203-13.0957 8.92578-17.9492 14.9609-17.9492C21.0059-17.9492 25.8594-13.0957 25.8691-7.05078C25.8789-1.01562 21.0156 3.84766 14.9707 3.84766ZM10.0586-6.14258L14.0625-6.14258L14.0625-2.12891C14.0625-1.5918 14.4336-1.2207 14.9512-1.2207C15.4883-1.2207 15.8594-1.5918 15.8594-2.12891L15.8594-6.14258L19.8828-6.14258C20.4102-6.14258 20.791-6.51367 20.791-7.03125C20.791-7.56836 20.4199-7.94922 19.8828-7.94922L15.8594-7.94922L15.8594-11.9531C15.8594-12.5098 15.4883-12.8809 14.9512-12.8809C14.4336-12.8809 14.0625-12.5 14.0625-11.9531L14.0625-7.94922L10.0586-7.94922C9.50195-7.94922 9.13086-7.56836 9.13086-7.03125C9.13086-6.51367 9.51172-6.14258 10.0586-6.14258Z"/>
  </g>
  <text style="stroke:none;fill:black;font-family:-apple-system,&quot;SF Pro Display&quot;,&quot;SF Pro Text&quot;,Helvetica,sans-serif;font-weight:bold;" transform="matrix(1 0 0 1 263 1953)">Design Variations</text>
  <text style="stroke:none;fill:black;font-family:-apple-system,&quot;SF Pro Display&quot;,&quot;SF Pro Text&quot;,Helvetica,sans-serif;" transform="matrix(1 0 0 1 263 1971)">Symbols are supported in up to nine weights and three scales.</text>
  <text style="stroke:none;fill:black;font-family:-apple-system,&quot;SF Pro Display&quot;,&quot;SF Pro Text&quot;,Helvetica,sans-serif;" transform="matrix(1 0 0 1 263 1989)">For optimal layout with text and other symbols, vertically align</text>
  <text style="stroke:none;fill:black;font-family:-apple-system,&quot;SF Pro Display&quot;,&quot;SF Pro Text&quot;,Helvetica,sans-serif;" transform="matrix(1 0 0 1 263 2007)">symbols with the adjacent text.</text>
  <line id="" style="fill:none;stroke:#00AEEF;stroke-width:0.5;opacity:1.0;" x1="776" x2="776" y1="1919" y2="1933"/>
  <g id="" transform="matrix(1 0 0 1 776 1933)">
   <path d="M3.31055 0.126953C3.82812 0.126953 4.08203-0.0683594 4.26758-0.605469L5.52734-4.0625L11.2891-4.0625L12.5488-0.605469C12.7344-0.0683594 12.9883 0.126953 13.4961 0.126953C14.0137 0.126953 14.3457-0.185547 14.3457-0.673828C14.3457-0.839844 14.3164-0.986328 14.2383-1.20117L9.6582-13.3887C9.43359-13.9941 9.0332-14.2871 8.4082-14.2871C7.80273-14.2871 7.39258-13.9941 7.17773-13.3984L2.59766-1.19141C2.51953-0.976562 2.49023-0.830078 2.49023-0.664062C2.49023-0.175781 2.80273 0.126953 3.31055 0.126953ZM6.00586-5.53711L8.37891-12.1094L8.42773-12.1094L10.8008-5.53711Z"/>
  </g>
  <line id="" style="fill:none;stroke:#00AEEF;stroke-width:0.5;opacity:1.0;" x1="792.836" x2="792.836" y1="1919" y2="1933"/>
  <text style="stroke:none;fill:black;font-family:-apple-system,&quot;SF Pro Display&quot;,&quot;SF Pro Text&quot;,Helvetica,sans-serif;font-weight:bold;" transform="matrix(1 0 0 1 776 1953)">Margins</text>
  <text style="stroke:none;fill:black;font-family:-apple-system,&quot;SF Pro Display&quot;,&quot;SF Pro Text&quot;,Helvetica,sans-serif;" transform="matrix(1 0 0 1 776 1971)">Leading and trailing margins on the left and right side of each symbol</text>
  <text style="stroke:none;fill:black;font-family:-apple-system,&quot;SF Pro Display&quot;,&quot;SF Pro Text&quot;,Helvetica,sans-serif;" transform="matrix(1 0 0 1 776 1989)">can be adjusted by modifying the x-location of the margin guidelines.</text>
  <text style="stroke:none;fill:black;font-family:-apple-system,&quot;SF Pro Display&quot;,&quot;SF Pro Text&quot;,Helvetica,sans-serif;" transform="matrix(1 0 0 1 776 2007)">Modifications are automatically applied proportionally to all</text>
  <text style="stroke:none;fill:black;font-family:-apple-system,&quot;SF Pro Display&quot;,&quot;SF Pro Text&quot;,Helvetica,sans-serif;" transform="matrix(1 0 0 1 776 2025)">scales and weights.</text>
  <g id="" transform="matrix(1 0 0 1 1289 1933)">
   <path d="M2.8418 1.86523L4.54102 3.57422C5.40039 4.44336 6.38672 4.38477 7.31445 3.35938L17.4902-7.85156C17.7539-7.76367 18.0273-7.7832 18.3398-7.8418L19.4043-8.03711L20.0684-7.36328L20.0293-6.80664C19.9902-6.30859 20.1172-5.92773 20.6055-5.44922L21.3672-4.70703C21.8457-4.22852 22.4609-4.19922 22.9297-4.66797L25.8398-7.58789C26.3086-8.05664 26.2891-8.65234 25.8105-9.13086L25.0391-9.89258C24.5605-10.3711 24.1895-10.5273 23.7109-10.4883L23.1348-10.4395L22.4902-11.0742L22.7344-12.1973C22.8613-12.7637 22.7051-13.2031 22.1191-13.7891L19.9219-15.9766C16.582-19.2969 12.1484-19.2188 9.25781-16.3281C8.83789-15.918 8.80859-15.3418 9.04297-14.9512C9.27734-14.5898 9.73633-14.3555 10.3809-14.5215C11.8457-14.8633 13.3691-14.9219 14.7949-13.9844L14.209-12.5293C14.0137-12.0508 13.9844-11.6504 14.1113-11.2891L3.04688-0.898438C2.06055 0.0195312 1.98242 0.996094 2.8418 1.86523ZM10.752-15.957C13.1836-17.7344 16.4746-17.4316 18.7012-15.2051L21.1328-12.793C21.3672-12.5586 21.4062-12.373 21.3379-12.0312L21.0156-10.5469L22.5195-9.0625L23.5059-9.12109C23.7598-9.13086 23.8379-9.11133 24.0332-8.91602L24.6094-8.33984L22.168-5.89844L21.5918-6.47461C21.3965-6.66992 21.3672-6.74805 21.377-7.01172L21.4453-7.98828L19.9512-9.47266L18.4277-9.21875C18.1055-9.15039 17.959-9.17969 17.7148-9.41406L15.7129-11.416C15.459-11.6504 15.4297-11.8164 15.5859-12.1875L16.4648-14.2773C14.9023-15.7324 12.8711-16.3574 10.8398-15.7617C10.6836-15.7227 10.625-15.8496 10.752-15.957ZM5.27344 2.30469L4.10156 1.14258C3.63281 0.683594 3.74023 0.341797 4.14062-0.0195312L14.9512-10.1953L16.416-8.71094L6.42578 2.27539C6.07422 2.67578 5.74219 2.77344 5.27344 2.30469Z"/>
  </g>
  <text style="stroke:none;fill:black;font-family:-apple-system,&quot;SF Pro Display&quot;,&quot;SF Pro Text&quot;,Helvetica,sans-serif;font-weight:bold;" transform="matrix(1 0 0 1 1289 1953)">Exporting</text>
  <text style="stroke:none;fill:black;font-family:-apple-system,&quot;SF Pro Display&quot;,&quot;SF Pro Text&quot;,Helvetica,sans-serif;" transform="matrix(1 0 0 1 1289 1971)">Symbols should be outlined when exporting to ensure the</text>
  <text style="stroke:none;fill:black;font-family:-apple-system,&quot;SF Pro Display&quot;,&quot;SF Pro Text&quot;,Helvetica,sans-serif;" transform="matrix(1 0 0 1 1289 1989)">design is preserved when submitting to Xcode.</text>
  <text id="template-version" style="stroke:none;fill:black;font-family:-apple-system,&quot;SF Pro Display&quot;,&quot;SF Pro Text&quot;,Helvetica,sans-serif;text-anchor:end;" transform="matrix(1 0 0 1 3036 1933)">Template v.2.0</text>
  <text style="stroke:none;fill:black;font-family:-apple-system,&quot;SF Pro Display&quot;,&quot;SF Pro Text&quot;,Helvetica,sans-serif;text-anchor:end;" transform="matrix(1 0 0 1 3036 1951)">Requires Xcode 12 or greater</text>
  <text style="stroke:none;fill:black;font-family:-apple-system,&quot;SF Pro Display&quot;,&quot;SF Pro Text&quot;,Helvetica,sans-serif;text-anchor:end;" transform="matrix(1 0 0 1 3036 1969)">Generated from speaker.wave.2.circle</text>
  <text style="stroke:none;fill:black;font-family:-apple-system,&quot;SF Pro Display&quot;,&quot;SF Pro Text&quot;,Helvetica,sans-serif;text-anchor:end;" transform="matrix(1 0 0 1 3036 1987)">Typeset at 100 points</text>
  <text style="stroke:none;fill:black;font-family:-apple-system,&quot;SF Pro Display&quot;,&quot;SF Pro Text&quot;,Helvetica,sans-serif;" transform="matrix(1 0 0 1 263 726)">Small</text>
  <text style="stroke:none;fill:black;font-family:-apple-system,&quot;SF Pro Display&quot;,&quot;SF Pro Text&quot;,Helvetica,sans-serif;" transform="matrix(1 0 0 1 263 1156)">Medium</text>
  <text style="stroke:none;fill:black;font-family:-apple-system,&quot;SF Pro Display&quot;,&quot;SF Pro Text&quot;,Helvetica,sans-serif;" transform="matrix(1 0 0 1 263 1586)">Large</text>
 </g>
 <g id="Guides">
  <g id="H-reference" style="fill:#27AAE1;stroke:none;" transform="matrix(1 0 0 1 339 696)">
   <path d="M0.976562 0L3.66211 0L12.9883-24.4629L45.752-24.4629L55.127 0L57.7637 0L30.6152-70.459L28.125-70.459ZM29.3457-67.1387L29.4434-67.1387L44.873-26.709L13.8672-26.709Z"/>
  </g>
  <line id="Baseline-S" style="fill:none;stroke:#27AAE1;opacity:1;stroke-width:0.5;" x1="263" x2="3036" y1="696" y2="696"/>
  <line id="Capline-S" style="fill:none;stroke:#27AAE1;opacity:1;stroke-width:0.5;" x1="263" x2="3036" y1="625.541" y2="625.541"/>
  <g id="H-reference" style="fill:#27AAE1;stroke:none;" transform="matrix(1 0 0 1 339 1126)">
   <path d="M0.976562 0L3.66211 0L12.9883-24.4629L45.752-24.4629L55.127 0L57.7637 0L30.6152-70.459L28.125-70.459ZM29.3457-67.1387L29.4434-67.1387L44.873-26.709L13.8672-26.709Z"/>
  </g>
  <line id="Baseline-M" style="fill:none;stroke:#27AAE1;opacity:1;stroke-width:0.5;" x1="263" x2="3036" y1="1126" y2="1126"/>
  <line id="Capline-M" style="fill:none;stroke:#27AAE1;opacity:1;stroke-width:0.5;" x1="263" x2="3036" y1="1055.54" y2="1055.54"/>
  <g id="H-reference" style="fill:#27AAE1;stroke:none;" transform="matrix(1 0 0 1 339 1556)">
   <path d="M0.976562 0L3.66211 0L12.9883-24.4629L45.752-24.4629L55.127 0L57.7637 0L30.6152-70.459L28.125-70.459ZM29.3457-67.1387L29.4434-67.1387L44.873-26.709L13.8672-26.709Z"/>
  </g>
  <line id="Baseline-L" style="fill:none;stroke:#27AAE1;opacity:1;stroke-width:0.5;" x1="263" x2="3036" y1="1556" y2="1556"/>
  <line id="Capline-L" style="fill:none;stroke:#27AAE1;opacity:1;stroke-width:0.5;" x1="263" x2="3036" y1="1485.54" y2="1485.54"/>
  <line id="left-margin" style="fill:none;stroke:#00AEEF;stroke-width:0.5;opacity:1.0;" x1="1391.3" x2="1391.3" y1="1030.79" y2="1150.12"/>
  <line id="right-margin" style="fill:none;stroke:#00AEEF;stroke-width:0.5;opacity:1.0;" x1="1508.39" x2="1508.39" y1="1030.79" y2="1150.12"/>
 </g>
 <g id="Symbols">
  <g id="Black-L" transform="matrix(1 0 0 1 2854.05 1556)">
   <path d="M79.3457 32.8613C116.748 32.8613 147.412 2.19727 147.412-35.2051C147.412-72.6074 116.748-103.271 79.2969-103.271C41.8945-103.271 11.2793-72.6074 11.2793-35.2051C11.2793 2.19727 41.9434 32.8613 79.3457 32.8613ZM79.3457 12.4023C52.9785 12.4023 31.7383-8.83789 31.7383-35.2051C31.7383-61.5723 52.9297-82.8125 79.2969-82.8125C105.664-82.8125 126.953-61.5723 126.953-35.2051C127.002-8.83789 105.713 12.4023 79.3457 12.4023ZM74.8047-9.81445C77.4902-9.81445 79.7363-11.9629 79.7363-14.7461L79.7363-55.6152C79.7363-58.3984 77.4902-60.5469 74.7559-60.5469C72.9492-60.5469 71.6309-59.8145 69.7266-58.1543L58.5938-48.1445C58.4961-47.9004 58.3496-47.9004 58.2031-47.9004L51.3184-47.9004C46.3379-47.9004 43.6035-45.166 43.6035-39.9414L43.6035-30.4688C43.6035-25.2441 46.3379-22.4609 51.3184-22.4609L58.2031-22.4609C58.3496-22.4609 58.4961-22.4121 58.5938-22.3145L69.7266-12.1094C71.4844-10.5469 72.9004-9.81445 74.8047-9.81445ZM101.904-13.6719C103.955-12.4512 106.445-12.9883 107.617-14.9414C111.377-20.9473 113.525-27.7832 113.525-35.1562C113.525-42.627 111.426-49.5117 107.617-55.3223C106.396-57.3242 103.906-57.8613 101.904-56.6895C99.6094-55.3223 99.3164-52.6367 100.879-50.0977C103.564-45.9961 104.98-40.625 104.98-35.1562C104.98-29.7363 103.564-24.4141 100.879-20.2148C99.3164-17.6758 99.5605-14.9414 101.904-13.6719ZM88.9648-21.4355C90.918-20.166 93.3594-20.8008 94.5801-22.5098C97.0215-25.9277 98.584-30.4199 98.584-35.2051C98.584-39.9414 97.0703-44.4824 94.5801-47.9004C93.457-49.6094 90.9668-50.1465 88.9648-48.9746C86.8164-47.7051 86.3281-45.0684 88.0859-42.1387C89.3066-40.2344 89.9902-37.793 89.9902-35.2051C89.9902-32.7148 89.2578-30.2246 88.0859-28.2715C86.377-25.293 86.8164-22.8027 88.9648-21.4355Z"/>
  </g>
  <g id="Heavy-L" transform="matrix(1 0 0 1 2558.39 1556)">
   <path d="M78.2715 31.7871C115.088 31.7871 145.312 1.5625 145.312-35.2051C145.312-72.0215 115.039-102.246 78.2715-102.246C41.4551-102.246 11.2793-72.0215 11.2793-35.2051C11.2793 1.5625 41.5039 31.7871 78.2715 31.7871ZM78.2715 14.0137C51.0254 14.0137 29.0527-7.95898 29.0527-35.2051C29.0527-62.5 50.9766-84.4727 78.2715-84.4727C105.518-84.4727 127.49-62.5 127.539-35.2051C127.539-7.95898 105.566 14.0137 78.2715 14.0137ZM74.3652-9.08203C76.9043-9.08203 78.9062-11.084 78.9062-13.6719L78.9062-56.6895C78.9062-59.2773 76.9043-61.2793 74.3164-61.2793C72.6074-61.2793 71.3867-60.5469 69.6289-58.9844L57.7637-48.1445C57.6172-47.9492 57.4219-47.9004 57.2266-47.9004L49.6582-47.9004C44.9219-47.9004 42.2852-45.2637 42.2852-40.2832L42.2852-30.127C42.2852-25.1465 44.9219-22.4609 49.6582-22.4609L57.2266-22.4609C57.4219-22.4609 57.6172-22.4121 57.7637-22.2656L69.6289-11.2793C71.2402-9.81445 72.6074-9.08203 74.3652-9.08203ZM101.221-13.4277C103.125-12.3047 105.371-12.7441 106.543-14.5996C110.4-20.5078 112.646-27.5391 112.646-35.1562C112.646-42.7734 110.449-49.8047 106.543-55.7617C105.371-57.6172 103.076-58.1055 101.221-56.9824C99.1211-55.7129 98.877-53.2227 100.293-50.9766C103.174-46.582 104.736-41.0156 104.736-35.1562C104.736-29.3945 103.174-23.7305 100.293-19.3848C98.877-17.1387 99.0723-14.5996 101.221-13.4277ZM88.623-21.3867C90.3809-20.166 92.6758-20.7031 93.8477-22.3633C96.3379-25.7324 97.9004-30.3711 97.9004-35.2051C97.9004-40.0391 96.3379-44.6289 93.8477-48.0957C92.7246-49.707 90.4297-50.1953 88.623-49.0723C86.6699-47.9004 86.2305-45.459 87.793-42.8711C89.1602-40.8691 89.9414-38.0859 89.9414-35.2051C89.9414-32.4219 89.1113-29.6387 87.793-27.5879C86.2305-24.9023 86.6211-22.6562 88.623-21.3867Z"/>
  </g>
  <g id="Bold-L" transform="matrix(1 0 0 1 2262.88 1556)">
   <path d="M77.0996 30.5664C113.232 30.5664 142.92 0.878906 142.92-35.2539C142.92-71.3379 113.184-101.074 77.0508-101.074C40.9668-101.074 11.2793-71.3379 11.2793-35.2539C11.2793 0.878906 41.0156 30.5664 77.0996 30.5664ZM77.0996 15.8203C48.8281 15.8203 26.0742-6.98242 26.0742-35.2539C26.0742-63.5254 48.7793-86.2793 77.0508-86.2793C105.371-86.2793 128.125-63.5254 128.174-35.2539C128.174-6.98242 105.371 15.8203 77.0996 15.8203ZM73.877-8.30078C76.2207-8.30078 77.9785-10.1074 77.9785-12.4512L77.9785-57.9102C77.9785-60.2539 76.2207-62.1094 73.877-62.1094C72.2656-62.1094 71.0938-61.4258 69.4824-59.9121L56.7871-48.1934C56.6406-47.9492 56.3965-47.9492 56.1523-47.9492L47.8516-47.9492C43.3594-47.9492 40.8203-45.3613 40.8203-40.625L40.8203-29.7363C40.8203-25.0488 43.3594-22.4609 47.8516-22.4609L56.1523-22.4609C56.3965-22.4609 56.6406-22.3633 56.7871-22.2168L69.4824-10.3516C70.9961-8.98438 72.2656-8.30078 73.877-8.30078ZM100.439-13.1348C102.197-12.1094 104.199-12.5 105.273-14.1602C109.326-20.0684 111.67-27.2949 111.67-35.2051C111.67-42.8711 109.424-50.1465 105.322-56.25C104.199-57.959 102.148-58.3984 100.439-57.3242C98.6328-56.1523 98.3887-53.9062 99.6582-51.9531C102.783-47.3145 104.492-41.4062 104.492-35.2051C104.492-29.0039 102.783-22.9492 99.6094-18.5059C98.3398-16.5039 98.5352-14.2578 100.439-13.1348ZM88.1836-21.2891C89.7949-20.166 91.8945-20.6055 93.0664-22.168C95.6055-25.5371 97.0703-30.3223 97.0703-35.2539C97.0703-40.1367 95.5566-44.873 93.0664-48.291C91.9922-49.8047 89.8438-50.2441 88.1836-49.2188C86.4258-48.0469 86.084-45.8984 87.4512-43.6523C88.9648-41.6016 89.8926-38.4766 89.8926-35.2539C89.8926-32.1289 88.916-29.0527 87.4512-26.7578C86.084-24.5605 86.4258-22.5098 88.1836-21.2891Z"/>
  </g>
  <g id="Semibold-L" transform="matrix(1 0 0 1 1966.97 1556)">
   <path d="M76.2695 29.7363C111.914 29.7363 141.309 0.390625 141.309-35.2539C141.309-70.8984 111.865-100.244 76.2695-100.244C40.625-100.244 11.2793-70.8984 11.2793-35.2539C11.2793 0.390625 40.6738 29.7363 76.2695 29.7363ZM76.2695 17.041C47.3145 17.041 24.0234-6.25 24.0234-35.2539C24.0234-64.209 47.2656-87.5488 76.2695-87.5488C105.225-87.5488 128.564-64.209 128.613-35.2539C128.662-6.25 105.273 17.041 76.2695 17.041ZM73.584-7.76367C75.7324-7.76367 77.3438-9.42383 77.3438-11.6211L77.3438-58.7402C77.3438-60.9375 75.7324-62.6953 73.5352-62.6953C71.9727-62.6953 70.9473-62.0117 69.3848-60.5957L56.1523-48.1934C55.957-47.9492 55.7129-47.9492 55.3711-47.9492L46.582-47.9492C42.334-47.9492 39.8438-45.4102 39.8438-40.918L39.8438-29.4922C39.8438-24.9512 42.334-22.4609 46.582-22.4609L55.3711-22.4609C55.7129-22.4609 55.957-22.3633 56.1523-22.168L69.3848-9.76562C70.8008-8.44727 72.0215-7.76367 73.584-7.76367ZM99.9023-12.9883C101.514-12.0117 103.418-12.3047 104.443-13.8672C108.594-19.7266 110.986-27.0996 110.986-35.2539C110.986-42.9688 108.691-50.3906 104.492-56.5918C103.418-58.2031 101.465-58.5938 99.9023-57.5684C98.2422-56.4453 97.998-54.3945 99.1699-52.6367C102.539-47.8027 104.297-41.6992 104.297-35.2539C104.297-28.7109 102.49-22.4121 99.1699-17.8711C97.9492-16.1133 98.1934-14.0137 99.9023-12.9883ZM87.9395-21.1914C89.4043-20.166 91.4062-20.5566 92.4805-22.0215C95.0684-25.4395 96.5332-30.2734 96.5332-35.2539C96.5332-40.1855 95.0195-45.0195 92.4805-48.4375C91.4551-49.9023 89.4043-50.293 87.9395-49.3164C86.2793-48.1934 85.9863-46.1914 87.2559-44.2383C88.8672-42.041 89.8438-38.7695 89.8438-35.2539C89.8438-31.8848 88.8184-28.6133 87.207-26.2207C85.9863-24.2676 86.2793-22.3633 87.9395-21.1914Z"/>
  </g>
  <g id="Medium-L" transform="matrix(1 0 0 1 1670.87 1556)">
   <path d="M75.6836 29.1504C110.938 29.1504 140.088 0 140.088-35.2539C140.088-70.5078 110.889-99.6582 75.6348-99.6582C40.3809-99.6582 11.2793-70.5078 11.2793-35.2539C11.2793 0 40.3809 29.1504 75.6836 29.1504ZM75.6836 18.0176C46.1426 18.0176 22.4609-5.76172 22.4609-35.2539C22.4609-64.7461 46.1426-88.5254 75.6348-88.5254C105.127-88.5254 128.906-64.7461 128.906-35.2539C128.955-5.76172 105.176 18.0176 75.6836 18.0176ZM73.3398-7.37305C75.3906-7.37305 76.8555-8.93555 76.8555-10.9863L76.8555-59.375C76.8555-61.4746 75.3906-63.0859 73.291-63.0859C71.7773-63.0859 70.8008-62.4512 69.2871-61.084L55.6641-48.1934C55.4199-47.998 55.127-47.9492 54.834-47.9492L45.6543-47.9492C41.5039-47.9492 39.0625-45.5078 39.0625-41.1133L39.0625-29.2969C39.0625-24.9023 41.5039-22.4609 45.6543-22.4609L54.834-22.4609C55.127-22.4609 55.4199-22.3633 55.6641-22.168L69.2871-9.27734C70.6543-8.00781 71.8262-7.37305 73.3398-7.37305ZM99.5117-12.8418C101.025-11.9141 102.783-12.207 103.809-13.6719C108.008-19.4824 110.449-26.9531 110.449-35.2539C110.449-43.0664 108.154-50.5859 103.857-56.8359C102.832-58.3496 100.977-58.7402 99.5117-57.7637C97.998-56.6406 97.7539-54.7852 98.8281-53.125C102.295-48.1445 104.15-41.8945 104.15-35.2539C104.15-28.5156 102.295-22.0215 98.7793-17.3828C97.6562-15.7715 97.9004-13.8184 99.5117-12.8418ZM87.6953-21.1426C89.0625-20.166 90.9668-20.5078 92.041-21.9238C94.6777-25.3418 96.1426-30.2246 96.1426-35.2539C96.1426-40.2344 94.6289-45.1172 92.041-48.584C91.0645-50 89.1113-50.3418 87.6953-49.3652C86.1816-48.291 85.8887-46.3867 87.0605-44.6289C88.7695-42.4316 89.7949-38.9648 89.7949-35.2539C89.7949-31.7383 88.7207-28.2715 87.0117-25.8301C85.8887-24.0723 86.1816-22.3145 87.6953-21.1426Z"/>
  </g>
  <g id="Regular-L" transform="matrix(1 0 0 1 1374.97 1556)">
   <path d="M74.8535 28.3203C109.668 28.3203 138.477-0.488281 138.477-35.2539C138.477-70.0684 109.619-98.877 74.8047-98.877C40.0391-98.877 11.2793-70.0684 11.2793-35.2539C11.2793-0.488281 40.0879 28.3203 74.8535 28.3203ZM74.8535 19.2383C44.6777 19.2383 20.4102-5.07812 20.4102-35.2539C20.4102-65.4785 44.6289-89.7461 74.8047-89.7461C105.029-89.7461 129.297-65.4785 129.346-35.2539C129.395-5.07812 105.078 19.2383 74.8535 19.2383ZM72.998-6.83594C74.9023-6.83594 76.2207-8.25195 76.2207-10.1562L76.2207-60.2051C76.2207-62.1094 74.9023-63.6719 72.9492-63.6719C71.5332-63.6719 70.6055-62.9883 69.1895-61.7188L54.9805-48.2422C54.7363-47.998 54.4434-47.9492 54.1016-47.9492L44.4336-47.9492C40.4297-47.9492 38.0371-45.5566 38.0371-41.3574L38.0371-29.0039C38.0371-24.8047 40.4297-22.4609 44.4336-22.4609L54.1016-22.4609C54.4434-22.4609 54.7363-22.3145 54.9805-22.1191L69.1895-8.64258C70.459-7.42188 71.582-6.83594 72.998-6.83594ZM98.9746-12.6465C100.391-11.7676 102.002-12.0117 102.979-13.3789C107.275-19.1895 109.766-26.7578 109.766-35.2539C109.766-43.1641 107.422-50.7812 103.027-57.1289C102.051-58.5938 100.342-58.8867 98.9746-57.959C97.6562-56.9336 97.4121-55.2246 98.3887-53.8086C102.051-48.6328 104.004-42.1875 104.004-35.2539C104.004-28.2715 102.002-21.4844 98.3398-16.748C97.3145-15.3809 97.5098-13.5742 98.9746-12.6465ZM87.4512-21.0938C88.6719-20.1172 90.4785-20.459 91.5039-21.8262C94.1406-25.1953 95.6055-30.1758 95.6055-35.2539C95.6055-40.332 94.0918-45.2637 91.5039-48.7305C90.5273-50.0488 88.6719-50.3906 87.4512-49.4629C86.0352-48.3887 85.791-46.6797 86.8164-45.2148C88.623-42.9199 89.7461-39.209 89.7461-35.2539C89.7461-31.543 88.623-27.832 86.7676-25.293C85.791-23.7793 86.0352-22.168 87.4512-21.0938Z"/>
  </g>
  <g id="Light-L" transform="matrix(1 0 0 1 1079.18 1556)">
   <path d="M73.9258 27.3926C108.301 27.3926 136.621-0.927734 136.621-35.2539C136.621-69.6289 108.252-97.9492 73.9258-97.9492C39.5508-97.9492 11.2793-69.6289 11.2793-35.2539C11.2793-0.927734 39.5996 27.3926 73.9258 27.3926ZM73.9258 20.5078C43.1152 20.5078 18.2129-4.44336 18.2129-35.2539C18.2129-66.1133 43.0664-91.0156 73.9258-91.0156C104.736-91.0156 129.688-66.1133 129.736-35.2539C129.736-4.44336 104.785 20.5078 73.9258 20.5078ZM72.3633-6.78711C74.0723-6.78711 75.1465-8.05664 75.1465-9.7168L75.1465-60.6934C75.1465-62.3535 74.0723-63.7207 72.3145-63.7207C71.0938-63.7207 70.2148-63.0859 69.0918-62.0605L54.2969-47.9004C54.0039-47.6074 53.6621-47.5098 53.2227-47.5098L43.0176-47.5098C39.502-47.5098 37.1582-45.166 37.1582-41.5039L37.1582-28.8086C37.1582-25.1465 39.502-22.7539 43.0176-22.7539L53.2227-22.7539C53.6621-22.7539 54.0039-22.6074 54.2969-22.3633L69.0918-8.34961C70.1172-7.37305 71.0938-6.78711 72.3633-6.78711ZM99.0723-12.5488C100.195-11.8164 101.465-11.9629 102.344-13.0859C106.738-18.6523 109.326-26.1719 109.326-35.2539C109.326-43.1641 106.934-50.6836 102.441-57.373C101.611-58.5938 100.195-58.8379 99.0723-58.1055C97.9492-57.1777 97.8027-55.8105 98.584-54.6387C102.49-48.9258 104.492-42.3828 104.492-35.2539C104.492-27.7832 102.441-20.8008 98.4863-15.918C97.6562-14.7949 97.8516-13.3301 99.0723-12.5488ZM87.0117-21.1426C88.0371-20.3125 89.5508-20.5566 90.4297-21.6797C93.1641-25.1465 94.6289-30.2246 94.6289-35.2539C94.6289-40.332 93.1641-45.3125 90.4297-48.8281C89.5508-50 88.0371-50.1953 87.0117-49.4141C85.8887-48.5352 85.6934-47.168 86.5234-45.9473C88.5742-43.457 89.7461-39.5508 89.7461-35.2539C89.7461-31.2012 88.5254-27.3438 86.4258-24.5117C85.6934-23.3398 85.8398-22.0703 87.0117-21.1426Z"/>
  </g>
  <g id="Thin-L" transform="matrix(1 0 0 1 783.693 1556)">
   <path d="M72.7051 26.1719C106.494 26.1719 134.18-1.51367 134.18-35.2539C134.18-69.043 106.494-96.7285 72.7051-96.7285C38.9648-96.7285 11.2793-69.043 11.2793-35.2539C11.2793-1.51367 38.9648 26.1719 72.7051 26.1719ZM72.7051 22.168C41.0156 22.168 15.2832-3.56445 15.2832-35.2539C15.2832-66.9922 41.0156-92.7246 72.7051-92.7246C104.395-92.7246 130.176-66.9922 130.176-35.2539C130.176-3.56445 104.443 22.168 72.7051 22.168ZM71.4844-6.73828C72.9492-6.73828 73.6816-7.8125 73.6816-9.17969L73.6816-61.3281C73.6816-62.6953 72.9492-63.8184 71.4844-63.8184C70.459-63.8184 69.7266-63.2324 68.9453-62.5488L53.418-47.4609C53.0273-47.1191 52.6367-46.9727 52.0996-46.9727L41.2109-46.9727C38.2812-46.9727 35.9375-44.6777 35.9375-41.748L35.9375-28.5156C35.9375-25.5371 38.2812-23.1934 41.2109-23.1934L52.0996-23.1934C52.6367-23.1934 53.0273-23.0469 53.418-22.7051L68.9453-7.95898C69.6777-7.32422 70.459-6.73828 71.4844-6.73828ZM99.1699-12.4023C99.9512-11.8652 100.781-11.8652 101.562-12.7441C106.055-17.9199 108.74-25.3418 108.74-35.2539C108.74-43.1641 106.25-50.5859 101.709-57.7148C101.074-58.6426 100-58.7891 99.1699-58.252C98.3887-57.5195 98.291-56.5918 98.7793-55.7129C103.125-49.3164 105.176-42.627 105.176-35.2539C105.176-27.1484 103.027-19.9219 98.6328-14.7461C98.0957-14.0625 98.2422-12.9883 99.1699-12.4023ZM86.4746-21.1914C87.1582-20.5566 88.3301-20.7031 89.0137-21.5332C91.8945-25.1465 93.3105-30.2734 93.3105-35.2539C93.3105-40.3809 91.8457-45.3613 89.0137-48.9746C88.3301-49.8535 87.1582-49.9512 86.4746-49.3652C85.6934-48.7305 85.5469-47.8027 86.084-46.9238C88.4277-44.2383 89.7461-39.9902 89.7461-35.2539C89.7461-30.8105 88.3789-26.6113 85.9375-23.4863C85.5469-22.7051 85.6445-21.875 86.4746-21.1914Z"/>
  </g>
  <g id="Ultralight-L" transform="matrix(1 0 0 1 487.616 1556)">
   <path d="M72.1191 25.5371C105.566 25.5371 132.91-1.80664 132.91-35.2539C132.91-68.75 105.566-96.0938 72.1191-96.0938C38.623-96.0938 11.2793-68.75 11.2793-35.2539C11.2793-1.80664 38.623 25.5371 72.1191 25.5371ZM72.1191 23.0469C39.9414 23.0469 13.7695-3.125 13.7695-35.2539C13.7695-67.4316 39.9414-93.6035 72.1191-93.6035C104.248-93.6035 130.42-67.4316 130.42-35.2539C130.42-3.125 104.248 23.0469 72.1191 23.0469ZM71.0449-6.68945C72.3633-6.68945 72.9004-7.71484 72.9004-8.93555L72.9004-61.6211C72.9004-62.8418 72.3633-63.8184 71.0449-63.8184C70.166-63.8184 69.4336-63.2812 68.8965-62.793L52.9297-47.2168C52.5391-46.875 52.0996-46.7285 51.5137-46.7285L40.2344-46.7285C37.6465-46.7285 35.3516-44.3848 35.3516-41.8457L35.3516-28.3691C35.3516-25.7324 37.6465-23.3887 40.2344-23.3887L51.5137-23.3887C52.0996-23.3887 52.5391-23.2422 52.9297-22.9004L68.8965-7.76367C69.4824-7.27539 70.166-6.68945 71.0449-6.68945ZM99.2188-12.3047C99.8535-11.8652 100.439-11.8652 101.123-12.5977C105.664-17.5781 108.447-24.9512 108.447-35.2539C108.447-43.1641 105.908-50.5371 101.318-57.8613C100.83-58.6914 99.9512-58.7402 99.2188-58.3008C98.6328-57.7148 98.584-57.0312 98.9258-56.2988C103.418-49.5117 105.518-42.7246 105.518-35.2539C105.518-26.8066 103.32-19.4336 98.7305-14.1602C98.3398-13.7207 98.4863-12.8418 99.2188-12.3047ZM86.1816-21.1914C86.7188-20.7031 87.6953-20.752 88.2812-21.4844C91.2109-25.1465 92.6758-30.2734 92.6758-35.2539C92.6758-40.4297 91.2109-45.4102 88.2812-49.0723C87.6953-49.8047 86.7188-49.8535 86.1816-49.3164C85.5957-48.8281 85.4492-48.1445 85.8887-47.4121C88.3789-44.6289 89.7461-40.1855 89.7461-35.2539C89.7461-30.5664 88.2812-26.2695 85.6934-22.9492C85.4492-22.4121 85.5469-21.7773 86.1816-21.1914Z"/>
  </g>
  <g id="Black-M" transform="matrix(1 0 0 1 2870.97 1126)">
   <path d="M62.4023 18.457C91.9922 18.457 116.113-5.61523 116.113-35.2051C116.113-64.7949 91.9922-88.8672 62.4023-88.8672C32.8125-88.8672 8.74023-64.7949 8.74023-35.2051C8.74023-5.61523 32.8125 18.457 62.4023 18.457ZM62.4023 0.195312C42.8711 0.195312 27.002-15.625 27.002-35.2051C27.002-54.7363 42.8711-70.6055 62.4023-70.6055C81.9824-70.6055 97.8027-54.7363 97.8027-35.2051C97.8027-15.625 81.9824 0.195312 62.4023 0.195312ZM58.2031-16.4551C60.4492-16.4551 62.3047-18.2617 62.3047-20.6055L62.3047-49.8047C62.3047-52.1484 60.4492-53.8574 58.2031-53.8574C56.7383-53.8574 55.6152-53.3203 54.1992-52.0508L46.1914-45.0195C46.1426-44.8242 46.0938-44.8242 45.9473-44.8242L41.2109-44.8242C37.2559-44.8242 35.1074-42.5781 35.1074-38.5254L35.1074-31.8359C35.1074-27.7832 37.2559-25.4883 41.2109-25.4883L45.9473-25.4883C46.0938-25.4883 46.1426-25.4883 46.1914-25.4395L54.1992-18.2617C55.5664-17.0898 56.6895-16.4551 58.2031-16.4551ZM79.9316-18.75C81.6406-17.8223 83.6426-18.2617 84.5703-19.873C87.3535-24.4629 88.9648-29.4434 88.9648-35.1562C88.9648-40.7715 87.3535-45.8008 84.5703-50.3906C83.6426-52.002 81.6406-52.4414 79.9316-51.5137C77.9785-50.4395 77.7832-48.1934 79.0527-46.0449C80.957-42.8711 81.9824-39.0137 81.9824-35.1562C81.9824-31.1523 80.957-27.3926 79.0527-24.2188C77.7832-22.0703 77.9785-19.8242 79.9316-18.75ZM69.2383-24.6582C70.8496-23.6816 72.8027-24.1699 73.7305-25.5371C75.5859-28.2227 76.8555-31.5918 76.8555-35.2051C76.8555-38.8184 75.6348-42.1387 73.7305-44.8242C72.8516-46.1426 70.8984-46.582 69.2383-45.7031C67.4805-44.7754 67.041-42.5781 68.5547-39.9902C69.3848-38.5742 69.8242-36.9141 69.8242-35.2051C69.8242-33.4473 69.3359-31.7871 68.5547-30.3711C67.0898-27.7344 67.4805-25.7324 69.2383-24.6582Z"/>
  </g>
  <g id="Heavy-M" transform="matrix(1 0 0 1 2575.19 1126)">
   <path d="M61.5234 17.5293C90.5273 17.5293 114.258-6.20117 114.258-35.2051C114.258-64.2578 90.5273-87.9883 61.4746-87.9883C32.4707-87.9883 8.74023-64.2578 8.74023-35.2051C8.74023-6.20117 32.4707 17.5293 61.5234 17.5293ZM61.5234 1.61133C41.1133 1.61133 24.6582-14.8438 24.6582-35.2051C24.6582-55.6152 41.1133-72.0703 61.4746-72.0703C81.8848-72.0703 98.3398-55.6152 98.3398-35.2051C98.3398-14.8438 81.8848 1.61133 61.5234 1.61133ZM57.9102-15.6738C60.0098-15.6738 61.7188-17.3828 61.7188-19.5312L61.7188-50.8789C61.7188-53.0273 60.0098-54.6875 57.8613-54.6875C56.4941-54.6875 55.4688-54.1016 54.0527-52.8809L45.459-45.1172C45.3613-44.9707 45.2637-44.9707 45.1172-44.9707L39.7949-44.9707C35.9863-44.9707 33.8867-42.7734 33.8867-38.8672L33.8867-31.543C33.8867-27.6367 35.9863-25.3906 39.7949-25.3906L45.1172-25.3906C45.2637-25.3906 45.3613-25.3906 45.459-25.293L54.0527-17.4316C55.3711-16.3086 56.4453-15.6738 57.9102-15.6738ZM79.1504-18.5547C80.7617-17.627 82.6172-18.0176 83.5449-19.5312C86.4258-24.1211 88.1348-29.3457 88.1348-35.1562C88.1348-40.918 86.4746-46.1914 83.5449-50.7812C82.6172-52.2949 80.7129-52.6855 79.1504-51.8066C77.3926-50.7812 77.1973-48.6816 78.3691-46.7773C80.4688-43.457 81.5918-39.3555 81.5918-35.1562C81.5918-30.9082 80.4688-26.8066 78.3691-23.5352C77.1973-21.6309 77.3926-19.5312 79.1504-18.5547ZM68.9453-24.5605C70.459-23.6328 72.2656-24.0723 73.1934-25.3906C75.0977-28.0762 76.3184-31.543 76.3184-35.2051C76.3184-38.8672 75.1465-42.334 73.1934-45.0195C72.3145-46.2891 70.5078-46.7285 68.9453-45.8496C67.2852-44.9219 66.8945-42.8711 68.2617-40.625C69.2383-39.1113 69.7754-37.207 69.7754-35.2051C69.7754-33.252 69.1895-31.3477 68.2617-29.834C66.9434-27.4902 67.2852-25.5859 68.9453-24.5605Z"/>
  </g>
  <g id="Bold-M" transform="matrix(1 0 0 1 2279.5 1126)">
   <path d="M60.498 16.5039C88.8672 16.5039 112.207-6.83594 112.207-35.2051C112.207-63.623 88.8672-86.9629 60.4492-86.9629C32.0312-86.9629 8.74023-63.623 8.74023-35.2051C8.74023-6.83594 32.0801 16.5039 60.498 16.5039ZM60.498 3.22266C39.1602 3.22266 22.0703-13.916 22.0703-35.2051C22.0703-56.543 39.1602-73.6816 60.4492-73.6816C81.7383-73.6816 98.9258-56.543 98.9258-35.2051C98.9746-13.916 81.7871 3.22266 60.498 3.22266ZM57.5684-14.8438C59.4727-14.8438 61.0352-16.3574 61.0352-18.3105L61.0352-52.0508C61.0352-54.0527 59.4727-55.5664 57.5195-55.5664C56.25-55.5664 55.2734-55.0293 53.9551-53.8086L44.6289-45.2637C44.4824-45.0684 44.3848-45.0684 44.1895-45.0684L38.2324-45.0684C34.5703-45.0684 32.5684-43.0176 32.5684-39.209L32.5684-31.2012C32.5684-27.3926 34.5703-25.293 38.2324-25.293L44.1895-25.293C44.3848-25.293 44.4824-25.293 44.6289-25.1953L53.9551-16.5039C55.1758-15.3809 56.2012-14.8438 57.5684-14.8438ZM78.3203-18.2617C79.7852-17.4316 81.4941-17.7734 82.373-19.1406C85.4004-23.7793 87.1582-29.248 87.1582-35.2051C87.1582-41.0645 85.4492-46.582 82.373-51.2207C81.4453-52.6367 79.7363-53.0273 78.3203-52.1484C76.7578-51.1719 76.5625-49.2676 77.6367-47.6074C79.8828-44.1406 81.1523-39.7461 81.1523-35.2051C81.1523-30.6152 79.8828-26.1719 77.5879-22.8027C76.5137-21.0938 76.709-19.1895 78.3203-18.2617ZM68.6035-24.4629C69.9707-23.5352 71.7285-23.9746 72.6074-25.2441C74.5605-27.832 75.7324-31.4453 75.7324-35.2051C75.7324-38.9648 74.5605-42.5781 72.6074-45.2148C71.7773-46.4844 70.0195-46.8262 68.6035-45.9961C67.1387-45.0684 66.7969-43.2129 68.0176-41.2598C69.0918-39.6973 69.6777-37.5 69.6777-35.2051C69.6777-33.0078 69.043-30.8105 67.9688-29.1504C66.8457-27.1973 67.1387-25.4883 68.6035-24.4629Z"/>
  </g>
  <g id="Semibold-M" transform="matrix(1 0 0 1 1983.5 1126)">
   <path d="M59.7656 15.8203C87.7441 15.8203 110.791-7.27539 110.791-35.2539C110.791-63.2324 87.6953-86.2793 59.7656-86.2793C31.7871-86.2793 8.74023-63.2324 8.74023-35.2539C8.74023-7.27539 31.7871 15.8203 59.7656 15.8203ZM59.7656 4.3457C37.8418 4.3457 20.2637-13.3301 20.2637-35.2539C20.2637-57.1777 37.793-74.8047 59.7656-74.8047C81.6895-74.8047 99.3164-57.1777 99.3652-35.2539C99.3652-13.3301 81.6895 4.3457 59.7656 4.3457ZM57.3242-14.2578C59.1309-14.2578 60.5469-15.6738 60.5469-17.4805L60.5469-52.8809C60.5469-54.7363 59.1309-56.1523 57.3242-56.1523C56.0547-56.1523 55.1758-55.6152 53.8574-54.4434L44.043-45.3613C43.8965-45.166 43.75-45.166 43.5547-45.166L37.1094-45.166C33.5938-45.166 31.6406-43.1641 31.6406-39.4531L31.6406-30.957C31.6406-27.2461 33.5938-25.2441 37.1094-25.2441L43.5547-25.2441C43.75-25.2441 43.8965-25.1953 44.043-25.0977L53.8574-15.8691C55.0293-14.7949 56.0547-14.2578 57.3242-14.2578ZM77.6855-18.1152C79.1016-17.2852 80.7129-17.5781 81.543-18.8965C84.7168-23.5352 86.4746-29.1504 86.4746-35.2051C86.4746-41.1621 84.7656-46.875 81.5918-51.5137C80.6641-52.8809 79.0527-53.2227 77.6855-52.3926C76.2695-51.416 76.0742-49.707 77.0996-48.1445C79.4922-44.6289 80.8105-40.0391 80.8105-35.2051C80.8105-30.4688 79.4922-25.7324 77.0508-22.3145C76.0742-20.752 76.2207-18.9941 77.6855-18.1152ZM68.4082-24.4141C69.6777-23.4863 71.3379-23.877 72.2168-25.0977C74.1699-27.6855 75.3418-31.3965 75.3418-35.2539C75.3418-39.0625 74.1699-42.7246 72.2168-45.3613C71.3867-46.582 69.6777-46.9238 68.4082-46.0938C66.9922-45.166 66.6992-43.457 67.8223-41.748C68.9453-40.1367 69.6289-37.7441 69.6289-35.2539C69.6289-32.8125 68.9453-30.4688 67.7734-28.7109C66.748-27.002 66.9922-25.3906 68.4082-24.4141Z"/>
  </g>
  <g id="Medium-M" transform="matrix(1 0 0 1 1687.3 1126)">
   <path d="M59.2285 15.2344C86.9141 15.2344 109.766-7.61719 109.766-35.2539C109.766-62.8906 86.8652-85.7422 59.1797-85.7422C31.543-85.7422 8.74023-62.8906 8.74023-35.2539C8.74023-7.61719 31.5918 15.2344 59.2285 15.2344ZM59.2285 5.17578C36.8164 5.17578 18.8965-12.8418 18.8965-35.2539C18.8965-57.666 36.8164-75.6348 59.1797-75.6348C81.5918-75.6348 99.6094-57.666 99.6582-35.2539C99.707-12.8418 81.6406 5.17578 59.2285 5.17578ZM57.1777-13.8184C58.8867-13.8184 60.2051-15.1367 60.2051-16.8457L60.2051-53.5156C60.2051-55.2734 58.8867-56.6406 57.1289-56.6406C55.9082-56.6406 55.0781-56.1035 53.7598-54.9316L43.6035-45.4102C43.457-45.2637 43.2617-45.2148 43.0176-45.2148L36.2793-45.2148C32.8613-45.2148 30.9082-43.3105 30.9082-39.6484L30.9082-30.7617C30.9082-27.1484 32.8613-25.1953 36.2793-25.1953L43.0176-25.1953C43.2617-25.1953 43.457-25.1465 43.6035-25L53.7598-15.4297C54.9316-14.3066 55.9082-13.8184 57.1777-13.8184ZM77.2461-17.9688C78.5645-17.1875 80.127-17.4316 80.957-18.7012C84.1309-23.3398 85.9863-29.1016 85.9863-35.2539C85.9863-41.2598 84.2285-47.0703 80.957-51.7578C80.0781-53.0762 78.5156-53.418 77.2461-52.5391C75.9277-51.6602 75.7324-50 76.709-48.584C79.1992-44.9707 80.6152-40.2344 80.6152-35.2539C80.6152-30.3223 79.1992-25.3906 76.6602-21.9238C75.6836-20.5078 75.8789-18.7988 77.2461-17.9688ZM68.2129-24.3164C69.4336-23.4863 71.0449-23.8281 71.9238-25C73.877-27.5879 75.0488-31.3477 75.0488-35.2539C75.0488-39.1113 73.877-42.8223 71.9238-45.5078C71.0938-46.6797 69.4336-47.0215 68.2129-46.1426C66.8945-45.2637 66.6504-43.6035 67.6758-42.0898C68.8477-40.4297 69.6289-37.8906 69.6289-35.2539C69.6289-32.7148 68.8477-30.1758 67.627-28.418C66.6504-26.8555 66.8945-25.293 68.2129-24.3164Z"/>
  </g>
  <g id="Regular-M" transform="matrix(1 0 0 1 1391.3 1126)">
   <path d="M58.5449 14.5508C85.791 14.5508 108.35-8.05664 108.35-35.2539C108.35-62.5 85.7422-85.0586 58.4961-85.0586C31.2988-85.0586 8.74023-62.5 8.74023-35.2539C8.74023-8.05664 31.3477 14.5508 58.5449 14.5508ZM58.5449 6.25C35.498 6.25 17.0898-12.207 17.0898-35.2539C17.0898-58.3008 35.4492-76.7578 58.4961-76.7578C81.543-76.7578 100-58.3008 100.049-35.2539C100.098-12.207 81.5918 6.25 58.5449 6.25ZM56.9336-13.2324C58.5449-13.2324 59.7168-14.4531 59.7168-16.0156L59.7168-54.2969C59.7168-55.957 58.5449-57.2266 56.8848-57.2266C55.7129-57.2266 54.9316-56.6895 53.6621-55.5176L43.0176-45.5078C42.8711-45.3125 42.627-45.3125 42.3828-45.3125L35.2051-45.3125C31.8848-45.3125 30.0293-43.457 30.0293-39.8926L30.0293-30.5664C30.0293-27.002 31.8848-25.1465 35.2051-25.1465L42.3828-25.1465C42.627-25.1465 42.8711-25.0488 43.0176-24.9023L53.6621-14.7949C54.7852-13.7207 55.7617-13.2324 56.9336-13.2324ZM76.6602-17.7734C77.9297-17.041 79.3457-17.2852 80.1758-18.4082C83.4473-23.0957 85.3027-29.0039 85.3027-35.2539C85.3027-41.3574 83.5449-47.3633 80.1758-52.0996C79.2969-53.3203 77.832-53.6133 76.6602-52.7832C75.4883-51.9043 75.293-50.3906 76.1719-49.1211C78.8086-45.459 80.2734-40.5273 80.2734-35.2539C80.2734-30.127 78.8086-24.9512 76.1719-21.4355C75.2441-20.166 75.3906-18.5547 76.6602-17.7734ZM68.0176-24.2676C69.0918-23.4375 70.6543-23.7305 71.5332-24.9023C73.5352-27.4414 74.6582-31.2988 74.6582-35.2539C74.6582-39.1602 73.4863-42.9688 71.5332-45.6055C70.7031-46.7773 69.0918-47.0703 68.0176-46.2891C66.7969-45.3613 66.5527-43.8477 67.4805-42.5293C68.75-40.8691 69.5801-38.1348 69.5801-35.2539C69.5801-32.5195 68.75-29.834 67.4316-27.9785C66.5527-26.6113 66.748-25.1953 68.0176-24.2676Z"/>
  </g>
  <g id="Light-M" transform="matrix(1 0 0 1 1095.42 1126)">
   <path d="M57.7148 13.7207C84.5215 13.7207 106.689-8.44727 106.689-35.2539C106.689-62.1094 84.5215-84.2285 57.666-84.2285C30.8594-84.2285 8.74023-62.1094 8.74023-35.2539C8.74023-8.44727 30.9082 13.7207 57.7148 13.7207ZM57.7148 7.37305C34.082 7.37305 15.0879-11.6699 15.0879-35.2539C15.0879-58.8867 34.082-77.9297 57.666-77.9297C81.2988-77.9297 100.342-58.8867 100.391-35.2539C100.391-11.6699 81.3477 7.37305 57.7148 7.37305ZM56.3477-13.1836C57.7637-13.1836 58.7402-14.2578 58.7402-15.6738L58.7402-54.7363C58.7402-56.1523 57.7637-57.2754 56.3477-57.2754C55.2734-57.2754 54.5898-56.7871 53.6133-55.8594L42.3828-45.166C42.1875-45.0195 41.9434-44.9219 41.6504-44.9219L33.9844-44.9219C31.0547-44.9219 29.1992-43.1152 29.1992-40.0391L29.1992-30.3711C29.1992-27.2461 31.0547-25.4395 33.9844-25.4395L41.6504-25.4395C41.9434-25.4395 42.1875-25.3418 42.3828-25.1465L53.6133-14.502C54.4922-13.6719 55.3223-13.1836 56.3477-13.1836ZM76.7578-17.6758C77.7344-17.041 78.9062-17.2363 79.5898-18.2129C82.959-22.6074 84.9121-28.4668 84.9121-35.2539C84.9121-41.3574 83.1055-47.2656 79.6875-52.2949C78.9551-53.3203 77.7344-53.5645 76.7578-52.8809C75.7812-52.1484 75.6348-50.9277 76.3184-49.9023C79.248-45.7031 80.7617-40.6738 80.7617-35.2539C80.7617-29.6875 79.1992-24.3652 76.2695-20.6543C75.5371-19.6289 75.6836-18.3594 76.7578-17.6758ZM67.627-24.2676C68.5059-23.584 69.8242-23.8281 70.5566-24.8047C72.6562-27.4414 73.7793-31.3477 73.7793-35.2539C73.7793-39.209 72.6074-43.0176 70.5566-45.7031C69.8242-46.6797 68.5059-46.9238 67.627-46.2402C66.6504-45.459 66.4551-44.2871 67.1875-43.2129C68.6523-41.3574 69.5801-38.4277 69.5801-35.2539C69.5801-32.2754 68.6523-29.3457 67.1387-27.2461C66.4551-26.2207 66.6016-25.0977 67.627-24.2676Z"/>
  </g>
  <g id="Thin-M" transform="matrix(1 0 0 1 799.806 1126)">
   <path d="M56.6406 12.5977C82.9102 12.5977 104.492-8.98438 104.492-35.2539C104.492-61.5723 82.9102-83.1543 56.5918-83.1543C30.3223-83.1543 8.74023-61.5723 8.74023-35.2539C8.74023-8.98438 30.3223 12.5977 56.6406 12.5977ZM56.6406 8.88672C32.2266 8.88672 12.4512-10.8887 12.4512-35.2539C12.4512-59.6191 32.2266-79.4434 56.5918-79.4434C81.0059-79.4434 100.781-59.6191 100.781-35.2539C100.781-10.8887 81.0059 8.88672 56.6406 8.88672ZM55.6152-13.1348C56.7871-13.1348 57.4219-14.0625 57.4219-15.1855L57.4219-55.3223C57.4219-56.4453 56.7871-57.373 55.5664-57.373C54.7363-57.373 54.1504-56.8848 53.4668-56.2988L41.6016-44.7754C41.3086-44.5801 41.0156-44.4824 40.625-44.4824L32.3242-44.4824C29.9316-44.4824 28.125-42.627 28.125-40.2344L28.125-30.0781C28.125-27.6367 29.9316-25.7812 32.3242-25.7812L40.625-25.7812C41.0156-25.7812 41.3086-25.6836 41.6016-25.4395L53.4668-14.1602C54.1016-13.623 54.7363-13.1348 55.6152-13.1348ZM76.8066-17.5781C77.5391-17.0898 78.2715-17.1387 78.9062-17.8711C82.3242-21.9727 84.4238-27.7344 84.4238-35.2539C84.4238-41.3574 82.5195-47.168 79.0039-52.5879C78.4668-53.3691 77.5391-53.4668 76.8066-53.0273C76.1719-52.4414 76.0742-51.6113 76.5137-50.8789C79.7852-46.0449 81.3965-40.8691 81.3965-35.2539C81.3965-29.1016 79.7363-23.5352 76.416-19.5801C75.9277-18.9941 76.0742-18.0664 76.8066-17.5781ZM67.1387-24.3164C67.7734-23.8281 68.7012-23.9258 69.2871-24.6582C71.4844-27.4414 72.6074-31.3965 72.6074-35.2539C72.6074-39.209 71.4844-43.0664 69.2871-45.8496C68.75-46.582 67.7734-46.7285 67.1387-46.1914C66.4551-45.6543 66.3086-44.8242 66.7969-44.0918C68.5547-42.041 69.5801-38.8184 69.5801-35.2539C69.5801-31.8848 68.5059-28.7109 66.6992-26.3672C66.3086-25.6836 66.4062-24.9023 67.1387-24.3164Z"/>
  </g>
  <g id="Ultralight-M" transform="matrix(1 0 0 1 503.656 1126)">
   <path d="M56.0547 12.0605C82.0801 12.0605 103.369-9.22852 103.369-35.2539C103.369-61.2793 82.0801-82.5684 56.0547-82.5684C30.0293-82.5684 8.74023-61.2793 8.74023-35.2539C8.74023-9.22852 30.0293 12.0605 56.0547 12.0605ZM56.0547 9.66797C31.2988 9.66797 11.1328-10.498 11.1328-35.2539C11.1328-60.0586 31.2988-80.1758 56.0547-80.1758C80.8594-80.1758 100.977-60.0586 100.977-35.2539C100.977-10.498 80.8594 9.66797 56.0547 9.66797ZM55.2246-13.1348C56.25-13.1348 56.7383-13.916 56.7383-14.9414L56.7383-55.6152C56.7383-56.5918 56.25-57.373 55.2246-57.373C54.4434-57.373 53.9062-56.9336 53.418-56.543L41.1621-44.5801C40.8691-44.3359 40.5762-44.2383 40.1367-44.2383L31.4941-44.2383C29.3945-44.2383 27.5879-42.4316 27.5879-40.332L27.5879-29.9316C27.5879-27.7832 29.3945-25.9766 31.4941-25.9766L40.1367-25.9766C40.5762-25.9766 40.8691-25.8789 41.1621-25.6348L53.418-14.0137C53.9062-13.5742 54.4434-13.1348 55.2246-13.1348ZM76.8555-17.4805C77.3926-17.1387 77.9785-17.1387 78.5156-17.7246C82.0312-21.6309 84.1309-27.3926 84.1309-35.2539C84.1309-41.3574 82.1777-47.1191 78.6621-52.7344C78.2227-53.418 77.4902-53.4668 76.8555-53.0762C76.3672-52.5879 76.3184-52.002 76.6113-51.3672C80.0781-46.2402 81.6895-41.0156 81.6895-35.2539C81.6895-28.8086 79.9805-23.1445 76.5137-19.0918C76.123-18.6523 76.2695-17.9199 76.8555-17.4805ZM66.8945-24.3652C67.334-23.9258 68.1641-23.9746 68.6523-24.6094C70.8984-27.3926 72.0215-31.3965 72.0215-35.2539C72.0215-39.2578 70.8984-43.1152 68.6523-45.9473C68.1641-46.5332 67.334-46.582 66.8945-46.1426C66.4062-45.752 66.2598-45.1172 66.6504-44.5312C68.5059-42.3828 69.5801-39.0137 69.5801-35.2539C69.5801-31.6895 68.457-28.3691 66.5039-25.8789C66.2598-25.3906 66.3086-24.8535 66.8945-24.3652Z"/>
  </g>
  <g id="Black-S" transform="matrix(1 0 0 1 2884.57 696)">
   <path d="M48.8281 6.78711C71.9727 6.78711 90.8203-12.0605 90.8203-35.2051C90.8203-58.3496 71.9727-77.1973 48.8281-77.1973C25.6836-77.1973 6.83594-58.3496 6.83594-35.2051C6.83594-12.0605 25.6836 6.78711 48.8281 6.78711ZM48.8281-7.37305C33.4473-7.37305 20.9961-19.8242 20.9961-35.2051C20.9961-50.5859 33.4473-63.0371 48.8281-63.0371C64.209-63.0371 76.6602-50.5859 76.6602-35.2051C76.6602-19.8242 64.209-7.37305 48.8281-7.37305ZM45.5566-20.459C47.3145-20.459 48.7793-21.875 48.7793-23.6816L48.7793-46.7285C48.7793-48.5352 47.3145-49.9023 45.5566-49.9023C44.4336-49.9023 43.5547-49.4629 42.4316-48.4863L36.1328-42.9199C36.084-42.7734 36.0352-42.7734 35.9375-42.7734L32.1777-42.7734C29.1016-42.7734 27.3926-41.0156 27.3926-37.8418L27.3926-32.5684C27.3926-29.3945 29.1016-27.5879 32.1777-27.5879L35.9375-27.5879C36.0352-27.5879 36.084-27.5879 36.1328-27.5391L42.4316-21.875C43.5059-20.9473 44.3848-20.459 45.5566-20.459ZM62.5488-22.3145C63.8672-21.582 65.4297-21.9238 66.1621-23.1934C68.3594-26.7578 69.6289-30.7129 69.6289-35.1562C69.6289-39.5996 68.3594-43.5547 66.1621-47.1191C65.4297-48.3887 63.8672-48.7305 62.5488-47.998C61.0352-47.168 60.8887-45.4102 61.8652-43.75C63.3789-41.2598 64.1602-38.2324 64.1602-35.1562C64.1602-32.0312 63.3789-29.0527 61.8652-26.5625C60.8887-24.9023 61.0352-23.1445 62.5488-22.3145ZM54.1992-26.9531C55.4688-26.1719 56.9824-26.5625 57.7148-27.6367C59.1797-29.7363 60.1562-32.373 60.1562-35.2051C60.1562-38.0371 59.2285-40.6738 57.7148-42.7734C57.0312-43.7988 55.5176-44.1406 54.1992-43.457C52.832-42.7246 52.4902-41.0156 53.6621-39.0137C54.3457-37.8906 54.6875-36.5723 54.6875-35.2051C54.6875-33.8379 54.2969-32.5195 53.6621-31.3965C52.5391-29.3457 52.832-27.7832 54.1992-26.9531Z"/>
  </g>
  <g id="Heavy-S" transform="matrix(1 0 0 1 2588.47 696)">
   <path d="M48.2422 6.15234C70.9961 6.15234 89.5996-12.4512 89.5996-35.2051C89.5996-57.959 70.9961-76.6113 48.1934-76.6113C25.4395-76.6113 6.83594-57.959 6.83594-35.2051C6.83594-12.4512 25.4395 6.15234 48.2422 6.15234ZM48.2422-6.39648C32.2754-6.39648 19.4336-19.2871 19.4336-35.2051C19.4336-51.1719 32.2754-64.0137 48.1934-64.0137C64.1602-64.0137 77.002-51.1719 77.0508-35.2051C77.0508-19.2871 64.1602-6.39648 48.2422-6.39648ZM45.4102-19.873C47.0703-19.873 48.4375-21.1914 48.4375-22.9004L48.4375-47.5098C48.4375-49.2188 47.0703-50.4883 45.4102-50.4883C44.2871-50.4883 43.457-50.0488 42.334-49.0723L35.6445-43.0176C35.5469-42.9199 35.498-42.9199 35.4004-42.9199L31.25-42.9199C28.2227-42.9199 26.5625-41.2109 26.5625-38.0859L26.5625-32.373C26.5625-29.1992 28.2227-27.4902 31.25-27.4902L35.4004-27.4902C35.498-27.4902 35.5469-27.4902 35.6445-27.4414L42.334-21.2891C43.4082-20.3613 44.2871-19.873 45.4102-19.873ZM61.9629-22.168C63.2324-21.4355 64.6973-21.7285 65.4297-22.9492C67.7246-26.5625 68.9941-30.7129 68.9941-35.1562C68.9941-39.6973 67.7246-43.8477 65.4297-47.4121C64.6973-48.6328 63.1836-48.9258 61.9629-48.2422C60.5469-47.4121 60.4004-45.752 61.3281-44.2383C62.9395-41.6992 63.8184-38.4766 63.8184-35.1562C63.8184-31.8848 62.9395-28.6621 61.3281-26.123C60.4004-24.6094 60.5469-22.9492 61.9629-22.168ZM54.0039-26.8555C55.2246-26.123 56.6895-26.4648 57.4219-27.5391C58.8867-29.5898 59.8633-32.3242 59.8633-35.2051C59.8633-38.0859 58.9355-40.8203 57.4219-42.9199C56.7383-43.9453 55.2734-44.2383 54.0039-43.5547C52.7344-42.8223 52.4414-41.2109 53.5156-39.4043C54.248-38.2324 54.6387-36.7676 54.6387-35.2051C54.6387-33.6914 54.1992-32.2266 53.5156-31.0547C52.4414-29.1992 52.7344-27.6855 54.0039-26.8555Z"/>
  </g>
  <g id="Bold-S" transform="matrix(1 0 0 1 2292.44 696)">
   <path d="M47.5586 5.46875C69.873 5.46875 88.2324-12.8906 88.2324-35.2539C88.2324-57.5684 69.873-75.9277 47.5098-75.9277C25.1953-75.9277 6.83594-57.5684 6.83594-35.2539C6.83594-12.8906 25.1953 5.46875 47.5586 5.46875ZM47.5586-5.32227C30.957-5.32227 17.6758-18.6523 17.6758-35.2539C17.6758-51.8066 30.957-65.1367 47.5098-65.1367C64.1113-65.1367 77.4414-51.8066 77.4414-35.2539C77.4414-18.6523 64.1113-5.32227 47.5586-5.32227ZM45.2148-19.2383C46.7773-19.2383 47.998-20.459 47.998-22.0215L47.998-48.3398C47.998-49.9512 46.7773-51.1719 45.2148-51.1719C44.1406-51.1719 43.3594-50.7324 42.2363-49.7559L35.0586-43.1641C34.9609-43.0176 34.8633-43.0176 34.7656-43.0176L30.1758-43.0176C27.2461-43.0176 25.6348-41.4062 25.6348-38.3301L25.6348-32.1289C25.6348-29.0039 27.2461-27.3926 30.1758-27.3926L34.7656-27.3926C34.8633-27.3926 34.9609-27.3438 35.0586-27.2949L42.2363-20.6055C43.3105-19.6777 44.1406-19.2383 45.2148-19.2383ZM61.2793-21.9727C62.5-21.2891 63.916-21.5332 64.5996-22.7051C66.9922-26.3672 68.3105-30.6641 68.3105-35.2051C68.3105-39.8438 66.9922-44.1406 64.5996-47.7051C63.8672-48.877 62.4512-49.1699 61.2793-48.4863C60.0098-47.6562 59.8633-46.1426 60.7422-44.7754C62.4512-42.1875 63.4277-38.7695 63.4277-35.2051C63.4277-31.7383 62.4512-28.2715 60.7422-25.6836C59.8145-24.2676 59.9609-22.7051 61.2793-21.9727ZM53.8086-26.8066C54.9316-26.0254 56.3477-26.3672 57.0801-27.3926C58.5938-29.4434 59.5215-32.2754 59.5215-35.2539C59.5215-38.1836 58.5938-40.9668 57.0801-43.0664C56.3965-44.043 54.9805-44.3848 53.8086-43.6523C52.5879-42.9199 52.3438-41.4062 53.3203-39.8438C54.1016-38.623 54.5898-36.9629 54.5898-35.2539C54.5898-33.5449 54.1016-31.8848 53.3203-30.6152C52.3438-29.0039 52.5879-27.5879 53.8086-26.8066Z"/>
  </g>
  <g id="Semibold-S" transform="matrix(1 0 0 1 1996.2 696)">
   <path d="M47.0703 4.98047C69.0918 4.98047 87.3047-13.1836 87.3047-35.2539C87.3047-57.2754 69.0918-75.4883 47.0215-75.4883C25-75.4883 6.83594-57.2754 6.83594-35.2539C6.83594-13.1836 25.0488 4.98047 47.0703 4.98047ZM47.0703-4.58984C30.0781-4.58984 16.4551-18.2129 16.4551-35.2539C16.4551-52.2461 30.0293-65.8691 47.0215-65.8691C64.0625-65.8691 77.6855-52.2461 77.7344-35.2539C77.7344-18.2129 64.0625-4.58984 47.0703-4.58984ZM45.1172-18.7988C46.582-18.7988 47.7539-19.9219 47.7539-21.4355L47.7539-48.9258C47.7539-50.4395 46.582-51.6602 45.0684-51.6602C44.043-51.6602 43.3105-51.2207 42.1875-50.1953L34.668-43.2617C34.5703-43.1152 34.4727-43.1152 34.3262-43.1152L29.4434-43.1152C26.5625-43.1152 25-41.6016 25-38.4766L25-31.9336C25-28.9062 26.5625-27.2949 29.4434-27.2949L34.3262-27.2949C34.4727-27.2949 34.5703-27.2949 34.668-27.1973L42.1875-20.166C43.2129-19.1895 44.043-18.7988 45.1172-18.7988ZM60.8398-21.8262C61.9629-21.1426 63.3301-21.4355 64.0625-22.5098C66.4551-26.2207 67.8711-30.6641 67.8711-35.2051C67.8711-39.8926 66.5039-44.3848 64.0625-47.9492C63.2812-49.0723 61.9141-49.3652 60.8398-48.6328C59.6191-47.8516 59.4727-46.3867 60.3027-45.1172C62.1094-42.5293 63.1348-38.9648 63.1348-35.2051C63.1348-31.6406 62.1094-27.9785 60.3027-25.3418C59.4727-24.0723 59.6191-22.5586 60.8398-21.8262ZM53.7109-26.709C54.7363-25.9766 56.1523-26.3184 56.8848-27.3438C58.3984-29.3457 59.2773-32.2266 59.2773-35.2539C59.2773-38.1836 58.3496-41.0645 56.8848-43.1641C56.1523-44.1406 54.7363-44.4336 53.7109-43.75C52.5391-42.9688 52.2949-41.5039 53.2227-40.1367C54.0527-38.916 54.541-37.1094 54.541-35.2539C54.541-33.4473 54.0039-31.6406 53.1738-30.3711C52.2949-28.9062 52.5391-27.5391 53.7109-26.709Z"/>
  </g>
  <g id="Medium-S" transform="matrix(1 0 0 1 1699.83 696)">
   <path d="M46.7285 4.63867C68.5547 4.63867 86.6211-13.4277 86.6211-35.2539C86.6211-57.0801 68.5059-75.1465 46.6797-75.1465C24.8535-75.1465 6.83594-57.0801 6.83594-35.2539C6.83594-13.4277 24.9023 4.63867 46.7285 4.63867ZM46.7285-4.00391C29.3945-4.00391 15.5273-17.9199 15.5273-35.2539C15.5273-52.5879 29.3457-66.4551 46.6797-66.4551C64.0137-66.4551 77.8809-52.5879 77.9297-35.2539C77.9785-17.9199 64.0625-4.00391 46.7285-4.00391ZM45.0195-18.457C46.4355-18.457 47.5098-19.5312 47.5098-20.9473L47.5098-49.3652C47.5098-50.8301 46.4355-52.002 44.9707-52.002C43.9453-52.002 43.2617-51.5625 42.1387-50.5371L34.375-43.3105C34.2773-43.2129 34.1309-43.2129 33.9844-43.2129L28.9062-43.2129C26.0254-43.2129 24.5117-41.6992 24.5117-38.623L24.5117-31.8359C24.5117-28.8086 26.0254-27.2461 28.9062-27.2461L33.9844-27.2461C34.1309-27.2461 34.2773-27.1973 34.375-27.1484L42.1387-19.7754C43.1641-18.8477 43.9453-18.457 45.0195-18.457ZM60.498-21.7285C61.6211-21.0449 62.9395-21.3379 63.623-22.3633C66.1133-26.0742 67.4805-30.6641 67.4805-35.2539C67.4805-39.9414 66.1621-44.5312 63.623-48.0957C62.8418-49.1699 61.5234-49.4629 60.498-48.7793C59.375-47.998 59.1797-46.582 60.0098-45.4102C61.8652-42.7734 62.9395-39.1113 62.9395-35.2539C62.9395-31.543 61.8652-27.7832 60.0098-25.0977C59.1797-23.877 59.3262-22.4121 60.498-21.7285ZM53.6133-26.6602C54.5898-25.9766 55.957-26.2695 56.6895-27.2461C58.2031-29.248 59.1309-32.1777 59.1309-35.2539C59.1309-38.2324 58.2031-41.1621 56.6895-43.2129C56.0059-44.2383 54.5898-44.5312 53.6133-43.7988C52.4414-43.0176 52.2461-41.6504 53.125-40.332C53.9551-39.1113 54.541-37.207 54.541-35.2539C54.541-33.3496 53.9551-31.4453 53.125-30.127C52.2461-28.8086 52.4414-27.4902 53.6133-26.6602Z"/>
  </g>
  <g id="Regular-S" transform="matrix(1 0 0 1 1403.58 696)">
   <path d="M46.2402 4.15039C67.7734 4.15039 85.6934-13.7207 85.6934-35.2539C85.6934-56.7871 67.7246-74.6582 46.1914-74.6582C24.707-74.6582 6.83594-56.7871 6.83594-35.2539C6.83594-13.7207 24.7559 4.15039 46.2402 4.15039ZM46.2402-3.27148C28.5156-3.27148 14.3555-17.4805 14.3555-35.2539C14.3555-53.0273 28.4668-67.2363 46.1914-67.2363C63.9648-67.2363 78.1738-53.0273 78.2227-35.2539C78.2715-17.4805 64.0137-3.27148 46.2402-3.27148ZM44.873-18.0176C46.2402-18.0176 47.2656-18.9941 47.2656-20.3613L47.2656-49.9512C47.2656-51.3672 46.2402-52.4414 44.8242-52.4414C43.8477-52.4414 43.2129-52.002 42.0898-50.9766L33.9844-43.4082C33.8867-43.3105 33.7402-43.3105 33.5938-43.3105L28.1738-43.3105C25.3418-43.3105 23.877-41.8457 23.877-38.7695L23.877-31.6406C23.877-28.6621 25.3418-27.1973 28.1738-27.1973L33.5938-27.1973C33.7402-27.1973 33.8867-27.1484 33.9844-27.0508L42.0898-19.3359C43.0664-18.4082 43.8965-18.0176 44.873-18.0176ZM60.0098-21.6309C61.084-20.9473 62.4023-21.1914 63.0371-22.168C65.5762-25.9277 67.041-30.6152 67.041-35.2539C67.041-40.0391 65.6738-44.7754 63.0371-48.3398C62.3047-49.3652 61.0352-49.6582 60.0098-48.9258C58.9844-48.1934 58.7891-46.875 59.5703-45.752C61.5234-43.1152 62.6465-39.3066 62.6465-35.2539C62.6465-31.4453 61.5234-27.4902 59.5703-24.8047C58.7891-23.6328 58.9355-22.2656 60.0098-21.6309ZM53.4668-26.6113C54.3945-25.9277 55.7129-26.1719 56.4941-27.1973C58.0078-29.1504 58.8867-32.1289 58.8867-35.2539C58.8867-38.2812 57.959-41.2598 56.4941-43.3105C55.7617-44.3359 54.3945-44.5801 53.4668-43.8965C52.3926-43.0664 52.1973-41.748 52.9785-40.625C53.9062-39.4043 54.4922-37.3535 54.4922-35.2539C54.4922-33.252 53.9062-31.2012 52.9785-29.8828C52.1973-28.7109 52.3926-27.4414 53.4668-26.6113Z"/>
  </g>
  <g id="Light-S" transform="matrix(1 0 0 1 1107.6 696)">
   <path d="M45.5078 3.41797C66.6992 3.41797 84.2285-14.0625 84.2285-35.2539C84.2285-56.4453 66.6504-73.9258 45.5078-73.9258C24.3164-73.9258 6.83594-56.4453 6.83594-35.2539C6.83594-14.0625 24.3652 3.41797 45.5078 3.41797ZM45.5078-2.29492C27.2461-2.29492 12.5977-16.9922 12.5977-35.2539C12.5977-53.5156 27.1973-68.2129 45.5078-68.2129C63.7695-68.2129 78.4668-53.5156 78.5156-35.2539C78.5156-16.9922 63.8184-2.29492 45.5078-2.29492ZM44.3848-17.9688C45.5566-17.9688 46.3867-18.8477 46.3867-20.0195L46.3867-50.3418C46.3867-51.5625 45.5566-52.4902 44.3359-52.4902C43.457-52.4902 42.9199-52.0996 41.9922-51.2695L33.4473-43.1641C33.3008-43.0176 33.1055-42.9688 32.9102-42.9688L27.0996-42.9688C24.6094-42.9688 23.1934-41.5527 23.1934-38.916L23.1934-31.4941C23.1934-28.9062 24.6094-27.4414 27.0996-27.4414L32.9102-27.4414C33.1055-27.4414 33.3008-27.3926 33.4473-27.2461L41.9922-19.0918C42.8223-18.3594 43.5059-17.9688 44.3848-17.9688ZM60.0586-21.5332C60.9375-20.9961 61.9629-21.1426 62.5488-21.9727C65.1855-25.5371 66.6992-30.127 66.6992-35.2539C66.6992-40.0391 65.2344-44.6777 62.5977-48.5352C61.9629-49.4141 60.9375-49.6094 60.0586-49.0234C59.2285-48.3887 59.082-47.3145 59.7168-46.4355C61.9141-43.3594 63.0859-39.4531 63.0859-35.2539C63.0859-31.0547 61.8652-26.9531 59.668-24.0723C59.0332-23.1934 59.1797-22.0703 60.0586-21.5332ZM53.125-26.6602C53.9062-26.0742 54.9805-26.2695 55.6641-27.0996C57.2266-29.1504 58.1055-32.1777 58.1055-35.2539C58.1055-38.3301 57.2266-41.3086 55.6641-43.4082C55.0293-44.2383 53.9062-44.4336 53.125-43.8477C52.2461-43.2129 52.0996-42.1387 52.7344-41.2109C53.8086-39.8438 54.4922-37.5977 54.4922-35.2539C54.4922-33.0078 53.8086-30.8105 52.6855-29.248C52.0996-28.3203 52.2461-27.3438 53.125-26.6602Z"/>
  </g>
  <g id="Thin-S" transform="matrix(1 0 0 1 811.867 696)">
   <path d="M44.5801 2.49023C65.2832 2.49023 82.2754-14.5508 82.2754-35.2539C82.2754-55.957 65.2344-72.998 44.5312-72.998C23.8281-72.998 6.83594-55.957 6.83594-35.2539C6.83594-14.5508 23.877 2.49023 44.5801 2.49023ZM44.5801-0.927734C25.5859-0.927734 10.2539-16.3086 10.2539-35.2539C10.2539-54.1992 25.5859-69.5801 44.5312-69.5801C63.5254-69.5801 78.8574-54.1992 78.8574-35.2539C78.8574-16.3086 63.5254-0.927734 44.5801-0.927734ZM43.7012-17.9688C44.6777-17.9688 45.2148-18.7012 45.2148-19.6289L45.2148-50.8301C45.2148-51.8066 44.6777-52.5391 43.7012-52.5391C42.9688-52.5391 42.4805-52.1973 41.8945-51.6602L32.7148-42.8223C32.5195-42.627 32.3242-42.5781 32.0312-42.5781L25.6348-42.5781C23.6816-42.5781 22.2168-41.1133 22.2168-39.1113L22.2168-31.25C22.2168-29.1992 23.6816-27.7832 25.6348-27.7832L32.0312-27.7832C32.3242-27.7832 32.5195-27.6855 32.7148-27.4902L41.8945-18.7988C42.4805-18.3105 43.0176-17.9688 43.7012-17.9688ZM60.1562-21.4355C60.791-20.9961 61.4258-21.0938 61.9141-21.7285C64.5996-24.9512 66.2109-29.4922 66.2109-35.2539C66.2109-40.0391 64.7461-44.5801 62.0117-48.7793C61.5723-49.4141 60.791-49.5605 60.1562-49.1211C59.5703-48.6328 59.5215-47.9492 59.9121-47.3145C62.4023-43.6523 63.623-39.5996 63.623-35.2539C63.623-30.5664 62.3535-26.2207 59.8145-23.1934C59.375-22.6562 59.5215-21.8262 60.1562-21.4355ZM52.6855-26.6602C53.2227-26.2207 54.0527-26.3672 54.541-27.002C56.2012-29.1016 57.0801-32.1777 57.0801-35.2539C57.0801-38.3301 56.2012-41.3574 54.541-43.5059C54.0527-44.1406 53.2227-44.2871 52.6855-43.8477C52.0996-43.3594 52.002-42.627 52.3926-41.9922C53.7109-40.4297 54.4922-37.9395 54.4922-35.2539C54.4922-32.666 53.7109-30.2246 52.3438-28.4668C52.002-27.832 52.0508-27.1973 52.6855-26.6602Z"/>
  </g>
  <g id="Ultralight-S" transform="matrix(1 0 0 1 515.644 696)">
   <path d="M44.043 1.95312C64.502 1.95312 81.2988-14.7949 81.2988-35.2539C81.2988-55.7129 64.502-72.4609 44.043-72.4609C23.584-72.4609 6.83594-55.7129 6.83594-35.2539C6.83594-14.7949 23.584 1.95312 44.043 1.95312ZM44.043-0.244141C24.7559-0.244141 9.08203-15.9668 9.08203-35.2539C9.08203-54.541 24.7559-70.2637 44.043-70.2637C63.3789-70.2637 79.0527-54.541 79.0527-35.2539C79.0527-15.9668 63.3789-0.244141 44.043-0.244141ZM43.3594-17.9199C44.1895-17.9199 44.6289-18.5547 44.6289-19.3848L44.6289-51.123C44.6289-51.9043 44.1895-52.5879 43.3594-52.5879C42.7246-52.5879 42.2852-52.2461 41.8457-51.8555L32.373-42.627C32.1289-42.4316 31.8848-42.334 31.543-42.334L24.9023-42.334C23.1445-42.334 21.7285-40.918 21.7285-39.209L21.7285-31.1523C21.7285-29.3457 23.1445-27.9297 24.9023-27.9297L31.543-27.9297C31.8848-27.9297 32.1289-27.832 32.373-27.6367L41.8457-18.6523C42.2852-18.2617 42.7246-17.9199 43.3594-17.9199ZM60.2051-21.3379C60.6445-21.0449 61.1328-21.0449 61.6211-21.582C64.3066-24.6582 65.9668-29.1992 65.9668-35.2539C65.9668-40.0391 64.4531-44.5312 61.6699-48.877C61.3281-49.4629 60.6934-49.5117 60.2051-49.2188C59.7656-48.7793 59.7168-48.291 60.0098-47.7539C62.6465-43.7988 63.916-39.7461 63.916-35.2539C63.916-30.2734 62.5977-25.8789 59.9121-22.7051C59.5703-22.3145 59.668-21.7285 60.2051-21.3379ZM52.4414-26.709C52.8809-26.3672 53.5156-26.416 53.9551-26.9043C55.6641-29.1016 56.543-32.2266 56.543-35.2539C56.543-38.3789 55.6641-41.4062 53.9551-43.6035C53.5156-44.0918 52.8809-44.1406 52.4414-43.7988C52.002-43.457 51.9043-42.9199 52.2461-42.3828C53.6621-40.7715 54.4922-38.1348 54.4922-35.2539C54.4922-32.5195 53.6133-29.9316 52.1484-28.0273C51.9043-27.5879 51.9531-27.0996 52.4414-26.709Z"/>
  </g>
 </g>
</svg>
